<svg width="78" height="24" fill="none" xmlns="http://www.w3.org/2000/svg"><g opacity=".7" fill="#E8EDF9"><path fill-rule="evenodd" clip-rule="evenodd" d="M11.426 23.379c6.228 0 11.277-5.05 11.277-11.277 0-6.228-5.049-11.277-11.277-11.277C5.198.825.149 5.874.149 12.102c0 6.228 5.049 11.277 11.277 11.277zM15.207 7.17c1.465.662 2.433 1.62 2.2 3.195-.2 1.363-.948 2.022-1.94 2.254 1.363.717 2.057 1.816 1.396 3.722-.719 2.073-2.302 2.484-4.425 2.222-.528-.066-1.036.254-1.164.77l-.212.862a.784.784 0 1 1-1.522-.376l.286-1.155a.616.616 0 0 0-.441-.75.632.632 0 0 0-.775.45l-.282 1.143a.783.783 0 0 1-1.52-.375l.206-.834a1.002 1.002 0 0 0-.72-1.21l-.127-.033-.911-.23a.938.938 0 0 1-.633-1.279l.209-.486c.064-.149.127-.255.285-.214.29.077 1.506.159 1.622-.118l.006-.014.994-4.024.109.027.051.013a1.241 1.241 0 0 0-.158-.051l.698-2.824a.437.437 0 0 0 .013-.099.86.86 0 0 0-.088-.408c-.139-.27-1.169-.58-1.464-.65-.191-.046-.223-.217-.176-.408l.118-.477a.836.836 0 0 1 1.016-.61l1.277.321c.002.001.003.003.003.005 0 .003 0 .005.003.005.157.04.316.078.478.116a.508.508 0 0 0 .609-.374l.314-1.27a.783.783 0 0 1 1.52.376l-.272 1.104a.625.625 0 1 0 1.216.296l.268-1.087a.784.784 0 1 1 1.522.376l-.217.88c-.124.5.158 1.006.628 1.219zm-4.985 8.978c1.357.325 3.35.612 3.714-.866.38-1.539-1.512-2.195-2.865-2.533a1.014 1.014 0 0 0-1.219.746l-.355 1.437c-.132.535.19 1.088.726 1.216zm4.183-5.81c-.317 1.282-1.846 1.134-2.968.883-.537-.12-.857-.678-.725-1.213l.278-1.124c.132-.538.682-.886 1.218-.744 1.11.293 2.526.863 2.197 2.197zM33.83 8.848c-.403-.198-.884-.298-1.44-.298-.266 0-.515.03-.747.088-.231.06-.463.14-.694.245l1.076-4.524-2.69.422-3.005 12.748a5.32 5.32 0 0 0 1.069.386c.375.094.731.164 1.068.211.334.046.633.073.893.078.26.006.444.009.548.009.81 0 1.563-.155 2.256-.465a5.677 5.677 0 0 0 1.806-1.261 5.943 5.943 0 0 0 1.208-1.878 5.955 5.955 0 0 0 .442-2.288c0-.526-.064-1.017-.19-1.473a3.413 3.413 0 0 0-.59-1.193 2.905 2.905 0 0 0-1.01-.807zm-2.55 6.91a2.34 2.34 0 0 1-1.146.298h-.312a1.872 1.872 0 0 1-.373-.036 5.66 5.66 0 0 0-.183-.035l1.146-4.805c.21-.186.443-.31.704-.369.26-.056.47-.088.633-.088.497 0 .84.159 1.025.474.185.316.278.754.278 1.315 0 .457-.076.896-.226 1.316-.15.421-.356.798-.616 1.132-.26.333-.57.6-.93.798zM38.69 7.298c.288.216.614.324.972.324.243 0 .47-.045.686-.14a1.825 1.825 0 0 0 .954-.938c.098-.216.148-.447.148-.693 0-.443-.146-.774-.434-.991a1.584 1.584 0 0 0-.972-.324c-.243 0-.472.046-.687.14-.213.094-.401.22-.564.377a1.853 1.853 0 0 0-.391.561 1.665 1.665 0 0 0-.147.693c0 .445.144.776.435.99zm-2.85 10.67h2.57l2.188-9.223h-2.587l-2.17 9.224z"/><path d="M42.85 6.447l2.692-.421-.66 2.719h2.882l-.52 2.139h-2.866l-.763 3.226c-.07.269-.11.52-.122.753-.012.235.017.436.087.606.069.17.193.3.373.393.18.095.436.142.772.142.278 0 .548-.027.809-.08.26-.051.523-.124.789-.218l.191 2c-.347.128-.723.239-1.128.332-.406.094-.886.14-1.442.14-.798 0-1.417-.12-1.858-.358-.44-.24-.752-.569-.938-.984-.184-.414-.266-.89-.243-1.428a9.333 9.333 0 0 1 .243-1.701l1.702-7.26zM47.651 14.286c0-.795.128-1.544.382-2.245a5.533 5.533 0 0 1 1.095-1.843 5.128 5.128 0 0 1 1.728-1.245c.676-.303 1.432-.456 2.265-.456.522 0 .988.05 1.398.15.412.1.784.23 1.12.394l-.886 2.036a8.223 8.223 0 0 0-.72-.255 3.105 3.105 0 0 0-.911-.114c-.858 0-1.536.298-2.041.894-.503.595-.756 1.397-.756 2.403 0 .596.127 1.078.383 1.447.254.369.724.552 1.406.552.337 0 .661-.036.972-.105.314-.07.59-.158.834-.263l.192 2.087a9.228 9.228 0 0 1-1.076.343 5.93 5.93 0 0 1-1.407.148c-.718 0-1.326-.107-1.824-.316a3.472 3.472 0 0 1-1.232-.85 3.215 3.215 0 0 1-.703-1.255 5.195 5.195 0 0 1-.219-1.507z"/><path fill-rule="evenodd" clip-rule="evenodd" d="M57.47 17.932c.452.187.985.282 1.599.282.845 0 1.59-.18 2.231-.536a5.11 5.11 0 0 0 1.606-1.376 6.1 6.1 0 0 0 .972-1.893 7.056 7.056 0 0 0 .33-2.106c0-.56-.075-1.073-.227-1.534a3.432 3.432 0 0 0-.666-1.201 2.971 2.971 0 0 0-1.13-.789c-.457-.187-.987-.282-1.59-.282-.82 0-1.551.18-2.186.535a5.35 5.35 0 0 0-1.614 1.378 5.982 5.982 0 0 0-1 1.894 6.829 6.829 0 0 0-.337 2.105c0 .56.073 1.072.225 1.533.151.462.373.863.668 1.201.295.34.669.602 1.12.79zm1.876-6.891c.289-.221.625-.333 1.006-.333.486 0 .823.164 1.008.49.185.328.278.785.278 1.369 0 .362-.05.746-.146 1.148-.1.404-.248.776-.444 1.114-.198.34-.441.62-.73.841-.29.223-.624.334-1.007.334-.486 0-.82-.164-1.007-.49-.184-.328-.277-.784-.277-1.37 0-.362.048-.744.146-1.148.1-.402.246-.773.445-1.113.196-.338.439-.62.728-.842zM67.284 7.298c.288.216.613.324.972.324.244 0 .472-.045.687-.14a1.82 1.82 0 0 0 .954-.938c.097-.216.148-.447.148-.693 0-.443-.145-.774-.435-.991a1.585 1.585 0 0 0-.973-.324c-.242 0-.471.046-.684.14a1.829 1.829 0 0 0-.955.94 1.66 1.66 0 0 0-.149.69c0 .446.145.777.435.992zm-2.85 10.67h2.573l2.187-9.223h-2.589l-2.17 9.224z"/><path d="M71.047 9.165c.195-.058.413-.127.65-.203a9.496 9.496 0 0 1 1.79-.368c.363-.041.778-.061 1.24-.061 1.355 0 2.29.398 2.805 1.193.515.795.605 1.883.27 3.262l-1.182 4.98h-2.587l1.146-4.876a10.5 10.5 0 0 0 .165-.886c.04-.285.039-.536-.01-.753a.904.904 0 0 0-.32-.527c-.17-.134-.425-.201-.773-.201a5.17 5.17 0 0 0-1.024.106l-1.684 7.137h-2.588l2.102-8.803z"/></g></svg>