<svg width="160" height="28" fill="none" xmlns="http://www.w3.org/2000/svg"><g opacity=".7" fill="#E8EDF9"><path d="M69.451 18.71v-5.832c0-2.201-1.404-3.682-3.663-3.702a3.604 3.604 0 0 0-3.27 1.656 3.418 3.418 0 0 0-3.075-1.656 3.08 3.08 0 0 0-2.722 1.384V9.394h-2.026v9.316h2.045v-5.16c0-1.617.895-2.473 2.279-2.473s2.026.875 2.026 2.454v5.18h2.033v-5.16c0-1.618.933-2.473 2.279-2.473 1.345 0 2.045.874 2.045 2.453v5.18h2.049zm30.262-9.308h-3.308V6.579h-2.046v2.823h-1.89v1.85h1.89v4.243c0 2.161.836 3.448 3.231 3.448a4.761 4.761 0 0 0 2.532-.719l-.584-1.734a3.741 3.741 0 0 1-1.792.525c-1.011 0-1.345-.622-1.345-1.555v-4.208h3.309l.003-1.85zm17.276-.234a2.741 2.741 0 0 0-2.454 1.365V9.402h-2.006v9.308h2.026v-5.218c0-1.555.661-2.395 1.987-2.395.434-.006.864.073 1.267.233l.622-1.909a4.319 4.319 0 0 0-1.442-.253zm-26.118.972a6.96 6.96 0 0 0-3.798-.972c-2.357 0-3.889 1.132-3.889 2.979 0 1.52 1.128 2.453 3.212 2.745l.953.136c1.108.155 1.637.447 1.637.972 0 .72-.74 1.131-2.123 1.131a4.96 4.96 0 0 1-3.11-.972l-.922 1.575a6.715 6.715 0 0 0 4.032 1.21c2.686 0 4.246-1.268 4.246-3.037 0-1.637-1.229-2.493-3.25-2.784l-.953-.136c-.875-.117-1.58-.292-1.58-.914 0-.68.662-1.089 1.774-1.089a5.998 5.998 0 0 1 2.9.797l.871-1.64zm54.25-.972a2.747 2.747 0 0 0-2.454 1.365V9.402h-2.006v9.308h2.026v-5.218c0-1.555.661-2.395 1.986-2.395.434-.006.865.073 1.268.233l.622-1.909a4.328 4.328 0 0 0-1.442-.253zm-26.087 4.888c0 2.823 1.968 4.887 4.965 4.887a4.876 4.876 0 0 0 3.348-1.112l-.972-1.637a4.09 4.09 0 0 1-2.434.836c-1.617 0-2.803-1.19-2.803-2.978 0-1.789 1.19-2.959 2.803-2.978a4.09 4.09 0 0 1 2.434.836l.972-1.637a4.876 4.876 0 0 0-3.348-1.112c-2.997 0-4.965 2.064-4.965 4.887v.008zm18.967 0V9.39h-2.026v1.131a3.523 3.523 0 0 0-2.939-1.364c-2.609 0-4.666 2.045-4.666 4.887 0 2.843 2.045 4.888 4.666 4.888a3.527 3.527 0 0 0 2.939-1.365v1.128h2.026v-4.64zm-7.535 0c0-1.637 1.069-2.978 2.823-2.978 1.675 0 2.803 1.287 2.803 2.978 0 1.691-1.128 2.978-2.803 2.978-1.754 0-2.823-1.345-2.823-2.978zm-24.442-4.888c-2.722 0-4.635 1.987-4.635 4.888 0 2.959 1.987 4.887 4.771 4.887a5.656 5.656 0 0 0 3.818-1.306l-.991-1.5a4.437 4.437 0 0 1-2.722.971c-1.306 0-2.492-.602-2.784-2.278h6.913a9.65 9.65 0 0 0 .039-.778c0-2.9-1.812-4.888-4.421-4.888l.012.004zm-.039 1.812c1.307 0 2.143.817 2.356 2.26h-4.825c.214-1.346 1.031-2.26 2.473-2.26h-.004zm50.8 3.076V5.66h-2.025v4.868a3.54 3.54 0 0 0-2.94-1.365c-2.609 0-4.666 2.046-4.666 4.888s2.045 4.888 4.666 4.888a3.536 3.536 0 0 0 2.94-1.365v1.127h2.025v-4.646zm2.368 3.795a.6.6 0 0 1 .6.59.594.594 0 0 1-.366.544.59.59 0 0 1-.234.048.601.601 0 0 1-.607-.591.594.594 0 0 1 .615-.591h-.008zm0 1.05a.438.438 0 0 0 .323-.133.465.465 0 0 0 0-.653.454.454 0 0 0-.323-.132.46.46 0 1 0 .008.918h-.008zm.035-.74a.25.25 0 0 1 .164.048.159.159 0 0 1 .058.128.144.144 0 0 1-.047.113.214.214 0 0 1-.128.054l.179.206h-.14l-.167-.206h-.055v.206h-.116v-.544l.252-.004zm-.136.102v.148h.136c.024.007.05.007.074 0a.064.064 0 0 0 .021-.024.055.055 0 0 0 .006-.03.055.055 0 0 0-.006-.031.064.064 0 0 0-.021-.024.133.133 0 0 0-.074 0l-.136-.039zm-9.794-4.207c0-1.637 1.069-2.978 2.823-2.978 1.675 0 2.803 1.287 2.803 2.978 0 1.691-1.128 2.978-2.803 2.978-1.754 0-2.823-1.345-2.823-2.978zm-68.395 0V9.39h-2.026v1.131a3.53 3.53 0 0 0-2.928-1.353c-2.609 0-4.666 2.046-4.666 4.888s2.046 4.887 4.666 4.887a3.531 3.531 0 0 0 2.94-1.364v1.127h2.026l-.012-4.65zm-7.535 0c0-1.637 1.069-2.978 2.822-2.978 1.676 0 2.804 1.287 2.804 2.978 0 1.691-1.128 2.978-2.803 2.978-1.754 0-2.823-1.341-2.823-2.978zM17.376 14a13.975 13.975 0 0 1 5.346-11.003 13.998 13.998 0 1 0 0 22.011 13.974 13.974 0 0 1-5.346-11.007zM45.371 14.001a13.997 13.997 0 0 1-22.649 11.004 13.998 13.998 0 0 0 0-22.011A13.998 13.998 0 0 1 45.372 14zM44.026 22.668v-.45h.182v-.09h-.455v.093h.183v.451l.09-.004zm.898 0v-.544h-.12l-.164.389-.163-.39h-.144v.545h.081v-.408l.152.354h.105l.152-.354v.412l.1-.004z"/></g></svg>