<svg width="120" height="35" fill="none" xmlns="http://www.w3.org/2000/svg"><g opacity=".7" fill="#E8EDF9"><path fill-rule="evenodd" clip-rule="evenodd" d="M17.78 34.863c9.497 0 17.196-7.698 17.196-17.195C34.976 8.172 27.277.473 17.78.473 8.284.473.585 8.172.585 17.668c0 9.497 7.699 17.195 17.195 17.195zm5.328-24.902c2.475 1.015 4.17 2.506 3.792 5.06-.304 2.078-1.445 3.084-2.959 3.437 2.08 1.093 3.137 2.77 2.13 5.676-1.15 3.32-3.756 3.844-7.24 3.32a1.032 1.032 0 0 0-1.162.76l-.49 1.986a1 1 0 0 1-1.216.73l-.378-.095a1 1 0 0 1-.726-1.21l.482-1.95a.94.94 0 0 0-.673-1.143.964.964 0 0 0-1.18.686l-.478 1.932a1 1 0 0 1-1.215.73l-.376-.095a1 1 0 0 1-.726-1.209l.484-1.963a1.004 1.004 0 0 0-.72-1.21c-.23-.06-.462-.121-.695-.18l-1.879-.473a1 1 0 0 1-.674-1.364l.517-1.205c.098-.228.194-.39.434-.326.442.117 2.297.241 2.474-.181l.009-.021 1.515-6.136.166.041.08.02a1.915 1.915 0 0 0-.242-.078l1.063-4.306c.012-.05.02-.1.021-.15.003-.202-.03-.42-.134-.622-.212-.411-1.783-.887-2.233-.993-.291-.068-.34-.33-.268-.62l.245-.997a1 1 0 0 1 1.216-.73l2.215.559c.003 0 .005.004.005.007-.001.003 0 .007.004.008.24.06.483.118.729.176a.775.775 0 0 0 .929-.57l.525-2.125a1 1 0 0 1 1.215-.73l.377.095a1 1 0 0 1 .726 1.21l-.462 1.87a.951.951 0 0 0 .709 1.15.953.953 0 0 0 1.146-.699l.456-1.847a1 1 0 0 1 1.214-.73l.378.095a1 1 0 0 1 .727 1.21l-.492 1.994c-.124.5.157 1.01.635 1.206zm-7.67 13.753c2.04.526 5.567 1.252 6.17-1.195.629-2.549-2.83-3.51-4.882-3.986a1.023 1.023 0 0 0-1.219.749l-.793 3.211c-.132.535.191 1.083.724 1.22zm6.885-8.735c-.533 2.158-3.316 1.661-5.033 1.226a1.01 1.01 0 0 1-.723-1.22l.674-2.733c.133-.538.68-.878 1.22-.751 1.725.407 4.416 1.232 3.862 3.478zM51.944 12.707c-.616-.301-1.35-.455-2.198-.455-.405 0-.784.046-1.138.135-.353.09-.706.214-1.057.374l1.64-6.898-4.103.642-4.581 19.439c.512.25 1.056.447 1.629.588.573.143 1.116.25 1.629.323.51.07.965.11 1.362.119.396.008.676.013.836.013 1.234 0 2.383-.237 3.44-.71a8.655 8.655 0 0 0 2.754-1.923 9.062 9.062 0 0 0 1.84-2.862c.451-1.096.675-2.26.675-3.49 0-.801-.097-1.55-.29-2.246a5.199 5.199 0 0 0-.9-1.819 4.431 4.431 0 0 0-1.538-1.23zm-3.89 10.536a3.567 3.567 0 0 1-1.748.455h-.475c-.126 0-.23-.006-.32-.016a2.06 2.06 0 0 1-.25-.04 9.11 9.11 0 0 0-.277-.053l1.746-7.326c.32-.284.676-.472 1.074-.563.397-.086.717-.133.966-.133.758 0 1.28.241 1.562.722.282.482.424 1.15.424 2.005 0 .696-.116 1.365-.345 2.007a6.155 6.155 0 0 1-.939 1.725 4.61 4.61 0 0 1-1.419 1.217zM59.353 10.343c.44.33.936.494 1.483.494.37 0 .717-.068 1.045-.213a2.784 2.784 0 0 0 1.455-1.43c.15-.33.225-.682.225-1.057 0-.676-.221-1.18-.661-1.512a2.416 2.416 0 0 0-1.482-.494c-.371 0-.72.071-1.047.213a2.929 2.929 0 0 0-.86.576 2.823 2.823 0 0 0-.597.856c-.15.331-.224.682-.224 1.056 0 .68.22 1.183.663 1.511zm-4.345 16.271h3.92l3.335-14.064h-3.945l-3.31 14.064z"/><path d="M65.697 9.046l4.105-.643-1.008 4.146h4.396l-.794 3.261h-4.37l-1.163 4.92c-.108.41-.168.793-.185 1.15-.02.357.025.664.131.922.105.26.295.46.57.6.272.144.664.216 1.177.216.423 0 .835-.04 1.233-.12.396-.08.797-.19 1.203-.335l.292 3.05c-.53.196-1.103.365-1.72.507-.62.144-1.352.213-2.199.213-1.217 0-2.161-.183-2.834-.546-.671-.366-1.146-.866-1.43-1.5-.28-.63-.405-1.358-.37-2.178a14.23 14.23 0 0 1 .37-2.594l2.596-11.07zM73.018 20.998c0-1.211.194-2.354.582-3.423a8.438 8.438 0 0 1 1.67-2.81c.721-.8 1.6-1.433 2.635-1.897 1.03-.463 2.183-.696 3.454-.696.795 0 1.506.076 2.13.228a8.574 8.574 0 0 1 1.71.601l-1.352 3.104c-.353-.145-.72-.272-1.098-.388-.38-.118-.842-.174-1.39-.174-1.308 0-2.342.455-3.112 1.363-.766.908-1.152 2.13-1.152 3.664 0 .91.194 1.644.584 2.206.387.563 1.103.842 2.144.842.513 0 1.008-.054 1.482-.16.478-.106.9-.241 1.272-.4l.293 3.181c-.496.194-1.043.37-1.642.523-.601.148-1.316.225-2.146.225-1.095 0-2.021-.161-2.78-.48-.758-.324-1.385-.753-1.878-1.297a4.903 4.903 0 0 1-1.073-1.914 7.922 7.922 0 0 1-.333-2.298z"/><path fill-rule="evenodd" clip-rule="evenodd" d="M87.99 26.558c.69.285 1.502.43 2.437.43 1.289 0 2.424-.273 3.403-.817a7.791 7.791 0 0 0 2.448-2.098 9.302 9.302 0 0 0 1.483-2.887c.334-1.071.502-2.142.502-3.21 0-.855-.114-1.637-.345-2.34a5.238 5.238 0 0 0-1.017-1.831 4.53 4.53 0 0 0-1.72-1.204c-.7-.285-1.507-.429-2.426-.429-1.251 0-2.365.273-3.334.815a8.159 8.159 0 0 0-2.46 2.102 9.118 9.118 0 0 0-1.525 2.887 10.413 10.413 0 0 0-.514 3.21c0 .855.111 1.634.342 2.338a5.212 5.212 0 0 0 1.02 1.831c.45.519 1.019.919 1.706 1.203zm2.86-10.508a2.46 2.46 0 0 1 1.535-.507c.74 0 1.253.25 1.536.748.283.5.424 1.196.424 2.086 0 .553-.075 1.138-.223 1.752a6.397 6.397 0 0 1-.677 1.698 4.376 4.376 0 0 1-1.111 1.283c-.443.34-.954.509-1.537.509-.741 0-1.252-.25-1.536-.748-.28-.5-.423-1.195-.423-2.088 0-.553.074-1.135.224-1.75.151-.615.375-1.18.678-1.699.298-.516.669-.944 1.11-1.284zM102.954 10.343c.439.33.935.494 1.482.494.372 0 .72-.068 1.048-.213.325-.143.611-.333.86-.574.246-.241.446-.526.594-.856.148-.33.227-.682.227-1.057 0-.676-.223-1.18-.664-1.512a2.415 2.415 0 0 0-1.483-.494c-.371 0-.719.071-1.045.213a2.92 2.92 0 0 0-.86.576 2.777 2.777 0 0 0-.596.856c-.15.331-.226.682-.226 1.056 0 .68.222 1.183.663 1.511zM98.61 26.614h3.922l3.335-14.064h-3.948l-3.31 14.064z"/><path d="M108.691 13.19c.298-.088.63-.194.991-.309a14.507 14.507 0 0 1 2.728-.56 16.814 16.814 0 0 1 1.892-.095c2.067 0 3.492.608 4.278 1.82.786 1.212.922 2.87.412 4.973l-1.803 7.594h-3.944l1.747-7.434c.106-.464.19-.913.252-1.351.062-.435.059-.818-.014-1.15a1.38 1.38 0 0 0-.489-.803c-.258-.204-.649-.307-1.179-.307-.511 0-1.031.056-1.561.163l-2.569 10.882h-3.946l3.205-13.423z"/></g></svg>