<svg width="105" height="19" fill="none" xmlns="http://www.w3.org/2000/svg"><g opacity=".7" fill="#E8EDF9"><path d="M45.742 12.27V8.445c0-1.443-.921-2.414-2.403-2.427a2.364 2.364 0 0 0-2.144 1.086 2.24 2.24 0 0 0-2.017-1.086 2.02 2.02 0 0 0-1.785.908V6.16h-1.329v6.11h1.342V8.886c0-1.061.586-1.622 1.494-1.622s1.328.574 1.328 1.609v3.396h1.334V8.887c0-1.061.612-1.622 1.494-1.622.883 0 1.342.574 1.342 1.609v3.396h1.343zm19.846-6.104h-2.17V4.314h-1.341v1.852h-1.24V7.38h1.24v2.782c0 1.417.548 2.261 2.119 2.261a3.12 3.12 0 0 0 1.66-.471l-.383-1.138c-.356.213-.76.331-1.175.345-.663 0-.883-.408-.883-1.02v-2.76h2.17l.003-1.213zm11.33-.153a1.8 1.8 0 0 0-1.61.895v-.742h-1.315v6.104h1.328V8.848c0-1.02.434-1.57 1.303-1.57.285-.005.567.047.832.153l.408-1.253a2.838 2.838 0 0 0-.946-.165zm-17.129.637a4.564 4.564 0 0 0-2.491-.637c-1.545 0-2.55.742-2.55 1.953 0 .997.74 1.61 2.106 1.8l.625.09c.727.102 1.074.293 1.074.637 0 .472-.485.742-1.393.742a3.254 3.254 0 0 1-2.04-.637l-.604 1.032c.774.541 1.7.82 2.644.793 1.762 0 2.785-.83 2.785-1.991 0-1.074-.806-1.635-2.132-1.826l-.625-.09c-.573-.076-1.035-.19-1.035-.598 0-.447.434-.714 1.163-.714.668.01 1.323.19 1.902.522l.571-1.076zm35.578-.637a1.8 1.8 0 0 0-1.61.895v-.742h-1.315v6.104h1.328V8.848c0-1.02.434-1.57 1.303-1.57.285-.005.567.047.832.153l.408-1.253a2.839 2.839 0 0 0-.946-.165zM78.259 9.218c0 1.851 1.29 3.205 3.256 3.205.797.04 1.58-.22 2.196-.729l-.638-1.073c-.459.35-1.019.542-1.596.548-1.06 0-1.839-.78-1.839-1.953s.78-1.941 1.839-1.954a2.682 2.682 0 0 1 1.596.548l.638-1.073a3.198 3.198 0 0 0-2.196-.73c-1.966 0-3.256 1.355-3.256 3.206v.005zm12.439 0v-3.06h-1.329V6.9a2.315 2.315 0 0 0-1.928-.895c-1.71 0-3.06 1.341-3.06 3.205s1.342 3.206 3.06 3.206a2.315 2.315 0 0 0 1.928-.895v.74h1.329V9.217zm-4.942 0c0-1.073.701-1.953 1.851-1.953 1.1 0 1.839.844 1.839 1.953 0 1.11-.74 1.953-1.839 1.953-1.15 0-1.851-.882-1.851-1.953zm-16.03-3.205c-1.784 0-3.039 1.303-3.039 3.205 0 1.94 1.303 3.205 3.129 3.205a3.71 3.71 0 0 0 2.504-.856l-.65-.985a2.91 2.91 0 0 1-1.785.638c-.857 0-1.635-.395-1.826-1.494h4.534c.013-.166.025-.332.025-.51 0-1.903-1.188-3.206-2.899-3.206l.008.003zM69.702 7.2c.857 0 1.405.536 1.545 1.482h-3.164c.14-.883.676-1.482 1.622-1.482H69.7zm33.316 2.017V3.713h-1.329v3.192a2.314 2.314 0 0 0-1.928-.895c-1.71 0-3.06 1.341-3.06 3.206 0 1.864 1.342 3.205 3.06 3.205a2.314 2.314 0 0 0 1.928-.895v.74h1.329V9.217zm1.553 2.489a.394.394 0 0 1 .393.387.389.389 0 0 1-.393.388.398.398 0 0 1-.368-.237.388.388 0 0 1 .373-.538h-.005zm0 .688a.286.286 0 0 0 .211-.086.302.302 0 0 0-.094-.492.294.294 0 0 0-.117-.024.299.299 0 0 0-.299.243.313.313 0 0 0 .007.147.31.31 0 0 0 .075.126.306.306 0 0 0 .222.086h-.005zm.023-.484a.164.164 0 0 1 .107.03c.012.01.022.023.029.038.007.015.01.03.009.047a.11.11 0 0 1-.007.04.11.11 0 0 1-.024.034.142.142 0 0 1-.084.035l.117.135h-.091l-.11-.135h-.036v.135h-.076v-.357l.166-.002zm-.09.066v.097h.09a.085.085 0 0 0 .048 0 .048.048 0 0 0 .014-.015.046.046 0 0 0 .004-.02.046.046 0 0 0-.004-.02.049.049 0 0 0-.014-.016.085.085 0 0 0-.048 0l-.09-.026zM98.08 9.218c0-1.073.701-1.953 1.851-1.953 1.099 0 1.839.844 1.839 1.953 0 1.11-.74 1.953-1.839 1.953-1.15 0-1.851-.882-1.851-1.953zm-44.854 0v-3.06h-1.329V6.9a2.315 2.315 0 0 0-1.92-.887c-1.711 0-3.06 1.341-3.06 3.205s1.341 3.205 3.06 3.205a2.314 2.314 0 0 0 1.928-.895v.74h1.328l-.007-3.05zm-4.942 0c0-1.073.701-1.953 1.851-1.953 1.1 0 1.839.844 1.839 1.953 0 1.11-.74 1.953-1.839 1.953-1.15 0-1.851-.88-1.851-1.953zM11.59 9.182a9.165 9.165 0 0 1 3.506-7.216 9.18 9.18 0 1 0 0 14.435 9.164 9.164 0 0 1-3.506-7.219zM29.95 9.182A9.18 9.18 0 0 1 15.096 16.4a9.178 9.178 0 0 0 0-14.436 9.18 9.18 0 0 1 14.854 7.22zM29.067 14.866v-.296h.12v-.058h-.298v.06h.12v.297l.058-.003zm.59 0v-.357h-.08l-.107.255-.107-.255h-.094v.357h.053v-.268l.1.232h.068l.1-.232v.27l.066-.002z"/></g></svg>