<svg width="61" height="27" fill="none" xmlns="http://www.w3.org/2000/svg"><path opacity=".7" fill-rule="evenodd" clip-rule="evenodd" d="M0 12.879h9.425V9.53H3.917V1.16H0v11.719zm15.724.25c3.616 0 6.412-2.711 6.412-6.11v-.033c0-3.399-2.762-6.078-6.379-6.078-3.616 0-6.412 2.713-6.412 6.111v.034c0 3.398 2.763 6.077 6.379 6.077zm.033-3.465c-1.506 0-2.46-1.255-2.46-2.645v-.033c0-1.373.937-2.612 2.427-2.612 1.507 0 2.46 1.256 2.46 2.645v.034c0 1.372-.937 2.611-2.427 2.611zM29.01 13.13c2.913 0 4.553-1.423 5.541-3.164L31.319 8.14c-.486.87-1.105 1.473-2.21 1.473-1.289 0-2.193-1.071-2.193-2.595v-.033c0-1.407.87-2.562 2.193-2.562 1.071 0 1.69.586 2.126 1.423l3.231-1.892C33.48 2.164 31.737.908 29.16.908c-3.499 0-6.227 2.612-6.227 6.111v.034c0 3.632 2.829 6.077 6.077 6.077zm5.239-.251h4.185l.603-1.574h4.101l.62 1.574h4.252L43.07 1.076h-3.884l-4.938 11.803zm5.775-4.353l1.072-2.846 1.071 2.846h-2.143zm8.468 4.353h9.426V9.53h-5.508V1.16H48.49v11.719zM0 26.709h6.496c2.963 0 4.503-1.373 4.503-3.248v-.034c0-1.607-.97-2.41-2.478-2.846 1.256-.435 2.093-1.289 2.093-2.678v-.034c0-.804-.301-1.406-.72-1.825-.686-.686-1.707-1.055-3.331-1.055H0v11.72zm6.764-7.92c0 .52-.402.804-1.24.804H3.818v-1.64h1.69c.838 0 1.257.284 1.257.803v.034zm.3 4.069v.033c0 .503-.434.854-1.288.854H3.817v-1.74h1.976c.853 0 1.272.35 1.272.853zM11 26.708h4.186l.602-1.573h4.102l.62 1.573h4.252l-4.939-11.802h-3.884l-4.939 11.803zm5.776-4.352l1.072-2.846 1.071 2.846h-2.143zm8.468 4.352h3.884v-5.407l4.353 5.408h3.482v-11.72h-3.884v5.174l-4.169-5.174h-3.666v11.72zm13.063 0h3.917v-2.494l1.005-1.222 2.293 3.716h4.671l-4.168-6.63 4.085-5.088h-4.554l-3.332 4.386v-4.387h-3.917v11.72zm17.105.218c3.147 0 5.173-1.507 5.173-3.968v-.033c0-2.36-2.01-3.231-5.006-3.784-1.239-.234-1.557-.435-1.557-.753v-.034c0-.284.268-.485.854-.485 1.088 0 2.41.352 3.516 1.155l1.908-2.645c-1.356-1.072-3.03-1.607-5.29-1.607-3.231 0-4.972 1.724-4.972 3.95v.034c0 2.478 2.31 3.231 4.938 3.767 1.256.251 1.624.435 1.624.77v.034c0 .318-.301.502-1.004.502a6.716 6.716 0 0 1-4.102-1.373L49.4 24.951c1.49 1.305 3.633 1.975 6.01 1.975z" fill="#E8EDF9"/></svg>