<svg width="68" height="22" fill="none" xmlns="http://www.w3.org/2000/svg"><path opacity=".7" fill-rule="evenodd" clip-rule="evenodd" d="M1.35 3.423c-.387 0-.702.236-.703.705L.584 20.431c-.002.421.274.631.65.631h3.084c.355 0 .649-.174.649-.526v-4.677h2.936c1.956-.127 3.266-1.041 3.81-2.88.163-.552.197-1.03.197-1.596V7.562c-.144-2.824-1.612-3.898-3.713-4.139H1.35zm5.47 4.335H5v3.71H6.82c.41 0 .746-.34.746-.752V8.509a.751.751 0 0 0-.746-.751zm8.465-4.313h4.785c2.802.163 4.318 1.64 4.279 4.703v11.343c0 .88-.885 1.545-1.641 1.545h-6.274c-1.903 0-3.16-1.49-3.473-2.95-.212-.991-.163-2.13-.116-3.218.02-.451.039-.894.039-1.314 0-2.211 1.46-4.403 3.89-4.403h2.554c.742-.04.71-1.67 0-1.614h-3.991c-.405 0-.688-.215-.726-.629v-2.97c0-.38.31-.493.674-.493zm2.639 9.806h1.46c.343 0 .627.284.627.63v2.555a.632.632 0 0 1-.628.631h-1.46a.629.629 0 0 1-.624-.631v-2.554c0-.347.28-.63.625-.63zm7.892-1.843V4.243c0-.464.095-.834.465-.834h3.266c.458 0 .625.306.625.723v6.289c0 .354.203.556.572.556h1.607c.25 0 .404-.165.404-.445V4.02c0-.25.183-.592.497-.592h3.395c.234 0 .479.15.479.54V15.85c0 3.648-1.923 5.276-5.3 5.276h-4.05c-.335 0-.591-.24-.591-.557v-3.154c0-.42.172-.668.646-.668h4.371c.785 0 .836-1.41 0-1.41h-2.02c-2.184 0-4.192-1.682-4.366-3.929zm13.017-4.22V4.088c0-.333.272-.605.602-.605h.742c1.48-.31 2.088-1.054 2.828-1.961.217-.266.445-.545.71-.832.718-.782 1.35-.987 1.815-.158v2.951h1.753c.331 0 .6.272.6.605v3.098c0 .332-.27.605-.6.605h-1.755v12.695a.605.605 0 0 1-.6.605H41.84c-.33 0-.6-.272-.6-.605V7.792h-1.806a.607.607 0 0 1-.602-.605zm21.1 13.848a.755.755 0 0 0 .752-.75c0-1.946-.007-3.882-.014-5.814-.007-1.923-.015-3.842-.015-5.76-.003-1.24 2.428-1.617 2.593 0v11.573c0 .413.339.751.753.751h2.89a.755.755 0 0 0 .753-.75c0-2.07.009-4.119.018-6.164.01-2.037.018-4.07.018-6.113.232-3.704-4.79-6.712-7.721-3.335-1.558-1.686-4.486-1.943-6.175-.32v-.222a.755.755 0 0 0-.753-.754h-2.889a.756.756 0 0 0-.755.754v16.154c0 .412.34.75.755.75h2.889a.754.754 0 0 0 .753-.75V8.633c0-1.456 2.527-1.26 2.505 0v11.651c0 .413.337.751.753.751h2.89z" fill="#E8EDF9"/></svg>