<svg width="70" height="18" fill="none" xmlns="http://www.w3.org/2000/svg"><path opacity=".7" fill-rule="evenodd" clip-rule="evenodd" d="M3.174 7.902H1.03V.133h2.143v7.77zm3.517 0h-2.11V.133h1.99L9.734 4.24V.133h2.11v7.77H9.975L6.691 3.64v4.262zM19.34 5.505c0 1.587-1.242 2.53-3.11 2.53-1.362 0-2.658-.432-3.603-1.287l1.187-1.432c.758.61 1.604.933 2.494.933.57 0 .879-.2.879-.555 0-.322-.253-.5-1.297-.744-1.637-.377-2.9-.844-2.9-2.464C12.989 1.043 14.12 0 15.966 0c1.307 0 2.33.355 3.164 1.032l-1.066 1.52c-.703-.499-1.472-.765-2.153-.765-.516 0-.77.222-.77.522 0 .355.265.51 1.33.754 1.77.389 2.868.966 2.868 2.442zm4.832 2.397H22.04V2.02h-2.307V.133h6.745V2.02h-2.307v5.882zm3.882 0h-2.241L29.086.078h2.054l3.275 7.824h-2.286l-.56-1.387h-2.967l-.549 1.387zm2.044-5.272l-.868 2.209h1.725l-.857-2.209zm7.173 5.272h-2.11V.133h1.99l3.164 4.107V.133h2.11v7.77h-1.868L37.27 3.64v4.262zm10.528 0h-2.132V2.02H43.36V.133h6.746V2.02h-2.307v5.882zm-42.8 9.894H2.866v-5.882H.559v-1.887h6.746v1.887H4.998v5.882zm5.374 0H8.24v-7.769h3.637c1.176 0 1.989.311 2.505.833.45.455.681 1.054.681 1.842 0 1.188-.626 1.976-1.582 2.386l1.835 2.708h-2.461l-1.55-2.353h-.933v2.353zm0-5.904v1.864h1.406c.725 0 1.143-.355 1.143-.943 0-.61-.44-.921-1.154-.921h-1.395zm7.263 5.904h-2.242l3.274-7.824h2.055l3.274 7.824h-2.285l-.56-1.387h-2.967l-.55 1.387zm2.043-5.272l-.868 2.21h1.725l-.857-2.21zm7.174 5.272h-2.11v-7.769h1.99l3.163 4.107v-4.107h2.11v7.77h-1.868l-3.285-4.263v4.262zM39.5 15.4c0 1.587-1.242 2.53-3.11 2.53-1.362 0-2.658-.432-3.603-1.287l1.186-1.432c.758.61 1.604.933 2.494.933.572 0 .88-.2.88-.555 0-.322-.253-.5-1.297-.744-1.637-.377-2.9-.843-2.9-2.464 0-1.443 1.13-2.486 2.977-2.486 1.307 0 2.329.355 3.164 1.032l-1.066 1.52c-.703-.499-1.472-.765-2.153-.765-.517 0-.77.222-.77.522 0 .355.264.51 1.33.754 1.77.389 2.868.966 2.868 2.442zm3.168 2.397h-2.132v-7.769h6.153v1.887h-4.021v1.32h3.636v1.788h-3.636v2.774zm11.233 0h-6.24v-7.769h6.185v1.832H49.77v1.176h3.692v1.698H49.77v1.232h4.131v1.831zm3.22 0h-2.132v-7.769h3.637c1.175 0 1.988.311 2.505.833.45.455.68 1.054.68 1.842 0 1.188-.625 1.976-1.581 2.386l1.835 2.708h-2.462l-1.549-2.353h-.934v2.353zm0-5.904v1.864h1.406c.725 0 1.142-.355 1.142-.943 0-.61-.439-.921-1.153-.921H57.12zm11.896 3.507c0 1.587-1.242 2.53-3.11 2.53-1.362 0-2.658-.432-3.603-1.287l1.186-1.432c.758.61 1.604.933 2.494.933.572 0 .88-.2.88-.555 0-.322-.254-.5-1.297-.744-1.637-.377-2.9-.843-2.9-2.464 0-1.443 1.13-2.486 2.977-2.486 1.307 0 2.329.355 3.164 1.032l-1.066 1.52c-.703-.499-1.472-.765-2.153-.765-.517 0-.77.222-.77.522 0 .355.264.51 1.33.754 1.769.389 2.868.966 2.868 2.442z" fill="#E8EDF9"/></svg>