<svg width="69" height="13" fill="none" xmlns="http://www.w3.org/2000/svg"><path opacity=".7" fill-rule="evenodd" clip-rule="evenodd" d="M67.266 1.716c-.873-.604-2.195-.908-3.927-.908h-4.536l-1.687 9.246h-5.943l.383-2.098h3.58l.423-2.356-3.577.005.383-2.088h3.687l.49-2.709h-7.488l-1.6 8.771h-2.749L46.317.808h-3.914l-1.601 8.77h-2.677l1.613-8.77h-3.912l-1.689 9.246h-5.985l.378-2.098h3.594l.425-2.343-3.59-.003.38-2.093h3.729l.487-2.71H10.22L8.892 8.135 6.247.807H2.186L0 12.765h3.879l1.323-7.529 2.566 7.53h13.9l1.69-9.25h2.175l-1.69 9.25h36.575l1.06-5.84 1.716 5.84h3.88l-1.777-4.771.407-.089c.895-.194 1.594-.61 2.08-1.235.486-.63.734-1.439.734-2.41 0-1.132-.41-1.964-1.253-2.545h.001zm-48.974 8.338h-5.937l.384-2.098h3.724l.422-2.363h-3.688l.355-2.076h5.928l-1.189 6.537h.001zm44.046-3.618c.774 0 1.34-.134 1.73-.41h-.001c.293-.207.643-.612.643-1.365 0-.622-.3-.952-.552-1.118-.323-.212-.792-.316-1.434-.316h-.564l-.589 3.21h.767z" fill="#E8EDF9"/></svg>