<svg width="106" height="28" fill="none" xmlns="http://www.w3.org/2000/svg"><path opacity=".7" fill-rule="evenodd" clip-rule="evenodd" d="M4.676 12.05H1.41V.202h3.267V12.05zm5.364 0H6.823V.202h3.032l4.825 6.262V.203h3.217V12.05h-2.848l-5.01-6.498v6.498zm19.285-3.656c0 2.42-1.893 3.858-4.74 3.858-2.078 0-4.055-.66-5.496-1.963l1.81-2.183c1.155.931 2.445 1.422 3.802 1.422.872 0 1.34-.305 1.34-.846 0-.491-.385-.762-1.976-1.134-2.496-.576-4.423-1.286-4.423-3.757 0-2.2 1.726-3.791 4.54-3.791 1.994 0 3.552.542 4.825 1.574l-1.625 2.318c-1.072-.761-2.245-1.167-3.284-1.167-.787 0-1.172.338-1.172.795 0 .542.402.779 2.027 1.15 2.697.593 4.372 1.473 4.372 3.724zm7.369 3.655h-3.25V3.08h-3.519V.203h10.287V3.08h-3.518v8.97zm5.919 0h-3.418L44.188.12h3.132l4.993 11.93h-3.485l-.854-2.115H43.45l-.837 2.115zm3.116-8.038l-1.324 3.368h2.63L45.73 4.01zm10.938 8.038h-3.216V.203h3.032l4.825 6.262V.203h3.217V12.05h-2.848l-5.01-6.498v6.498zm16.053 0h-3.25V3.08H65.95V.203h10.287V3.08H72.72v8.97zM7.457 27.136h-3.25v-8.97H.69V15.29h10.287v2.877H7.457v8.97zm8.195 0h-3.25V15.29h5.545c1.793 0 3.033.474 3.82 1.269.687.694 1.039 1.608 1.039 2.81 0 1.81-.955 3.012-2.413 3.638l2.798 4.13H19.44l-2.363-3.589h-1.424v3.588zm0-9.003v2.843h2.145c1.105 0 1.742-.541 1.742-1.438 0-.931-.67-1.405-1.76-1.405h-2.127zm11.075 9.003h-3.418l4.992-11.93h3.133l4.993 11.93h-3.485l-.854-2.115h-4.524l-.837 2.115zm3.116-8.038l-1.324 3.367h2.63l-1.306-3.367zm10.938 8.038h-3.216V15.29h3.032l4.825 6.261V15.29h3.217v11.846H45.79l-5.009-6.498v6.498zm19.286-3.655c0 2.42-1.893 3.858-4.741 3.858-2.078 0-4.054-.66-5.495-1.963l1.809-2.183c1.156.93 2.446 1.421 3.803 1.421.871 0 1.34-.304 1.34-.846 0-.49-.385-.761-1.977-1.134-2.496-.575-4.422-1.286-4.422-3.756 0-2.2 1.725-3.791 4.54-3.791 1.993 0 3.551.541 4.825 1.573l-1.626 2.319c-1.072-.761-2.244-1.168-3.283-1.168-.788 0-1.173.339-1.173.796 0 .541.402.778 2.027 1.15 2.698.593 4.373 1.473 4.373 3.724zm4.83 3.655h-3.25V15.29h9.382v2.877h-6.131v2.014h5.545v2.724h-5.545v4.231zm17.13 0H72.51V15.29h9.432v2.792h-6.215v1.794h5.629v2.59h-5.63v1.878h6.3v2.792zm4.908 0h-3.25V15.29h5.546c1.792 0 3.032.474 3.82 1.269.686.694 1.038 1.608 1.038 2.81 0 1.81-.955 3.012-2.412 3.638l2.797 4.13h-3.752l-2.363-3.589h-1.424v3.588zm0-9.003v2.843h2.145c1.106 0 1.742-.541 1.742-1.438 0-.931-.67-1.405-1.759-1.405h-2.128zm18.14 5.348c0 2.42-1.893 3.858-4.741 3.858-2.078 0-4.055-.66-5.495-1.963l1.809-2.183c1.156.93 2.446 1.421 3.803 1.421.871 0 1.34-.304 1.34-.846 0-.49-.385-.761-1.977-1.134-2.496-.575-4.422-1.286-4.422-3.756 0-2.2 1.725-3.791 4.54-3.791 1.993 0 3.551.541 4.825 1.573l-1.625 2.319c-1.073-.761-2.245-1.168-3.284-1.168-.788 0-1.173.339-1.173.796 0 .541.402.778 2.027 1.15 2.698.593 4.373 1.473 4.373 3.724z" fill="#E8EDF9"/></svg>