<svg width="46" height="13" fill="none" xmlns="http://www.w3.org/2000/svg"><g opacity=".7" fill="#E8EDF9"><path d="M34.669 12.897h-2.37L35.595.993h2.37l-3.296 11.904zM33.438 1.37c-.164-.227-.417-.341-.762-.341H19.644L19 3.36h2.371v-.001h9.484l-.69 2.491H20.68v-.005h-2.37l-1.967 7.102h2.372l1.32-4.767h10.661c.333 0 .646-.113.941-.34a1.58 1.58 0 0 0 .58-.843l1.32-4.768c.097-.346.064-.633-.099-.86zM14.962 12.154c-.13.47-.56.797-1.049.797H1.685c-.333 0-.58-.114-.743-.34-.163-.228-.198-.509-.105-.843l2.984-10.74h2.372L3.528 10.62h9.489l2.665-9.592h2.371l-3.09 11.126zM42.058 1.015l3 5.968-6.307 5.965 3.307-11.933z"/><path d="M39.955 1.015l2.998 5.968-6.31 5.965 3.312-11.933z"/></g></svg>