<svg width="80" height="23" fill="none" xmlns="http://www.w3.org/2000/svg"><g opacity=".7" fill="#E8EDF9"><path d="M60.706 22.064h-4.227L62.358.832h4.227l-5.88 21.232zM58.512 1.504c-.294-.404-.745-.608-1.36-.608H33.909l-1.15 4.158h4.229v-.002h16.916l-1.23 4.443H35.754l.002-.009H31.53L28.02 22.154h4.23l2.355-8.503h19.016c.593 0 1.152-.202 1.678-.607.525-.406.87-.906 1.035-1.503l2.355-8.504c.172-.617.112-1.129-.177-1.533zM25.557 20.738a1.942 1.942 0 0 1-1.871 1.423H1.876c-.594 0-1.036-.203-1.326-.608-.29-.405-.353-.906-.187-1.503L5.685.894h4.23l-4.752 17.11h16.924L26.84.894h4.23L25.557 20.74zM73.885.872l5.352 10.643-11.25 10.64L73.885.873z"/><path d="M70.134.872l5.348 10.643-11.255 10.64L70.134.873z"/></g></svg>