<svg width="103" height="18" fill="none" xmlns="http://www.w3.org/2000/svg"><path opacity=".7" fill-rule="evenodd" clip-rule="evenodd" d="M100.404 1.357C99.101.455 97.129 0 94.543 0h-6.771l-2.518 13.802h-8.87l.57-3.131h5.344l.633-3.517-5.34.007.571-3.117h5.504l.732-4.043H73.221l-2.39 13.092H66.73L69.135 0h-5.843l-2.39 13.092h-3.995L59.315 0h-5.84l-2.52 13.802H42.02l.565-3.131h5.365l.634-3.497-5.36-.006.569-3.123h5.566L50.086 0h-34.83l-1.983 10.937L9.325 0H3.263L0 17.849h5.79L7.763 6.61l3.831 11.239h20.749l2.523-13.806h3.245L35.589 17.85h54.594l1.582-8.715 2.56 8.715h5.793l-2.653-7.121.607-.132c1.337-.29 2.38-.911 3.106-1.843.725-.94 1.095-2.148 1.095-3.599 0-1.688-.612-2.93-1.87-3.798h.001zm-73.1 12.445h-8.862l.572-3.131h5.559l.63-3.527h-5.505l.53-3.1h8.85l-1.776 9.758h.002zm65.745-5.4c1.155 0 2-.2 2.582-.611h-.002c.438-.311.96-.915.96-2.039 0-.929-.447-1.42-.824-1.669-.482-.316-1.182-.472-2.14-.472h-.843l-.878 4.791h1.145z" fill="#E8EDF9"/></svg>