<svg width="58" height="19" fill="none" xmlns="http://www.w3.org/2000/svg"><path opacity=".7" fill-rule="evenodd" clip-rule="evenodd" d="M1.325 3.724c-.329 0-.596.2-.597.599L.674 18.165c0 .358.234.536.552.536h2.619c.302 0 .551-.148.551-.447v-3.97h2.493c1.66-.109 2.773-.885 3.235-2.446.138-.469.167-.874.167-1.355V7.238c-.122-2.397-1.369-3.31-3.152-3.514H1.325zm4.645 3.68H4.423v3.15H5.97a.639.639 0 0 0 .634-.638V8.042a.638.638 0 0 0-.634-.637zm7.186-3.66h4.063c2.38.138 3.666 1.392 3.633 3.992v9.631c0 .747-.75 1.312-1.393 1.312h-5.327c-1.615 0-2.682-1.265-2.949-2.505-.18-.841-.138-1.808-.098-2.732.017-.383.033-.76.033-1.116 0-1.877 1.24-3.739 3.303-3.739h2.168c.63-.034.603-1.418 0-1.37H13.2c-.343 0-.584-.182-.616-.534V4.161c0-.322.264-.418.572-.418zm2.241 8.325h1.24c.291 0 .532.24.532.535v2.169c0 .295-.24.536-.533.536h-1.239a.534.534 0 0 1-.53-.536v-2.169c0-.294.237-.535.53-.535zm6.701-1.565V4.421c0-.395.08-.709.395-.709h2.772c.39 0 .531.26.531.614v5.34c0 .3.172.472.486.472h1.364c.212 0 .344-.14.344-.378V4.23c0-.212.155-.502.421-.502h2.883c.2 0 .407.127.407.457v10.09c0 3.098-1.633 4.48-4.5 4.48h-3.439c-.285 0-.502-.203-.502-.473v-2.678c0-.357.147-.567.55-.567h3.71c.667 0 .71-1.197 0-1.197h-1.715c-1.855 0-3.56-1.428-3.707-3.336zM33.15 6.92V4.29c0-.283.23-.514.511-.514h.63c1.257-.263 1.773-.894 2.402-1.665.184-.226.377-.463.602-.706.61-.665 1.146-.839 1.541-.135v2.506h1.489c.28 0 .51.231.51.514v2.63c0 .282-.23.514-.51.514h-1.49v10.778c0 .283-.23.514-.51.514h-2.621a.513.513 0 0 1-.51-.514V7.434h-1.533a.515.515 0 0 1-.511-.514zM51.065 18.68a.64.64 0 0 0 .64-.637c0-1.652-.007-3.296-.013-4.937-.006-1.633-.013-3.262-.013-4.89-.003-1.053 2.061-1.373 2.202 0v9.826c0 .35.287.638.64.638h2.453a.64.64 0 0 0 .639-.637c0-1.757.008-3.497.016-5.234.007-1.73.015-3.456.015-5.19.197-3.145-4.067-5.699-6.556-2.832-1.323-1.431-3.809-1.65-5.242-.272v-.188a.641.641 0 0 0-.64-.64h-2.453a.642.642 0 0 0-.64.64v13.715c0 .35.288.638.64.638h2.453a.64.64 0 0 0 .64-.637V8.148c0-1.236 2.145-1.07 2.126 0v9.893c0 .35.286.637.64.637h2.453z" fill="#E8EDF9"/></svg>