<svg width="69" height="25" fill="none" xmlns="http://www.w3.org/2000/svg"><path opacity=".7" fill-rule="evenodd" clip-rule="evenodd" d="M8.888 10.008h-.001c-.72-.05-2.384-.166-2.384-1.76 0-1.926 2.397-1.926 3.296-1.926 1.581 0 3.629.497 5.09.963 0 0 .817.306 1.51.62l.065.018V2.649l-.088-.027c-1.726-.643-3.733-1.26-7.452-1.26C2.51 1.361.237 5.337.237 8.745c0 1.964.79 6.587 8.137 7.12l.007.001c.627.04 2.268.148 2.268 1.79 0 1.362-1.353 2.164-3.629 2.164-2.493 0-4.913-.676-6.382-1.318v5.43c2.2.614 4.68.92 7.586.92 6.27 0 9.08-3.763 9.08-7.492 0-4.229-3.144-6.977-8.416-7.353zm18.959-2.424l-.032.087c-.21.583-1.139 3.163-3.21 5.831V1.362l-5.87 1.234v22.008h5.87v-6.803c1.701 2.715 2.54 6.803 2.54 6.803h7.033c-.695-3.079-3.738-8.755-3.738-8.755 2.73-3.686 3.93-7.614 4.12-8.265h-6.713zm21.485-1.612c1.55 0 2.806-1.337 2.806-2.985 0-1.65-1.256-2.987-2.806-2.987-1.547 0-2.802 1.338-2.802 2.987 0 1.648 1.255 2.985 2.802 2.985zm-13.977 9.067c0-4.993 2.67-7.504 7.928-7.684 0 0 .948-.04 1.51.087v4.969c-3.333.122-3.7 1.404-3.7 4.393v7.8h-5.739v-9.565zm16.825 9.565h-5.691v-17h5.69v17zm10.713-22.16v22.16h5.692V1.361l-5.692 1.083zm-2.617-1.083l-5.685 1.083v22.16h5.685V1.361z" fill="#E8EDF9"/></svg>