<svg width="46" height="18" fill="none" xmlns="http://www.w3.org/2000/svg"><path opacity=".7" fill-rule="evenodd" clip-rule="evenodd" d="M6.064 7.378h-.001C5.59 7.345 4.5 7.269 4.5 6.223 4.5 4.96 6.072 4.96 6.662 4.96c1.036 0 2.379.326 3.338.632 0 0 .535.2.99.406l.042.012V2.552l-.058-.018c-1.131-.422-2.447-.827-4.887-.827C1.881 1.707.391 4.315.391 6.55c0 1.288.518 4.32 5.336 4.67h.004c.412.027 1.487.097 1.487 1.174 0 .893-.887 1.42-2.379 1.42-1.635 0-3.222-.444-4.185-.865v3.561c1.442.403 3.068.604 4.974.604 4.113 0 5.955-2.468 5.955-4.914 0-2.773-2.061-4.576-5.52-4.822zm12.433-1.59l-.02.057a14.132 14.132 0 0 1-2.105 3.824V1.707l-3.85.81V16.95h3.85V12.49c1.115 1.78 1.666 4.461 1.666 4.461h4.612c-.457-2.019-2.452-5.742-2.452-5.742 1.79-2.417 2.578-4.993 2.703-5.42h-4.404zm14.09-1.057c1.017 0 1.84-.877 1.84-1.958S33.605.814 32.588.814c-1.014 0-1.837.878-1.837 1.96 0 1.08.823 1.957 1.838 1.957zm-9.166 5.946c0-3.274 1.751-4.921 5.2-5.04 0 0 .622-.025.99.058v3.258c-2.186.08-2.427.921-2.427 2.882v5.115h-3.763v-6.273zm11.034 6.273h-3.732V5.801h3.732v11.15zm7.026-14.532V16.95h3.733V1.707l-3.733.71zm-1.716-.711l-3.729.71V16.95h3.73V1.707z" fill="#E8EDF9"/></svg>