<svg width="40" height="18" fill="none" xmlns="http://www.w3.org/2000/svg"><path opacity=".7" fill-rule="evenodd" clip-rule="evenodd" d="M0 8.446h6.181V6.25H2.57V.76H0v7.686zm10.312.165c2.372 0 4.205-1.779 4.205-4.008v-.022c0-2.229-1.811-3.985-4.183-3.985S6.129 2.374 6.129 4.603v.022c0 2.229 1.811 3.986 4.183 3.986zm.022-2.273c-.988 0-1.614-.824-1.614-1.735v-.022c0-.9.615-1.713 1.592-1.713.988 0 1.614.824 1.614 1.735v.022c0 .9-.615 1.713-1.592 1.713zm8.69 2.273c1.91 0 2.987-.934 3.634-2.075L20.54 5.339c-.318.57-.724.966-1.449.966-.845 0-1.438-.703-1.438-1.702v-.022c0-.922.57-1.68 1.438-1.68.703 0 1.11.385 1.395.934l2.119-1.241c-.648-1.175-1.79-1.998-3.48-1.998-2.296 0-4.085 1.713-4.085 4.007v.022c0 2.383 1.855 3.986 3.985 3.986zm3.436-.165h2.745l.395-1.032h2.69l.406 1.032h2.79l-3.24-7.74H25.7l-3.239 7.74zm3.788-2.855l.703-1.866.702 1.866h-1.405zm5.553 2.855h6.182V6.25H34.37V.76H31.8v7.686zM0 17.516h4.26c1.943 0 2.953-.9 2.953-2.13v-.022c0-1.054-.636-1.581-1.625-1.867.824-.285 1.373-.845 1.373-1.756v-.022c0-.527-.198-.922-.472-1.197-.45-.45-1.12-.692-2.185-.692H0v7.686zm4.436-5.193c0 .34-.264.527-.813.527h-1.12v-1.076h1.11c.548 0 .823.186.823.527v.022zm.197 2.668v.021c0 .33-.285.56-.845.56H2.503v-1.141H3.8c.56 0 .834.23.834.56zm2.58 2.525h2.745l.396-1.032h2.69l.406 1.032h2.788L13 9.776h-2.548l-3.239 7.74zm3.788-2.855l.703-1.866.703 1.866H11zm5.554 2.855h2.547V13.97l2.854 3.546h2.284V9.83h-2.547v3.393L18.959 9.83h-2.404v7.686zm8.567 0h2.569V15.88l.659-.802 1.504 2.438h3.063l-2.734-4.348 2.679-3.338h-2.986l-2.185 2.877V9.83h-2.57v7.686zm11.217.143c2.064 0 3.393-.989 3.393-2.602v-.023c0-1.548-1.318-2.119-3.283-2.48-.813-.155-1.021-.286-1.021-.495v-.022c0-.187.176-.318.56-.318.714 0 1.58.23 2.306.757l1.251-1.734c-.89-.703-1.987-1.054-3.47-1.054-2.118 0-3.26 1.13-3.26 2.59v.023c0 1.625 1.515 2.119 3.239 2.47.823.165 1.065.285 1.065.505v.022c0 .209-.198.33-.66.33-.9 0-1.855-.264-2.689-.9l-1.372 1.635c.977.856 2.382 1.296 3.941 1.296z" fill="#E8EDF9"/></svg>