<svg width="30" height="34" fill="none" xmlns="http://www.w3.org/2000/svg"><path d="M1.05 1.425a2.5 2.5 0 0 0-.575 1.75v27.65a2.5 2.5 0 0 0 .575 1.75l.088.087 15.487-15.475v-.362L1.138 1.337l-.088.088z" fill="url(#paint0_linear)"/><path d="M21.75 22.35l-5.125-5.163v-.362l5.125-5.175.112.062L28 15.2c1.75.987 1.75 2.612 0 3.612l-6.113 3.475-.137.063z" fill="url(#paint1_linear)"/><path d="M21.9 22.275L16.625 17 1.05 32.575a2.038 2.038 0 0 0 2.6.075l18.262-10.375" fill="url(#paint2_linear)"/><path d="M21.9 11.725L3.637 1.35a2.038 2.038 0 0 0-2.6.075L16.625 17l5.275-5.275z" fill="url(#paint3_linear)"/><path opacity=".2" d="M21.75 22.163L3.637 32.474a2.087 2.087 0 0 1-2.5 0l-.087.087.087.088c.74.558 1.76.558 2.5 0L21.9 22.275l-.15-.112z" fill="#fff"/><path opacity=".12" fill-rule="evenodd" clip-rule="evenodd" d="M21.75 22.162L28 18.625A2.325 2.325 0 0 0 29.25 17 2.188 2.188 0 0 1 28 18.8l-6.137 3.475-.113-.113zM.472 30.893A2.5 2.5 0 0 0 1.05 32.4l.088.1-.088.087a2.5 2.5 0 0 1-.578-1.694zm0 0l.003-.056v-.187a2.5 2.5 0 0 0-.003.243z" fill="#fff"/><path opacity=".25" d="M3.637 1.525L28 15.375A2.325 2.325 0 0 1 29.25 17 2.188 2.188 0 0 0 28 15.2L3.637 1.35C1.887.362.462 1.187.462 3.187v.188C.5 1.362 1.9.537 3.637 1.525z" fill="#fff"/><defs><linearGradient id="paint0_linear" x1="9.842" y1="-17.449" x2="-14.958" y2="-10.853" gradientUnits="userSpaceOnUse"><stop stop-color="#00A0FF"/><stop offset=".01" stop-color="#00A1FF"/><stop offset=".26" stop-color="#00BEFF"/><stop offset=".51" stop-color="#00D2FF"/><stop offset=".76" stop-color="#00DFFF"/><stop offset="1" stop-color="#00E3FF"/></linearGradient><linearGradient id="paint1_linear" x1="30.287" y1="4.249" x2=".05" y2="4.249" gradientUnits="userSpaceOnUse"><stop stop-color="#FFE000"/><stop offset=".41" stop-color="#FFBD00"/><stop offset=".78" stop-color="orange"/><stop offset="1" stop-color="#FF9C00"/></linearGradient><linearGradient id="paint2_linear" x1=".592" y1="8.909" x2="-19.328" y2="42.417" gradientUnits="userSpaceOnUse"><stop stop-color="#FF3A44"/><stop offset="1" stop-color="#C31162"/></linearGradient><linearGradient id="paint3_linear" x1="-11.113" y1="-2.88" x2="-2.221" y2="12.083" gradientUnits="userSpaceOnUse"><stop stop-color="#32A071"/><stop offset=".07" stop-color="#2DA771"/><stop offset=".48" stop-color="#15CF74"/><stop offset=".8" stop-color="#06E775"/><stop offset="1" stop-color="#00F076"/></linearGradient></defs></svg>