<svg width="20" height="23" fill="none" xmlns="http://www.w3.org/2000/svg"><path fill-rule="evenodd" clip-rule="evenodd" d="M14.315 0a5.067 5.067 0 01-1.159 3.63A4.263 4.263 0 019.79 5.22a4.822 4.822 0 011.19-3.495A5.155 5.155 0 0114.315 0zm4.132 7.725a5.146 5.146 0 00-2.45 4.318 4.973 4.973 0 003.035 4.574 11.399 11.399 0 01-1.579 3.216c-.93 1.391-1.905 2.75-3.452 2.776-.737.017-1.233-.195-1.751-.416-.54-.23-1.103-.47-1.984-.47-.934 0-1.522.248-2.089.487-.49.206-.964.406-1.633.433-1.474.055-2.6-1.485-3.564-2.863-1.927-2.814-3.427-7.932-1.416-11.414A5.527 5.527 0 016.216 5.53c.836-.018 1.638.305 2.341.587.538.216 1.018.409 1.411.409.345 0 .812-.185 1.356-.401.857-.34 1.905-.756 2.973-.644a5.268 5.268 0 014.15 2.244z" fill="#000"/></svg>