<svg width="36" height="36" fill="none" xmlns="http://www.w3.org/2000/svg"><mask id="a" maskUnits="userSpaceOnUse" x="0" y="0" width="36" height="36"><path d="M31.57 0H4.43A4.43 4.43 0 000 4.43v27.14A4.43 4.43 0 004.43 36h27.14A4.43 4.43 0 0036 31.57V4.43A4.43 4.43 0 0031.57 0z" fill="#fff"/></mask><g mask="url(#a)"><path d="M31.57 0H4.43A4.43 4.43 0 000 4.43v27.14A4.43 4.43 0 004.43 36h27.14A4.43 4.43 0 0036 31.57V4.43A4.43 4.43 0 0031.57 0z" fill="url(#paint1_linear)"/><g filter="url(#filter0_d)"><path d="M26.461 53.523c15.145 0 27.422-12.135 27.422-27.105S41.606-.687 26.461-.687C11.316-.688-.961 11.447-.961 26.418s12.277 27.105 27.422 27.105z" fill="#23B95B"/></g><path d="M26.461 53.523c15.145 0 27.422-12.135 27.422-27.105S41.606-.687 26.461-.687C11.316-.688-.961 11.447-.961 26.418s12.277 27.105 27.422 27.105z" fill="url(#paint2_linear)"/><g filter="url(#filter1_d)"><path d="M31.102 56.758c12.853 0 23.273-10.294 23.273-22.992 0-12.699-10.42-22.993-23.273-22.993-12.854 0-23.274 10.294-23.274 22.993 0 12.698 10.42 22.992 23.274 22.992z" fill="#21BA5B"/></g><path d="M31.102 56.758c12.853 0 23.273-10.294 23.273-22.992 0-12.699-10.42-22.993-23.273-22.993-12.854 0-23.274 10.294-23.274 22.993 0 12.698 10.42 22.992 23.274 22.992z" fill="url(#paint3_linear)"/><path d="M12.963 23.23c-3.829 0-6.676-4.03-4.521-8.027.333-.6.812-1.107 1.393-1.474 4.006-2.526 8.315.33 8.405 4.148v.237c-.088 2.83-2.455 5.115-5.277 5.115zm16.114-9.411a6.32 6.32 0 00-4.613-2.045 6.242 6.242 0 00-4.976 2.465c-2.035-3.427-6.615-4.931-10.768-2.495a6.34 6.34 0 00-2.428 2.617c-2.731 5.56 1.306 11.093 6.647 11.093a7.534 7.534 0 006.524-3.729c1.85 2.437 5.37 3.337 8.467 1.474a5.453 5.453 0 002.185-2.556l.424-.992h-2.433l-.152.27a3.994 3.994 0 01-4.435 1.94 3.95 3.95 0 01-3.036-3.744v-.21c.072-2.142 1.842-3.842 4.006-3.848a3.91 3.91 0 013.186 1.593l.152.211h2.587l-.425-.752-.455-.721-.457-.571z" fill="#fff"/></g><defs><linearGradient id="paint1_linear" x1="18" y1="0" x2="18" y2="25.493" gradientUnits="userSpaceOnUse"><stop stop-color="#28C061"/><stop offset="1" stop-color="#14AF4E"/></linearGradient><linearGradient id="paint2_linear" x1="26.461" y1="14.374" x2="26.461" y2="-.688" gradientUnits="userSpaceOnUse"><stop stop-color="#21BC5B"/><stop offset="1" stop-color="#29D66A"/></linearGradient><linearGradient id="paint3_linear" x1="31.102" y1="24.348" x2="31.102" y2="10.919" gradientUnits="userSpaceOnUse"><stop stop-color="#21BC5B"/><stop offset="1" stop-color="#3BDC77"/></linearGradient><filter id="filter0_d" x="-1.961" y="-1.688" width="56.844" height="56.211" filterUnits="userSpaceOnUse" color-interpolation-filters="sRGB"><feFlood flood-opacity="0" result="BackgroundImageFix"/><feColorMatrix in="SourceAlpha" values="0 0 0 0 0 0 0 0 0 0 0 0 0 0 0 0 0 0 127 0"/><feOffset/><feGaussianBlur stdDeviation=".5"/><feColorMatrix values="0 0 0 0 0 0 0 0 0 0 0 0 0 0 0 0 0 0 0.06 0"/><feBlend in2="BackgroundImageFix" result="effect1_dropShadow"/><feBlend in="SourceGraphic" in2="effect1_dropShadow" result="shape"/></filter><filter id="filter1_d" x="6.828" y="9.773" width="48.547" height="47.985" filterUnits="userSpaceOnUse" color-interpolation-filters="sRGB"><feFlood flood-opacity="0" result="BackgroundImageFix"/><feColorMatrix in="SourceAlpha" values="0 0 0 0 0 0 0 0 0 0 0 0 0 0 0 0 0 0 127 0"/><feOffset/><feGaussianBlur stdDeviation=".5"/><feColorMatrix values="0 0 0 0 0 0 0 0 0 0 0 0 0 0 0 0 0 0 0.05 0"/><feBlend in2="BackgroundImageFix" result="effect1_dropShadow"/><feBlend in="SourceGraphic" in2="effect1_dropShadow" result="shape"/></filter></defs></svg>