<svg width="44" height="48" fill="none" xmlns="http://www.w3.org/2000/svg"><g filter="url(#filter0_d)"><path d="M33.89 28.237a25.712 25.712 0 01-3.249 4.237 27.755 27.755 0 01-4.031 3.51c-.728.517-3.751 2.21-4.523 2.584-.773-.374-7.344-4.786-8.578-6.074a25.054 25.054 0 01-3.253-4.238 23.704 23.704 0 01-2.287-4.83c.121.429.257.856.404 1.28a23.422 23.422 0 001.685 3.664 25.135 25.135 0 003.184 4.364 26.305 26.305 0 004.053 3.613c.735.53 1.5 1.023 2.282 1.487.785.458 1.59.88 2.41 1.276l.101.049.102-.049c.818-.395 1.622-.82 2.406-1.278.78-.465 1.542-.961 2.275-1.495a26.535 26.535 0 004.035-3.623 25.772 25.772 0 003.181-4.361 24.014 24.014 0 001.704-3.655c.149-.421.288-.846.413-1.274a24.382 24.382 0 01-2.314 4.813z" fill="#FAAD1B"/><path d="M37.397 18.07l-1.29-.144.824 1.003c.168.205.34.418.569.707l.002.002.04.051v2.51l-1.537.663-.227.098-.07.237c-1.245 4.227-4.594 10.453-13.625 14.81-9.01-4.345-12.364-10.55-13.617-14.776l-.068-.228-.215-.1-1.49-.693v-5.476l-.173-.157-1.152-1.042h2.354v-4.243c2.047-1.083 4.544-2.229 7.332-3.027l-.163 1.011c-2.986.718-5.064 2.282-6.715 3.69l-.185.158v1.422l.869-.741c1.673-1.426 4.122-2.454 6.914-3.034l.212-.044.12-.18.283-.428.063-.095.018-.112.158-.985.532-.343.059-.038.047-.052.45-.498.108-.121.022-.162c.243-1.796 1.507-2.96 3.24-3.396l.37-.094.026-.381.006-.093.044-.038.18-.157V2.11l.262-.144.017-.009.016.01.262.143v1.444l.182.158.046.04.004.051.032.393.386.08c1.81.378 3.152 1.58 3.403 3.439l.022.161.109.121.45.498.046.052.059.038.532.343.158.985.017.105.056.09.238.381.121.195.226.044c3.125.606 5.644 1.731 6.909 3.068l.91.962v-1.6l-.144-.152c-1.376-1.462-3.5-3.037-6.762-3.774l-.152-.939c2.785.817 5.28 1.986 7.326 3.082v4.16h2.272l-1.054 1.039-.157.155v1.354l-.107-.012zM21.01 2.35v.001h0zm0 .435s0 0 0 0h0zm1.961 0v-.001h0zm0-.435s0 0 0 0h0z" fill="url(#paint0_linear)" stroke="#fff" stroke-width="1.054"/><path d="M32.888 27.968a23.514 23.514 0 01-2.974 3.878 25.395 25.395 0 01-3.69 3.212c-.667.473-1.352.92-2.057 1.335-.679.393-1.373.757-2.081 1.098A31.747 31.747 0 0120 36.394a29.687 29.687 0 01-2.064-1.33 25.43 25.43 0 01-3.704-3.2 22.847 22.847 0 01-2.977-3.88 21.716 21.716 0 01-2.094-4.422c.112.393.236.783.37 1.17a21.557 21.557 0 001.542 3.354 22.966 22.966 0 002.915 3.994 24.085 24.085 0 003.709 3.306c.674.486 1.373.937 2.088 1.362a32.68 32.68 0 002.205 1.168l.094.045.093-.045c.75-.362 1.485-.75 2.202-1.17a26.97 26.97 0 002.082-1.368 24.407 24.407 0 003.694-3.316 23.612 23.612 0 002.912-3.991 22.568 22.568 0 001.56-3.344c.136-.386.263-.775.378-1.166a22.31 22.31 0 01-2.118 4.407zM16.54 9.606l.093-.724.7-.391.476-.511s.171-2.922 3.419-3.75c0 0-1.975.499-2.613 2.768-.177.632.079 1.342.079 1.342l-.072 1.383s-1.517.14-2.35.47l.267-.587zm6.528-5.332s2.015.145 2.69 1.776c0 0-1.069-1.229-2.69-1.776z" fill="#fff"/><path d="M21.546 4.227s-1.324.94-1.15 5.365l.53-.03c0 .001-.47-3.986.62-5.335zm-6.073 7.552c.813-.18 1.223-.257 2.046-.381.327.198.49.29.82.471l.013 2.299c-.31.218-.462.332-.772.577h-2.106l-.001-2.966zm1.666.38c-.196.027-.295.04-.49.069.002.817.003 1.014.007 1.83l.492-.015c-.002-.839-.005-1.045-.009-1.883zm1.711-.933a25.048 25.048 0 012.219-.154l.001.774c-.405.01-.606.019-1.01.041l.002.65c.335-.015.502-.02.836-.028l.002.61c-.335.006-.502.01-.835.02l.003.841c.414-.005.62-.006 1.035-.009l.002.774h-2.237c-.008-1.758-.01-1.762-.017-3.519zm2.606-.163c.484-.01.727-.01 1.21-.002 0 1.48 0 1.688-.003 2.909.429 0 .643.002 1.072.007 0 .28 0 .429-.002.77H21.46c-.003-1.825-.003-1.862-.004-3.684zm4.257 1.659l.007-1.45c.476.057.712.09 1.185.166-.007 1.673-.01 1.635-.016 3.307H25.7l.007-1.449c-.197-.01-.296-.014-.493-.022l-.007 1.471h-1.201c.005-1.8.008-1.827.012-3.628.482.03.725.051 1.206.1l-.006 1.472c.198.012.297.018.494.033zm1.79-1.182c.477.085.716.133 1.19.238v2.967H27.49c.004-1.632.007-1.574.012-3.206z" fill="#fff"/><path d="M27.504 11.538s.596.1 1.42.284c.42.093.795.194.795.194l-1.357.563-.858-1.04zm-10.805 0s-.596.1-1.42.284c-.42.093-.796.194-.796.194l1.357.563.859-1.04zm-4.759 4.108c-.444 1.953-.688 3.947-1.072 5.913a35.61 35.61 0 011.57-.55c.06-.347.09-.541.15-.943.373-.105.56-.155.933-.249.047.355.07.523.116.828.637-.177.956-.256 1.59-.377-.36-1.533-.654-3.08-.985-4.62H11.94v-.002zm.778 3.362c.088-.773.179-1.544.272-2.316a6.02 6.02 0 00.155-.007c.092.726.18 1.454.272 2.181-.28.055-.42.083-.699.142zm12.604-3.363h-3.367v.799h.903v3.449c.633.004.947.008 1.58.021l-.006-3.468.893.004c-.001-.32-.003-.482-.003-.805zm6.453 0h-1.593c-.018 1.61-.034 3.222-.053 4.832.989.266 1.951.575 2.915.917.01-.346.018-.547.028-.973-.56-.174-.837-.259-1.389-.412.03-1.455.056-2.91.092-4.364zm-16.098.001c-.009 1.519-.017 3.038-.028 4.558a11.41 11.41 0 011.587-.18l.005-1.488c.41-.014.617-.02 1.028-.031.43-.259.646-.386 1.077-.639l.003-1.592c-.43-.25-.644-.375-1.073-.629h-2.599zm2.144 2.053l-.576.014.004-1.244.576-.005-.004 1.236zm2.043 2.225c.639-.015.959-.02 1.597-.026l.003-4.252H19.87c-.001 1.425-.004 2.851-.007 4.278zm8.095-.544c-.363-.026-.544-.039-.907-.061-.05.32-.076.473-.126.75a56.53 56.53 0 00-1.533-.095c.345-1.434.62-2.888.94-4.33h2.259c.385 1.553.666 3.127 1.036 4.681a55.127 55.127 0 00-1.539-.161 25.57 25.57 0 01-.13-.784zm-.576-2.83c-.09.733-.133 1.151-.223 1.918.272.014.408.02.68.036-.123-.787-.184-1.212-.305-1.951l-.152-.003zm7.665 1.557c.012-.583.017-.87.03-1.388.266.014.4.022.666.038l-.016.933 1.573.177.001-1.315 1.166-.905h-3.9c-.432.283-.648.441-1.078.751-.02.666-.028 1.06-.047 1.832.43.438.645.677 1.081 1.176.464.147.697.225 1.17.383-.01.622-.014.931-.025 1.483l-.682-.226c.008-.336.011-.515.018-.883-.649-.18-.968-.27-1.6-.438-.01.44-.015.654-.026 1.044.401.457.602.691 1.013 1.133.71.272 1.072.414 1.82.697a4.897 4.897 0 001.127-.475v-2.37c-.463-.58-.688-.86-1.131-1.373-.468-.113-.7-.168-1.16-.274zM7.933 15.648H5.788l1.11.906c0 .002 0 .002-.002.003v5.589c.426.256.64.353 1.069.488.63-.243.95-.37 1.594-.62.423-.447.637-.686 1.065-1.155.011-.641.016-1.016.027-1.758-.618.135-.926.206-1.538.347l-.02 1.667-.679.228.043-4.568.688-.037c-.007.506-.01.786-.016 1.352.613-.084.922-.127 1.54-.21l.023-1.465c-.417-.316-.625-.476-1.04-.765h-1.72v-.002zm16.694 6.59s.296.133.576.38c0 0 .626-.266.372-1.188.014.441-.32.76-.948.808zm-6.021-.845s.515.458.674.496l-.326.046s.54.4.89.373l-.442.282c-.001 0-.66-.514-.796-1.197zm.421 3.767s-.061 1.744.677 2.474c0 0-.71-.615-.99-1.65l.313-.825zm6.153.308s-.201 1.586-.966 2.289c0 0 .841-.507 1.157-1.534l-.19-.755z" fill="#fff"/><path d="M25.623 21.049c-.34-.078-.625.25-.713.365-.088.116-.156.29-.596.452.45.03 1.192-.25 1.26-.356.02.202.021.541-.37 1.107l.331.26s.635-.77.088-1.828z" fill="#D71921"/><path d="M22.371 27.452c.077.419.977.391 1.297.244.32-.147.43-.582.43-.582s-.038.038-.226.147c-.188.11-.485.12-.485.12s.42-.18.613-.48.116-.534.116-.534-.17.333-.415.523c-.242.191-.723.273-.723.273s.595-.316.767-.55c.171-.234.216-.516.216-.516s-.91.592-.789.506c.122-.087.596-.62.596-.62l-.408-.077-.281.19.019.053a.326.326 0 01-.01.24l-.264.6a.324.324 0 01-.076.108l-.377.355zm.344 3.604a1.29 1.29 0 01-.593.126c-.398-.002-.775-.02-.972-.193a1.81 1.81 0 01-.45-.623c.005.18-.02.37-.122.49 0 0 .563.313.65.815.066.383 1.54.447 1.648-.084.099-.484.322-.718.53-.73-.082-.18-.094-.49-.094-.49s-.352.551-.597.69z" fill="#fff"/><path d="M25.063 25.013s.01-.852-.635-1.053c.01.25-.137.514-.194.6.194-.086-.114.286-.127.421-.026.27-.25.478-.708.497-.082-.01-.137-.032-.164-.041l.532.466c.535-.097.687-.725.692-.766.004-.032.052.067.093.255.01.03.098.684.007 1.15.353-.66.243-1.582.243-1.582-.022-.1-.044-.166-.051-.188-.03-.087.312.24.312.24z" fill="#D71921"/><path d="M20.43 25.977l-.023.003.189.21c.146.16.337.36.408.41.082.06-.307-.191-.568-.36l-.223-.145a1.354 1.354 0 00.215.518c.17.233.768.549.768.549s-.48-.082-.724-.272c-.243-.19-.415-.523-.415-.523s-.077.234.116.533c.194.3.613.48.613.48s-.298-.01-.486-.12c-.188-.109-.227-.147-.227-.147s.11.435.43.582c.32.148 1.22.175 1.298-.244l-.376-.356a.343.343 0 01-.076-.108l-.264-.6a.326.326 0 01-.01-.24l.02-.052-.163-.11-.119-.08-.358.066-.026.006z" fill="#fff"/><path d="M18.31 23.929c-.216.432-.123.819-.87 1.476.04.026.15-.027.203-.027-.365.414-.325 1.028-.299 1.188.069.013.271-.106.34-.134.067-.026-.137.802.324 1.509.055-.107.122-.107.15-.24.029.012.062.03.097.05.437.254 1.228 1.061 1.54 1.592.096-.04.204-.107.204-.107s.04.223.2.516c.106.197.473.533.473.533-.042-.335-.228-.96-.186-1.289-.813-.32-1.558-1.162-1.706-1.376.108.054.284.026.325.067-.017-.017-.252-.246-.498-.545-.244-.297-.5-.664-.572-.963 0 0 .596-.761.61-1.429.006-.3.096-.67.256-.996.104-.213.24-.409.398-.552-.724.183-.985.72-.988.727z" fill="#fff"/><path d="M23.479 25.11a.133.133 0 00.24-.066.66.66 0 00.238-.192c.008.053.015.225-.208.365-.265.165-.464-.054-.464-.054a.32.32 0 00.194-.053z" fill="#D71921"/><path d="M23.717 25.045l.001-.01a.13.13 0 00-.057-.107c.115-.11.29-.09.29-.09l.003.015a.686.686 0 01-.237.192z" fill="#fff"/><path d="M20.705 25.11a.133.133 0 01-.241-.066.658.658 0 01-.237-.192c-.009.053-.015.225.207.365.266.165.465-.054.465-.054a.315.315 0 01-.194-.053z" fill="#D71921"/><path d="M20.465 25.047l-.002-.01a.13.13 0 01.058-.107c-.115-.11-.29-.09-.29-.09l-.004.015a.686.686 0 00.238.192zm.212 2.901c.005.15.068.53.447.8-.122-.39.042-.8.042-.8s-.346.048-.49 0zm2.636 0c-.143.048-.49 0-.49 0s.163.41.043.8a1.04 1.04 0 00.447-.8zm-1.977.029s.576-.109.756-.109c.203 0 .639.115.639.115s.095.22.037.353c0 0-.05-.176-.11-.176-.022 0-.36-.003-.566 0-.233.003-.708 0-.724 0-.054-.001-.106.179-.106.175-.011-.098-.01-.34.074-.358zm-.318 2.681l.322.15c-.043-.056-.252-.493-.206-.8-.247.495-.116.65-.116.65zm1.9 0s.132-.155-.116-.648c.048.306-.163.741-.205.8l.321-.152z" fill="#fff"/><path d="M21.65 28.803l.433.774-.054-.784s.463.168.609.704c.144.531.108.648-.439.705-.97 0-.96-.236-.96-.236-.036-.492.41-1.163.41-1.163z" fill="#D71921"/><path d="M22.47 30.785s-.272.044-.511.043a1.61 1.61 0 01-.499-.064.052.052 0 01-.033-.032.4.4 0 01-.016-.291s.028.145.08.145l.96-.006c.045.001.09-.142.09-.14.024.092 0 .332-.072.345zm1.958-6.826c-.186.282-.302.612-.302.612.02.36-.11.567-.207.67a.3.3 0 01-.068.054c-.291.18-.592.137-.618.141 0 0 .362.2.723.001.176-.097.181-.424.181-.424.4-.293.29-1.054.29-1.054z" fill="#fff"/><path d="M23.185 22.183c.156.174.216.236.267.401-.636-.516-1.854-.698-2.626.124.364-.872 1.902-1.065 2.398-1.083 0 0-1.185-.507-2.637.15-.12.055-.241.118-.364.189-.096.055-.624-.151-.829-.388l-.004-.004c-.31-.295-.527-.525-.853-.52-.16.179-.25.558-.221.915.028.357.126.72.317.888.1-.092.325-.254.325-.254s-.278-.244-.35-.686a1.256 1.256 0 01-.016-.28c.002-.046.02-.135.028-.185a1 1 0 00.157.167 1.524 1.524 0 00.434.25c.095.026-.28.053-.28.053s.23.308.731.428c.017.004-.401.25-1.268 1.452a2.06 2.06 0 01.364-.333c.159-.106.537-.26.537-.26a.972.972 0 01.347-.2c-.19.2-.307.42-.379.638-.214.66.002 1.312-.018 1.373-.027.08.298-.267.298-.267s-.056.167-.085.42a2.3 2.3 0 00.108 1.187c.037.104.084.21.141.317a2.596 2.596 0 01-.044-.352c-.02-.322.05-.903.048-.906.15.237.414.383.75.473l.49-.45c-.079.028-.408.088-.584-.077-.01.052-.028.062-.021.138 0 0-.321-.086-.292-.491-.277-.385-.156-.5.01-.443-.08-.181-.346-.524-.293-1.117.006-.066.015-.135.03-.207 0 0 .017-.057.064-.146a1.128 1.128 0 00-.042.33c.127.775.812 1.312.803 1.23-.01-.086.074-.178-.034-.284.127.009.254.139.41.477.042.088.432.37.432.37l.002.008.29.2-.478-.09a.148.148 0 00-.089.011l-.207.09.247.052c.037.008.07.025.097.051l.308.298-.378-.172-.112-.034a.165.165 0 00-.14.021l-.18.121.206-.004c.051-.001.1.019.135.055l.155.158-.035.176a.328.328 0 00.01.172l.074.229a.162.162 0 00.083.097l.575.301a.218.218 0 00.202 0l.57-.3a.171.171 0 00.083-.097l.073-.229a.358.358 0 00.01-.172l-.034-.176.21-.17a.14.14 0 01.09-.03h.186l-.188-.126a.12.12 0 00-.114-.011l-.497.194.312-.302a.174.174 0 01.087-.046l.252-.053-.223-.097a.09.09 0 00-.056-.006l-.495.091.282-.2.302-.043.02-.01a.04.04 0 00.007-.01c.025-.044-.007-.258.027-.285v.008c.038.01.22-.378.513-.556-.088.116-.083.234-.03.294.494-.19.703-1.023.723-1.273-.004-.003-.205-.816-1.124-1.172zm-1.377.514c.059-.154.283-.27.283-.27s.214.097.273.27c.728.066 1.041.452 1.165.714-.067-.095-.77-.473-1.442-.207-.733-.353-1.377.237-1.377.237.23-.757 1.131-.728 1.098-.744zm.283 1.532c-.339-.475-1.125-.333-1.401-.084.421-.64 1.223-.56 1.223-.56l.178-.164.154.174c.072-.058.895-.06 1.31.499-.063-.093-.951-.42-1.464.135z" fill="#D71921"/><path d="M21.083 25.163l.35.063c-.028-.204-.501-.775-.94-.963 0 0 .138.286.054.314-.084.026-.435-.43-.503-.543 0 0-.015.24.199.485.194.225.518.071.84.644zm1.989.022l-.33.04c.06-.19.571-.79.92-.94 0 0-.138.286-.054.314.084.026.416-.411.484-.526 0 0 .033.222-.18.468-.195.225-.519.071-.84.644z" fill="#fff"/><path d="M20.36 25.323a1.097 1.097 0 01-.03-.024c-.103-.086-.296-.307-.273-.729 0 0-.077-.37-.264-.653 0 0-.147.8.253 1.096 0 0-.061.405.29.491 0 0 .249.091.611-.068-.073.028-.401.02-.588-.113zm5.328-1.394c.217.432.124.819.87 1.476-.04.026-.149-.027-.202-.027.365.414.325 1.028.298 1.188-.068.013-.27-.106-.338-.134-.068-.026.136.802-.325 1.509-.055-.107-.122-.107-.15-.24a.892.892 0 00-.097.05c-.437.254-1.228 1.061-1.541 1.592a1.711 1.711 0 01-.203-.107s-.041.223-.2.516c-.106.197-.473.533-.473.533.041-.335.228-.96.185-1.289.814-.32 1.559-1.162 1.707-1.376-.108.054-.284.026-.326.067.018-.017.252-.246.499-.545.244-.297.5-.664.572-.963 0 0-.596-.761-.61-1.429a2.503 2.503 0 00-.257-.996 1.829 1.829 0 00-.397-.552c.723.183.984.72.988.727zm-9.852-.921s.146.423.116.768c-.03.337-.316.689-.316.689s.486-.292.501-.294c.016-.003.07-.6.08-.617.01-.015-.335-.569-.335-.569l-.046.023z" fill="#fff"/><path d="M14.104 25.771l-.192.06-.153.139s.269.095.434-.102a.491.491 0 00.067-.1" fill="#D71921"/><path d="M14.104 25.772l-.086-.045.238-.147s.067.06.003.19c0 0-.066.03-.155.002zm-1.364 1.65c.107-.052.659-.525.617-.5-.042.025-.68.235-.64.22.038-.017.51-.449.51-.449l-.376-.045-.755.23c-.025.115.084.355-.185.678.099.175.459.286.459.286s.326.02.842-.275a.883.883 0 01.219-.302c-.097.055-.797.21-.69.157z" fill="#fff"/><path d="M15.694 22.726c-.296.089-.367.463-.381.59-.016.126.01.289-.253.605.357-.173.8-.71.803-.82.106.146.379.375.212 1.008l.366-.081c-.002-.002.145-.73-.747-1.302z" fill="#D71921"/><path d="M12.72 28.017c.07.137.288.457.75.55-.277-.308-.3-.753-.3-.753s-.3.187-.45.203zm2.146 1.978a.925.925 0 01-.342-.728c.217.288.597.391.597.391s-.1.269-.255.337z" fill="#fff"/><path d="M15.21 27.902l-.225.464.014-.502s-.243.147-.243.72c0 .347.102.59.384.711.25-.085.492-.587.492-.587-.352-.23-.423-.806-.423-.806zm-3.476-.917l-.105.183.213.299c.13-.107.13-.24.15-.483 0 0-.08-.008-.258 0z" fill="#D71921"/><path d="M16.526 25.77c-.02.326-.078.937.617 1.437-.263-.259-.488-1.352.01-1.912.252-.285.432-1.123.82-1.507a.224.224 0 00.036-.053c-.692.366-1.257.734-1.22.676.088-.143.443-.81 1.01-1.079-.203.004-1.437.415-2.092 1.037.01-.079-.01-.251.053-.383-.016.01-1.003.387-1.629.93a.772.772 0 01.088-.244c-.7.237-1.315 1.127-1.315 1.127s.037.118.04.163c-.003 0-.004.002-.007.003-.027.016-.07.047-.07.047-.689.446-1.086.88-1.086.88l.313-.013.751-.229c.095-.025.604-.181.68-.235.193.374 1.437.589 1.462.58a2.382 2.382 0 01-.78.144l-.883.435s.994-.413 1.857.072c.39.252.638.505.645.837l.049-.082c-.039-.416-.184-.752-.994-1.157 0 0 .613-.013 1.187.178-.113-.29-.046-.891.064-1.24.199-.627.007-1.228-.265-1.703.181.162.696.695.659 1.29zm-2.348.473c-.595-.14-1.026-.032-1.093-.003l.826-.816.008.243c.223-.361.272-.427.659-.566.073.34.068.742-.4 1.142zm1.454-1.413c-.133.146-.284.524-.242.686-.394.264-.419 1.053-.419 1.053-.11-.305-.07-1.033.004-1.192.075-.158.79-.694.657-.547z" fill="#D71921"/><path d="M16.844 27.895s.257-.043.647.24c-.124-.15-.222-.768-.222-.768-.638.267-.938-.886-.929-1.014 0 0-.234.785.198 1.59.002.006-.265-.254-.848-.373 0 0 .762.83.17 1.052l.002.005c.35 1.004-.39 1.329-.39 1.329l.03-.464c-.094.1-.108.482-.58.613-.084.208.076.46.076.46l.105-.13s.356.24.379.27c.141-.134.676-.547.963-.7-.005-.144-.014-.599.043-.885.154-.535.501-.665.737-.636-.042-.144-.11-.438-.38-.589zm-3.762-1.653c.027-.418.36-.903.932-1.2-.098.096-.165.188-.16.267 0 0 .61-.671 1.78-.671-1.25.364-1.719 1.031-1.719 1.031l-.008-.243-.825.816z" fill="#fff"/><path d="M13.082 26.242s.285-.2 1.096 0c0-.007-.492.11-.492.11-.081-.073-.385-.14-.604-.11zm2.852-.403l-.543-.323c-.232.103-.389.4-.418 1.052 0 0 .252-.49.96-.73zm1.091 2.219s.659.215.82.561c.468.075 1.418.753 1.594 1.156 0 0 .006-.776-1.369-1.477 0 0-.646-.312-.804-.93 0 0-.329.472-.518.426-.084-.02-.408.48.145.6-.036-.107.293-.223.132-.336zm11.144-5.05s-.147.423-.116.768c.029.337.316.689.316.689s-.487-.292-.502-.294c-.016-.003-.069-.6-.08-.617-.009-.015.335-.569.335-.569l.047.023z" fill="#fff"/><path d="M29.899 25.771l.192.06.153.139s-.27.095-.434-.102a.491.491 0 01-.067-.1" fill="#D71921"/><path d="M29.9 25.77l.087-.044-.239-.147s-.066.06-.003.19c0 0 .066.03.155.002zm1.364 1.652c-.107-.052-.659-.525-.617-.5.042.025.68.235.64.22-.038-.017-.51-.449-.51-.449l.376-.045.755.23c.025.115-.084.355.185.678-.099.175-.459.286-.459.286s-.326.02-.842-.275a.885.885 0 00-.219-.302c.098.055.797.21.69.157z" fill="#fff"/><path d="M28.308 22.726c.296.089.367.463.382.59.016.126-.01.289.253.605-.357-.173-.8-.71-.804-.82-.105.146-.378.375-.212 1.008l-.365-.081c.001-.002-.145-.73.746-1.302z" fill="#D71921"/><path d="M31.285 28.017c-.07.137-.288.457-.75.55.277-.308.3-.753.3-.753s.3.187.45.203zm-2.148 1.977a.924.924 0 00.342-.728c-.216.288-.596.391-.596.391s.1.269.255.337z" fill="#fff"/><path d="M28.797 27.901l.223.464-.013-.502s.243.148.243.72c0 .347-.103.59-.384.711-.25-.085-.492-.587-.492-.587.352-.23.423-.806.423-.806zm3.473-.916l.105.183-.213.299c-.13-.107-.13-.24-.15-.483 0 0 .08-.008.258 0z" fill="#D71921"/><path d="M27.478 25.769c.02.326.077.937-.617 1.437.262-.258.488-1.352-.01-1.912-.253-.285-.433-1.123-.82-1.507a.21.21 0 01-.037-.052c.692.365 1.257.733 1.221.675-.09-.143-.444-.81-1.01-1.079.202.004 1.437.415 2.091 1.037-.01-.079.011-.251-.053-.383.016.01 1.004.387 1.629.93a.774.774 0 00-.088-.244c.701.237 1.316 1.127 1.316 1.127s-.036.118-.04.163a1.663 1.663 0 01.077.05 6.07 6.07 0 011.085.88l-.313-.013-.75-.229c-.095-.025-.604-.181-.68-.235-.194.374-1.438.589-1.463.58.339.135.739.147.78.144l.884.435s-.995-.413-1.857.072c-.39.253-.639.505-.645.837l-.05-.082c.039-.416.184-.752.995-1.157 0 0-.613-.013-1.188.178.113-.29.047-.891-.064-1.24-.199-.627-.007-1.228.265-1.703-.18.162-.695.695-.658 1.29zm2.347.473c.595-.14 1.027-.032 1.093-.003l-.826-.816-.008.243c-.223-.361-.272-.427-.659-.566-.073.34-.068.742.4 1.142zm-1.454-1.413c.133.146.284.524.243.686.393.264.418 1.053.418 1.053.11-.305.07-1.033-.004-1.192-.075-.158-.79-.694-.657-.547z" fill="#D71921"/><path d="M27.16 27.894s-.257-.043-.646.24c.124-.15.221-.768.221-.768.639.267.938-.886.93-1.014 0 0 .234.785-.198 1.59-.003.006.264-.254.848-.373 0 0-.763.83-.171 1.052l-.001.005c-.35 1.004.389 1.328.389 1.328l-.03-.463c.094.1.108.482.58.613.084.208-.076.46-.076.46l-.105-.13s-.356.24-.378.27c-.142-.134-.676-.547-.964-.7.005-.144.014-.599-.043-.885-.153-.535-.501-.665-.737-.636.043-.143.11-.438.381-.589zm3.762-1.652c-.027-.418-.36-.903-.932-1.2.097.096.165.188.16.267 0 0-.61-.671-1.78-.671 1.25.364 1.719 1.031 1.719 1.031l.008-.243.825.816z" fill="#fff"/><path d="M30.921 26.242s-.285-.2-1.096 0c0-.007.492.11.492.11.081-.073.385-.14.604-.11zm-2.851-.403l.543-.323c.232.103.39.4.418 1.052 0 0-.252-.49-.96-.73zm-1.092 2.219s-.659.215-.82.561c-.468.075-1.419.753-1.595 1.156 0 0-.005-.776 1.37-1.477 0 0 .646-.312.803-.93 0 0 .33.472.519.426.084-.02.408.48-.145.6.036-.107-.294-.223-.132-.336z" fill="#fff"/></g><defs><linearGradient id="paint0_linear" x1="22" y1="0" x2="22" y2="38.591" gradientUnits="userSpaceOnUse"><stop stop-color="#2D6DDC"/><stop offset="1" stop-color="#282964"/></linearGradient><filter id="filter0_d" x="0" y="0" width="44" height="47.159" filterUnits="userSpaceOnUse" color-interpolation-filters="sRGB"><feFlood flood-opacity="0" result="BackgroundImageFix"/><feColorMatrix in="SourceAlpha" values="0 0 0 0 0 0 0 0 0 0 0 0 0 0 0 0 0 0 127 0"/><feOffset dy="4"/><feGaussianBlur stdDeviation="2"/><feColorMatrix values="0 0 0 0 0 0 0 0 0 0 0 0 0 0 0 0 0 0 0.25 0"/><feBlend in2="BackgroundImageFix" result="effect1_dropShadow"/><feBlend in="SourceGraphic" in2="effect1_dropShadow" result="shape"/></filter></defs></svg>