<svg width="285" height="144" fill="none" xmlns="http://www.w3.org/2000/svg"><mask id="a" maskUnits="userSpaceOnUse" x="0" y="0" width="285" height="144"><path fill="#C4C4C4" d="M0 0h285v144H0z"/></mask><g mask="url(#a)"><g style="mix-blend-mode:screen" fill-rule="evenodd" clip-rule="evenodd"><path d="M157 86.224h7.821V53.545H157v32.68zm35.883-45.292h7.82V24.306h-7.82v16.626zm11.961 21.786h7.82V30.613h-7.82v32.105z" fill="#DA1C5C"/><path d="M160.266 100.27h1.288V47.239h-1.288v53.031zm36.043-49.162h.97V21.01h-.97v30.098zm11.832 14.871h1.225V18h-1.225v47.98z" fill="#DA1C5C"/><path d="M168.961 86.224h7.821V36.059h-7.821v50.165zm11.961-25.082h7.82V24.593h-7.82v36.549z" fill="#14C356"/><path d="M172.154 88.83h1.435V23.043h-1.435V88.83zm12.034-17.369h1.288V18.43h-1.288v53.03z" fill="#14C356"/></g><path d="M68.797 95.42c-2.981 1.35-20.376 9.609-23.76 29.772 1.68.024 24.636-3.218 23.76-29.771z" fill="#fff"/><path d="M66.24 69.412C63 72.418 44.114 90.498 48.42 117.927c2.154-.686 30.316-14.697 17.82-48.515z" fill="#fff"/><path d="M19.193 84.748s-.165 35.711 30.955 31.806c0 0-.047-24.66-30.955-31.806z" fill="#fff"/><path d="M35.12 69.436s-17.228 36.208 16.26 47.094c0 0 11.714-25.086-16.258-47.095zm24.754 68.749H43.616l-6.556-21.654h29.346l-6.532 21.654z" fill="#fff"/><path d="M70.217 96.604c-2.981 1.35-20.376 9.609-23.76 29.772 1.68.023 24.636-3.219 23.76-29.772z" fill="#007537"/><path d="M67.66 70.596C64.419 73.6 45.534 91.682 49.84 119.11c2.154-.686 30.316-14.696 17.82-48.514z" fill="#00873F"/><path d="M20.615 85.93s-.165 35.712 30.955 31.808c0 0-.047-24.66-30.955-31.807z" fill="#00873F"/><path d="M36.541 70.62s-17.228 36.208 16.282 47.094c-.023 0 11.691-25.086-16.282-47.095z" fill="#00A14B"/><path d="M61.294 139.368H45.036l-6.556-21.654h29.346l-6.532 21.654z" fill="#21409A"/><path d="M157.614 26.648l-6.461-2.2 4.26-1.255-3.479-.876s2.438-.71 4.189-1.656c0 0-1.255-.544-3.952-1.018l-2.675-.473 1.965-1.018-6.792-.236-.166-1.491s-4.26-1.184-10.247 1.727c-5.988 2.911-9.869 4.804-10.484 5.61-.639.78-.474 1.253-.474 1.253.048 0 .261.048.592.142-4.402 5.065-2.603 12.756-1.467 16.188a2.124 2.124 0 00-.947.07c-1.917.64-2.059 3.953-.544 6.935 1.183 2.319 3.029 3.763 4.473 3.692l-.284 12.306a4.756 4.756 0 003.337 4.662l12.164 3.858.165.047 3.834 1.207c-.733-.568-.899-2.32-1.585-6.39-.332-1.893-.19-4.142.804-6.697l-1.94-3.882-4.213-8.425s-4.26-.591-7.928-.922c-.118-.45-1.065-4.45-.544-5.799.544-1.42 3.005-5.277 3.005-5.277s-2.011-6.697-3.147-10.224c1.585.426 3.005.829 3.526.994 1.42.403 5.443 1.42 5.443 1.42l-.402-1.42 6.934 2.911-.166-1.49 2.532.875-.071-2.603s6.722 1.112 10.745-.545zm-28.399 21.134c-.663-.047-1.302-.095-1.87-.118-.047-.214-.094-.45-.142-.687l.616.568 1.396.237zm37.251 112.057l-16.921-78.712c-.781-3.669-4.426-6.65-8.07-6.65H84.701c-.947 0-1.8.189-2.533.544-8.543 1.94-8.377 9.49-7.691 12.661l16.92 78.712c.782 3.668 4.426 6.65 8.07 6.65h56.775c3.621 0 5.964-2.934 5.23-6.555 3.526-.118 5.775-3.053 4.994-6.65z" fill="#fff"/><path d="M157.426 173.78h-56.774c-3.668 0-7.289-2.982-8.07-6.65l-16.92-78.713c-.782-3.668-.877-13.11 12.234-13.11l49.746 6.46c3.668 0 7.289 2.982 8.07 6.65l16.921 78.713c.781 3.644-1.562 6.65-5.207 6.65z" fill="#2B4969"/><path d="M162.419 167.199h-56.751c-3.668 0-7.289-2.982-8.07-6.65l-16.92-78.712c-.781-3.668 1.561-6.65 5.23-6.65h56.774c3.668 0 7.289 2.982 8.07 6.65l16.921 78.712c.757 3.668-1.586 6.65-5.254 6.65z" fill="#152333"/><path d="M189.069 136.126h-3.763a.526.526 0 00-.521.521v.521c0 .283.237.52.521.52h3.763c.284 0 .52-.237.52-.52v-.521a.525.525 0 00-.52-.521zm5.631 0h-3.763a.526.526 0 00-.521.521v.521c0 .283.237.52.521.52h3.763c.284 0 .52-.237.52-.52v-.521a.525.525 0 00-.52-.521zm5.632 0h-3.763a.525.525 0 00-.52.521v.521c0 .283.236.52.52.52h3.763a.526.526 0 00.521-.52v-.521c-.024-.284-.237-.521-.521-.521zm5.608 0h-3.763a.526.526 0 00-.521.521v.521c0 .283.237.52.521.52h3.763c.284 0 .52-.237.52-.52v-.521a.525.525 0 00-.52-.521zm-22.483.001h-3.763a.524.524 0 00-.52.52v.521c0 .284.236.521.52.521h3.763a.526.526 0 00.521-.521v-.521c-.024-.284-.26-.52-.521-.52z" fill="#fff"/><path d="M258.123 139.912h-55.709c-.592 0-.971-.473-.876-1.065l6.2-36.658c.095-.591.639-1.065 1.231-1.065h55.709c.592 0 .97.474.876 1.065l-6.201 36.658c-.118.592-.662 1.065-1.23 1.065z" fill="#fff"/><path d="M258.477 139.913h-55.235c-.592 0-.971-.474-.876-1.065l6.035-35.759c.094-.592.639-1.065 1.23-1.065h55.26c.592 0 .97.473.876 1.065l-6.035 35.759c-.119.591-.663 1.065-1.255 1.065z" fill="#fff"/><path d="M254.242 139.913h-57.934a.577.577 0 01-.568-.568v-.829c0-.307.261-.568.568-.568h57.934c.308 0 .568.261.568.568v.829c0 .307-.26.568-.568.568z" fill="#fff"/><path d="M196.899 139.913h-18.53a.576.576 0 01-.568-.568v-.829c0-.307.26-.568.568-.568h18.53c.308 0 .568.261.568.568v.829c0 .307-.26.568-.568.568zm-64.938-53.13l35.901 32.209 7.715 6.91c.616.142 1.255.284 1.941.379 10.886 1.68 11.762-2.58 14.436-18.862l-12.117-11.927-1.964-1.94-1.373-1.35-14.862-14.601c-8.874-8.733-21.796-11.597-28.422-5.278-8.047 7.668-1.468 14.27-1.255 14.46z" fill="#fff"/><path d="M131.606 87.327l35.901 32.209 7.715 6.911c.615.142 1.254.284 1.94.378 10.887 1.681 11.762-2.579 14.436-18.861l-12.116-11.928-1.965-1.94-1.372-1.35-14.886-14.577c-8.875-8.733-21.796-11.596-28.423-5.278-8.022 7.644-1.443 14.223-1.23 14.436z" fill="#001824"/><path d="M173.258 149.592h-61.105c-.923-4.568-.308-12.543.378-15.218.687-2.674-.922-7.573-.922-7.573-6.887-12.306-9.703-19.879-10.082-32.895-.379-13.016 8.875-20.045 12.543-23.263 1.538-1.35 4.733-3.408 7.975-5.349 4.52-2.721 9.064-5.23 9.064-5.23 2.225-.402 4.899 1.657 6.887 2.367l10.862 6.673c13.537 8.33 16.188 24.565 17.418 40.966.521 6.91.781 13.868 1.515 20.258.828 7.478 2.272 14.199 5.467 19.264z" fill="#001F30"/><path d="M112.058 149.71c-.048 0-.095-.048-.119-.095-.946-4.733-.284-12.685.379-15.288.663-2.627-.899-7.455-.923-7.502-3.313-5.94-5.372-10.2-6.816-14.247-.023-.071 0-.118.071-.142.071-.024.119 0 .142.071 1.467 4.023 3.503 8.283 6.816 14.223.071.213 1.609 4.97.923 7.668-.663 2.579-1.325 10.484-.379 15.17.048.071 0 .142-.094.142.023 0 .023 0 0 0zm-8.732-65.909h-.047c-.071-.023-.095-.094-.071-.166 2.556-6.058 7.147-10.01 9.892-12.377.284-.26.568-.497.805-.71 1.325-1.16 4.023-2.981 7.999-5.372a392.065 392.065 0 015.656-3.313.125.125 0 01.166.047.126.126 0 01-.048.166 219.248 219.248 0 00-5.656 3.313c-3.975 2.39-6.65 4.19-7.951 5.349-.237.213-.521.45-.805.71-2.722 2.343-7.265 6.271-9.821 12.306a.182.182 0 01-.119.047z" fill="#fff"/><path d="M143.699 81.955l-19.004-12.543c-2.271-1.633-1.68-4.852 1.136-6.058 2.225-.97 3.787-1.61 3.787-1.61 2.319-.307 4.946 1.35 6.958 1.917.686.19 3.124 1.657 6.129 3.574 2.296 1.443 3.81 3.62 4.26 6.058l1.657 8.71c.307 1.798-3.314 1.088-4.923-.048z" fill="#fff"/><path d="M145.451 75.186l-3.834-1.207-.166-.047-12.164-3.857c-2.011-.663-3.384-2.556-3.337-4.686l.379-16.66c2.958-.237 12.188 1.064 12.188 1.064l4.212 8.401 1.941 3.905c-.994 2.533-1.136 4.78-.805 6.698.687 4.07.876 5.822 1.586 6.39z" fill="#FF8952"/><path d="M143.888 68.797c-6.816-1.799-13.56-10.01-17.347-17.939l8.875-1.254 7.336 8.59 1.941 3.905c-1.018 2.556-1.136 4.804-.805 6.698z" fill="#24364C"/><path d="M150.065 37.629l-1.964.26c-1.728.213-3.313-.994-3.526-2.721l-.758-5.87c-.213-1.727.994-3.313 2.722-3.525l1.964-.26c1.728-.214 3.313.993 3.526 2.72l.758 5.87c.213 1.727-.994 3.313-2.722 3.526z" fill="#192534"/><path d="M153.071 46.433c.142.757.237 1.68.118 2.65-.094.663-.284 1.35-.639 1.988-.52.9-.97 1.752-1.349 2.58-2.603 5.68-2.177 9.892-3.313 10.034-2.437.331-4.615.308-6.532.047a68.339 68.339 0 01-1.704-.639c-9.608-3.928-12.424-11.004-12.424-11.004l.118-5.278-.662-15.974s.355-5.372 10.223-4.851l6.911-.332c8.685.474 8.993 7.337 9.537 12.898.355.947.497 1.633.521 2.177.023 1.657-1.16 1.965-1.278 3.74-.024.212.26.946.473 1.964z" fill="#FF8952"/><path opacity=".28" d="M139.653 63.093c-9.608-3.928-12.424-11.004-12.424-11.004l.118-5.278 2.177-1.656s2.793 5.845 3.148 6.863c.307.876 4.922 8.59 6.981 11.075zm13.536-14.01c-.095.663-.284 1.35-.639 1.988-.521.9-.97 1.752-1.349 2.58-1.751.236-1.68-3.526-.142-4.213.355-.165 1.302-.402 2.13-.355z" fill="#DD7462"/><path opacity=".28" d="M135.606 48.989c1.846-.095 3.716 3.644 1.609 4.047-1.585.307-3.621-.45-4.473-1.823-.875-1.42 2.13-2.2 2.864-2.224z" fill="#DD7462"/><path d="M142.113 50.905l1.752 2.249c.307.591 1.041 1.396 1.751 1.42.899.07 1.159-.568 1.491-1.397l.97-2.508c0-.071.047-.119.047-.19l-1.301-.45-.403.285a1.308 1.308 0 01-1.396.165l-2.485-.402c-.047.071-.047.071-.047.118-.047.308-.189.497-.379.71z" fill="#DB6247"/><path d="M146.964 44.397s.521 3.952.947 4.923c.213.497.307.899.355 1.183a.624.624 0 01-.284.639l-1.184.757c-.213.142-.473.166-.733.095l-1.136-.379c-.213-.07-.355-.26-.308-.497.024-.19 0-.378-.166-.473-.355-.19-.828-.237-1.183 0-.284.19-.592.544-1.136.331-.236-.094-.307-.378-.189-.591l2.224-3.598 1.231-2.437 1.562.047z" fill="#EB7E4B"/><path d="M136.883 54.384l3.076 1.042 1.231.236s.781-.047 1.183.071c.403.119 1.065.545 1.61.45.544-.095 1.751-.734 2.106-.734s1.893-.307 2.272-.236c0 0-.616-.426-1.042-.379-.426.047-1.846.379-1.846.379s-.544.307-.899.213c-.355-.095-1.94-.687-1.94-.687l-1.491.308s-1.207-.095-2.391-.379c-1.183-.284-1.609-.497-1.609-.497l-.26.213zm5.633 4.331c-.355-.19-.142-.568.308-.568 1.041 0 2.296-.023 2.817-.118.97-.213 1.112 0 .947.379-.166.378-.995 1.325-2.012 1.207-.616-.119-1.373-.521-2.06-.9z" fill="#DB6247"/><path d="M124.152 26.057c.307 0 7.88 2.13 9.3 2.532 1.42.402 5.443 1.42 5.443 1.42l-.402-1.42 6.934 2.91-.166-1.49 2.533.875-.071-2.603s6.697 1.113 10.72-.544l-6.46-2.201 4.259-1.254-3.478-.876s2.437-.71 4.188-1.656c0 0-1.254-.545-3.952-1.018l-2.674-.473 1.964-1.018-6.792-.237-.166-1.49s-4.259-1.184-10.247 1.727c-5.987 2.91-9.868 4.804-10.484 5.609-.591.733-.449 1.207-.449 1.207z" fill="#24364C"/><path d="M129.215 25.512c.237.237 3.858 12.307 3.858 12.307s-2.438 3.857-3.006 5.277c-.544 1.42.545 5.846.545 5.846l-1.965-.308-4.733-4.497s-5.514-12.471 1.823-18.932l3.478.308z" fill="#24364C"/><path d="M142.138 42.504c-2.107-.994-4.568-1.443-7.124-1.183-.426.047-.804-.213-.828-.592-.047-.378.308-.757.781-.804 2.769-.26 5.467.236 7.786 1.325.402.19.544.615.355.947a.734.734 0 01-.97.307zm12.589-1.112c-2.058-.142-3.999.26-5.656 1.065a.702.702 0 01-.875-.237c-.024-.047-.048-.07-.071-.118-.19-.284-.071-.686.284-.852a12.18 12.18 0 016.295-1.23c.426.023.781.354.757.71v.141c0 .331-.331.568-.734.52z" fill="#611B2D"/><path opacity=".28" d="M142.659 46.693h-4.307a3.697 3.697 0 01-3.692-3.692V40.54l7.881 1.23.118 4.923zm9.94-2.225c-.023.19.261.947.474 1.965a2.56 2.56 0 01-1.113.26h-3.597l.095-4.922 5.419-1.018c.024 1.657-1.159 1.964-1.278 3.715z" fill="#DD7462"/><path d="M140.859 48.61h-3.171c-.852 0-1.586-.52-1.917-1.302l-1.349-3.455h9.821l-1.491 3.526a2.046 2.046 0 01-1.893 1.23zm12.471 0h-3.171c-.852 0-1.586-.52-1.917-1.301l-1.373-3.48h9.821l-1.491 3.527c-.307.78-1.041 1.254-1.869 1.254z" fill="#fff"/><path d="M157.069 43.64h-31.878v.781h31.878v-.78z" fill="#24364C"/><path d="M127.891 47.474c.9 2.745.332 5.088-1.183 5.538-1.491.45-3.621-1.042-4.946-3.621-1.515-3.006-1.373-6.295.544-6.934 1.964-.64 4.52 1.822 5.585 5.017z" fill="#FF8952"/><path d="M130.684 138.871c-17.489-17.678-41.06-38.906-26.269-53.342 7.928-7.739 12.519.568 12.661.71l37.984 43.521-9.301 9.206c-4.189 4.141-10.933 4.094-15.075-.095z" fill="#001824"/><path d="M130.684 134.848l-25.914-26.175c-6.437-6.508-7.123-17.18-.615-23.618 7.857-7.786 12.756-2.982 12.898-2.84l38.007 43.521-9.301 9.206c-4.189 4.142-10.933 4.095-15.075-.094z" fill="#001F30"/><path d="M175.316 125.453c.615.142 1.254.284 1.94.378 10.887 1.68 11.762-2.579 14.437-18.861.426-2.533.875-5.349 1.42-8.496-.852.52-2.249.686-3.929.52-1.538-.165-3.29-.615-5.112-1.372-1.751-.734-3.289-1.633-4.496-2.58-.829-.639-1.491-1.302-1.965-1.94a3.7 3.7 0 01-.26-.38c-.923-1.443-.308-1.49-.45-1.916l-.662.947-8.307 25.156a5.673 5.673 0 00-.307 1.609c-.119 3.243 2.839 5.751 7.691 6.935z" fill="#fff"/><path d="M175.554 125.926c.615.142 1.254.284 1.941.379 10.886 1.68 11.762-2.58 14.436-18.862.426-2.532.875-5.348 1.42-8.496-.852.52-2.248.686-3.929.52-1.538-.165-3.289-.615-5.112-1.372-1.751-.734-3.289-1.633-4.496-2.58-.828-.639-1.491-1.301-1.964-1.94a3.57 3.57 0 01-.261-.379c-.923-1.443-.307-1.49-.449-1.917l-.663.947-8.307 25.157a5.66 5.66 0 00-.307 1.609c-.119 3.242 2.84 5.751 7.691 6.934z" fill="#001F30"/><path d="M167.767 130.328l-23.831 11.667a10.958 10.958 0 01-4.97 1.183 11.04 11.04 0 01-9.253-4.993c-3.929-5.94-1.302-13.987 5.372-16.472l31.191-11.643c.521 6.91.781 13.868 1.491 20.258z" fill="#001824"/><path d="M183.245 97.882c-2.342-.568-4.33-1.586-5.49-2.816-.781-.852-1.16-1.775-1.065-2.65.071-.64.379-1.231.899-1.776l.166.166c-.497.497-.757 1.041-.828 1.633-.095.828.26 1.68.994 2.461 1.491 1.61 4.425 2.816 7.667 3.148l-.023.236c-.805-.094-1.586-.213-2.32-.402z" fill="#fff"/><path d="M190.937 97.338c-1.514.497-3.337.78-5.325.733-3.407-.07-6.389-1.065-7.975-2.508-.805-.734-1.254-1.586-1.254-2.462 0-.639.26-1.23.71-1.775.497-.591 1.207-1.112 2.082-1.561a11.817 11.817 0 012.343-.829c.45-.118.923-.19 1.397-.26a18.79 18.79 0 011.656-.166h.308c.307 0 .591-.023.899 0 .426 0 .828.024 1.231.071l.686.071c.189.024.379.048.544.071.379.071.758.142 1.136.237.166.047.308.07.474.118.236.071.497.142.71.213.142.048.26.095.402.142.142.048.308.119.45.166.307.118.615.26.875.426.355.19.663.378.947.591.544.403.994.853 1.278 1.326.307.497.473 1.017.473 1.562.024 1.609-1.609 3.005-4.047 3.834z" fill="#001824"/><path d="M194.558 87.09a2.523 2.523 0 00-.403-.544 2.31 2.31 0 00.379-1.372 2.29 2.29 0 00-.308-2.012 2.519 2.519 0 00-.733-.686c0-.45-.119-.9-.403-1.326-.544-.757-1.443-1.088-2.248-.899-.852-.095-2.224-.213-2.224-.213l-1.988-.994.615-.19 1.775-.567.733-.237c.261-.047.497-.142.71-.26l2.722-.734c.781 0 1.467-.78 1.538-1.704.071-.946-.52-1.704-1.301-1.704l-2.225.024a1.126 1.126 0 00-.402 0h-.024c-1.491-.118-4.922.45-6.745 1.112a2.461 2.461 0 00-.591.19c-.852.307-1.728.804-2.391 1.68-1.656 2.2-1.254 1.988-2.106 2.934-.662.734-1.585 2.154-3.124 2.888-.852-.545-2.059-.9-3.218-1.183-.734-.285-2.248.378-2.674 1.23-.119 1.799-.308 2.509 3.313 4.33.307.167.686.214 1.112.143-.024.26-.024.568-.024.876.024.757.166 1.538.616 1.916.378.308.97.474 1.585.592l.663 2.296.947 3.313c1.609 1.065 4.354 1.538 7.407 1.136 1.751-.237 3.337-.734 4.591-1.396l-.473-1.61-.568-1.988.213-.213 4.331-1.964c1.065-.45 1.491-1.751.923-2.863z" fill="#fff"/><path d="M190.579 95.989c-1.278.662-2.864 1.16-4.591 1.396-3.029.402-5.798-.07-7.408-1.136l-.946-3.313-.095-.355-.544-1.94-.686-2.438h12.069l.095.355.071.26.118.426.095.308.071.26.023.118.166.545.331 1.16.19.686.023.094.568 1.988.45 1.586z" fill="#E3733E"/><path d="M190.106 94.38l-.094.047c-.71.663-1.42 1.207-1.988 1.538-.237.142-.426.26-.592.332-.876.402-4.023-.166-5.514-.734-.237-.094-.426-.166-.568-.26-1.065-.663-.663-1.704-1.349-2.012-.024-.023-.071-.023-.118-.047-.45-.142-1.373-.166-2.272-.308l-1.349-4.71h12.069l1.775 6.154z" fill="#B85E33"/><path d="M192.685 86.948a11.47 11.47 0 01-.662 2.178c-.9 2.106-2.982 3.833-4.237 4.59-.236.143-.426.261-.591.332-.876.402-4.023-.166-5.514-.734-.237-.094-.426-.165-.568-.26-1.065-.663-.663-1.704-1.349-2.012-.024-.023-.071-.023-.119-.047-.828-.26-3.242-.142-4.259-.97-.474-.379-.616-1.16-.616-1.917-.023-.947.142-1.893.119-2.012-.048-.189-2.698-2.627-.166-2.934.166-.024.308-.048.45-.071 2.224-.474 3.384-2.367 4.188-3.266.852-.947.45-.734 2.107-2.935 1.656-2.2 4.875-2.082 4.875-2.082l.97 1.846-.379 2.58 2.107 1.064s2.508.19 2.863.308.497.805.805 2.272c.213.994.307 2.437-.024 4.07z" fill="#E3733E"/><path d="M177.021 86.64c-.355.735-1.349 1.35-2.272 1.492-.024-.947.142-1.893.118-2.012-.047-.189-2.698-2.627-.166-2.934.166-.024.308-.048.45-.071 1.633.639 2.769 1.656 1.87 3.526z" fill="#C86637"/><path d="M191.929 76.228c0 .994-.734 1.893-1.751 2.059l-.734.237-1.775.568-.615.189-.592.19a3.107 3.107 0 01-2.958-.545c-.473-.402-.805-.923-.805-1.49-.023-.12-.023-.238-.023-.356 0-.994.733-1.893 1.751-2.059 1.846-.662 5.278-1.23 6.768-1.112.616-.119.71.142.687.591-.024.356-.095.853-.024 1.373a.957.957 0 01.071.355zM173.682 87.09c-3.621-1.798-3.431-2.508-3.313-4.33.402-.852 1.94-1.515 2.674-1.23 2.532.638 5.325 1.585 4.071 4.212-.545 1.112-2.462 1.893-3.432 1.349z" fill="#E3733E"/><path d="M191.929 76.228c0 .995-.734 1.894-1.752 2.06-1.846.308-1.87-3.385-.237-3.456l1.965-.331c-.024.355-.095.852-.024 1.372.024.119.048.237.048.355z" fill="#C86637"/><path d="M193.609 77.293l-3.124.828c-1.633.024-1.727-2.177-1.727-2.248.071-.947.852-1.964 1.633-1.964l3.455-.024c.781 0 1.373.757 1.302 1.704-.048.923-.758 1.704-1.539 1.704z" fill="#E3733E"/><path d="M187.693 79.092l-.615.19c-1.018-.166-1.468-1.35-1.42-2.486.142.426.733 1.823 2.035 2.296zm4.994 7.856c-.141.71-.354 1.444-.662 2.178-.899 2.106-2.982 3.834-4.236 4.59-.048 0-.119 0-.166-.023-.118 0-.26-.023-.379-.047l-1.822-.473c-.663-.166-1.065-.97-.923-1.799.095-.497.568-1.467 1.491-1.349l1.467-.118 4.71-2.745c.166-.095.355-.19.52-.214z" fill="#C86637"/><path d="M194.106 90.238l-5.845 2.65c-.71.308-1.61-.118-2.059-.97-.45-.852-.284-1.846.378-2.248l5.515-3.266c.993-.591 2.342-.19 2.91.923.592 1.112.166 2.414-.899 2.911z" fill="#DE6933"/><path d="M187.174 92.912l-1.799-.473c-.662-.166-1.065-.97-.923-1.799.095-.497.568-1.467 1.491-1.372l1.917-.142c1.018.118 1.728 1.136 1.538 2.224-.213 1.113-1.23 1.799-2.224 1.562z" fill="#E3733E"/><path d="M181.68 93.315c-.237-.095-.426-.166-.568-.26-1.065-.663-.663-1.705-1.349-2.012-.024-.024-.071-.024-.118-.048 1.159-.639 2.271-1.656 2.484-3.266 0 0 .734 3.503-.449 5.586zm12.898-9.088c-.733-1.065-2.177-1.302-3.124-.544l-4.378 3.431-1.585.071c-1.065-.142-1.61.876-1.704 1.373-.142.852.331 1.704 1.112 1.87l2.13.52c.095.024.213.047.308.047.355.071.71.048.994-.142.236-.094.473-.236.662-.402l5.017-3.124c1.042-.615 1.302-2.035.568-3.1z" fill="#C86637"/><path d="M194.129 86.499l-5.656 3.526c-.686.426-1.68.095-2.248-.71-.568-.804-.545-1.87.094-2.366l5.254-4.118c.947-.734 2.367-.52 3.124.544.734 1.065.45 2.485-.568 3.124z" fill="#DE6933"/><path d="M187.077 90.238l-2.13-.52c-.781-.19-1.278-1.018-1.112-1.87.094-.497.639-1.514 1.704-1.373l2.248-.094c1.183.165 2.059 1.207 1.846 2.343-.19 1.112-1.373 1.798-2.556 1.514z" fill="#E3733E"/><path d="M192.902 85.197l-5.444 3.384c-.662.403-1.609.095-2.177-.686-.544-.78-.52-1.798.095-2.272l5.041-3.952c.923-.71 2.295-.497 3.005.52.734 1.018.474 2.39-.52 3.006z" fill="#C86637"/><path d="M186.18 88.676l-2.059-.52c-.757-.166-1.23-.994-1.065-1.799.095-.473.616-1.467 1.633-1.325l2.154-.095c1.16.142 1.988 1.16 1.799 2.248-.19 1.089-1.326 1.751-2.462 1.491z" fill="#C86637"/><path d="M193.021 84.392l-5.443 3.385c-.663.402-1.61.094-2.178-.687-.544-.78-.52-1.798.095-2.272l5.041-3.952c.923-.71 2.295-.497 3.005.52.71 1.019.45 2.391-.52 3.007z" fill="#DE6933"/><path d="M186.229 87.99l-2.059-.521c-.757-.166-1.23-.994-1.065-1.799.095-.473.616-1.467 1.633-1.325l2.154-.094c1.159.141 1.988 1.16 1.798 2.248-.189 1.088-1.325 1.751-2.461 1.49z" fill="#E3733E"/><path d="M206.248 70.217c-.237-.45-.71-.781-1.255-.781h-12.684c-.781 0-1.42.639-1.42 1.42v25.393c0 .45.213.852.544 1.112.237.45.71.781 1.254.781h12.685c.781 0 1.42-.639 1.42-1.42v-25.37c0-.473-.213-.875-.544-1.135z" fill="#fff"/><path d="M169.234 106s7.834-1.752 11.076-4.663c2.39-2.13 4.094-4.378 4.544-5.277 1.017-2.722 1.23-9.892.473-12.685a.705.705 0 01.521-.852c.828-.19 1.68.166 2.106.9.97 1.561 2.532 4.26 2.674 5.3.237 1.539 1.183 2.959 3.077 2.84 1.656-.094 7.383-2.13 8.709-2.626.189-.071.355-.166.497-.308l3.337-3.219s1.372-1.727 2.555-.355c1.018 1.184-1.656 4.923-2.248 5.633-.591.71-5.514 3.857-5.514 3.857l3.645-.284a1.89 1.89 0 011.514.545c.568.544 1.113 1.443.403 2.485a5.605 5.605 0 01-1.278 1.372c-.758.568-1.089 1.515-.9 2.438.166.804.213 1.727-.165 2.319-.829 1.302-6.272 5.206-7.81 5.68-1.538.473-7.455 3.195-12.07 2.603l-10.412 4.26-4.734-9.963z" fill="#fff"/><path d="M205.255 97.953H192.57c-.781 0-1.42-.639-1.42-1.42V71.14c0-.781.639-1.42 1.42-1.42h12.685c.781 0 1.42.639 1.42 1.42v25.393c0 .781-.639 1.42-1.42 1.42z" fill="#414042"/><path d="M205.634 98.426h-12.685c-.781 0-1.42-.639-1.42-1.42V71.613c0-.78.639-1.42 1.42-1.42h12.685c.781 0 1.42.64 1.42 1.42v25.393c.024.781-.615 1.42-1.42 1.42z" fill="#231F20"/><path d="M194.416 73.72a.592.592 0 100-1.184.592.592 0 000 1.184zm0 1.987a.592.592 0 100-1.183.592.592 0 000 1.183zm4.735 5.538a1.61 1.61 0 100-3.218 1.61 1.61 0 000 3.218z" fill="#414042"/><path d="M194.418 76.678a1.373 1.373 0 01-1.373-1.373v-2.367a1.373 1.373 0 012.745 0v2.367c.024.757-.592 1.373-1.372 1.373zm0-4.875c-.639 0-1.136.52-1.136 1.136v2.366c0 .64.52 1.136 1.136 1.136a1.15 1.15 0 001.135-1.136v-2.367c.024-.638-.496-1.135-1.135-1.135z" fill="#414042"/><path d="M170.299 106.236s7.833-1.751 11.075-4.662c2.391-2.13 4.095-4.378 4.544-5.278 1.018-2.721 1.231-9.892.474-12.684a.705.705 0 01.52-.852c.828-.19 1.68.165 2.106.899.971 1.562 2.533 4.26 2.675 5.3.236 1.54 1.183 2.96 3.076 2.84 1.657-.094 7.384-2.13 8.709-2.626.189-.071.355-.166.497-.308l3.337-3.218s1.373-1.728 2.556-.355c1.018 1.183-1.657 4.922-2.248 5.632-.592.71-5.514 3.858-5.514 3.858l3.644-.284a1.894 1.894 0 011.515.544c.568.544 1.112 1.444.402 2.485a5.586 5.586 0 01-1.278 1.373c-.757.567-1.089 1.514-.899 2.437.165.805.213 1.728-.166 2.319-.828 1.302-6.271 5.207-7.81 5.68-1.538.473-7.454 3.195-12.069 2.603l-10.413 4.26-4.733-9.963z" fill="#FF8952"/><path d="M143.935 137.972l36.422-17.844c.52-.261.757-.852.568-1.397l-5.041-13.868c-.426-1.183-1.728-1.775-2.911-1.349l-37.889 14.176c-6.674 2.485-9.277 10.531-5.372 16.471a11.103 11.103 0 0014.223 3.811z" fill="#001F30"/><path d="M143.013 112.081a.175.175 0 01-.094-.047l-20.092-23.027a.113.113 0 010-.165.114.114 0 01.165 0l20.092 23.026a.114.114 0 010 .166c0 .024-.023.047-.071.047zm-12.33 22.885c-.023 0-.071 0-.094-.023l-25.891-26.175c-3.123-3.171-5.017-7.502-5.206-11.904-.166-4.567 1.467-8.78 4.591-11.88a.115.115 0 01.166 0 .115.115 0 010 .166c-3.077 3.053-4.686 7.194-4.52 11.69.165 4.355 2.035 8.639 5.135 11.763l25.914 26.174a.115.115 0 010 .166c-.047.023-.071.023-.095.023zm-.592-13.418c-.023 0-.047 0-.071-.024-.047-.047-.071-.118-.023-.165a11.233 11.233 0 015.04-3.763l39.025-14.578a1.24 1.24 0 01.923.023c.284.142.521.379.615.687l4.97 13.702c.024.071 0 .118-.071.142-.071.024-.118 0-.142-.071l-4.97-13.702a1.014 1.014 0 00-.497-.545.882.882 0 00-.733-.023l-39.025 14.578a10.817 10.817 0 00-4.946 3.692c-.024.023-.047.047-.095.047z" fill="#fff"/><path d="M148.339 135.96l-.095-.213 31.925-15.619c.545-.261.805-.899.592-1.491l-.402-1.136.213-.071.402 1.136a1.41 1.41 0 01-.71 1.775l-31.925 15.619z" fill="#000"/><path d="M234.48 125.429c-.923-.118-1.752-.497-2.343-1.041l1.207-1.255c.473.45.946.758 1.562.9l.497-1.752c-1.491-.426-2.107-1.041-1.728-2.366.331-1.231 1.491-2.012 2.935-2.177l.165-.639h1.16l-.19.662c.758.119 1.349.403 1.846.829l-1.112 1.301a3.354 3.354 0 00-1.207-.662l-.473 1.656c1.562.45 2.106 1.136 1.751 2.39-.331 1.231-1.514 2.012-2.958 2.178l-.308 1.088h-1.159l.355-1.112zm1.822-6.295c-.544.071-.852.331-.97.71-.095.331 0 .568.544.781l.426-1.491zm.663 4.212c.094-.378-.024-.591-.568-.828l-.426 1.538c.544-.047.875-.284.994-.71z" fill="#6C8BA7"/><path d="M189.303 136.528h-3.763a.525.525 0 00-.52.521v.52c0 .284.236.521.52.521h3.763a.526.526 0 00.521-.521v-.52c-.024-.308-.237-.521-.521-.521zm5.635 0h-3.763a.526.526 0 00-.521.521v.52c0 .284.237.521.521.521h3.763c.284 0 .52-.237.52-.521v-.52c-.023-.308-.26-.521-.52-.521zm5.607 0h-3.763a.525.525 0 00-.52.521v.52c0 .284.236.521.52.521h3.763a.526.526 0 00.521-.521v-.52a.51.51 0 00-.521-.521zm5.635 0h-3.763a.526.526 0 00-.521.521v.52c0 .284.237.521.521.521h3.763a.526.526 0 00.521-.521v-.52a.51.51 0 00-.521-.521zm-22.508.001h-3.763a.524.524 0 00-.52.52v.521c0 .284.236.521.52.521h3.763a.526.526 0 00.521-.521v-.521a.51.51 0 00-.521-.52z" fill="#414042"/><path d="M258.148 136.954h-55.709c-.592 0-.97-.473-.876-1.065l6.201-36.658c.094-.592.639-1.065 1.23-1.065h55.709c.592 0 .971.473.876 1.065l-6.2 36.658c-.095.592-.663 1.065-1.231 1.065z" fill="#fff"/><path d="M258.574 137.309h-55.709c-.592 0-.971-.473-.876-1.065l6.201-36.658c.094-.592.638-1.065 1.23-1.065h55.709c.592 0 .971.473.876 1.065l-6.201 36.658c-.094.592-.639 1.065-1.23 1.065z" fill="#C0DBF2"/><path d="M258.952 137.309h-55.259c-.592 0-.97-.473-.876-1.065l6.035-35.759c.095-.591.639-1.065 1.231-1.065h55.259c.592 0 .97.474.876 1.065l-6.035 35.759c-.095.592-.639 1.065-1.231 1.065z" fill="#7FA4C5"/><path d="M259.451 139.107h-57.934a.576.576 0 01-.568-.568v-.828c0-.308.261-.568.568-.568h57.934c.308 0 .568.26.568.568v.828c0 .308-.26.568-.568.568z" fill="#7FA4C5"/><path d="M202.084 139.107h-23.145a.575.575 0 01-.568-.568v-.828c0-.308.26-.568.568-.568h23.145c.308 0 .568.26.568.568v.828a.56.56 0 01-.568.568z" fill="#C0DBF2"/><path d="M234.839 122.47c-.923-.118-1.751-.497-2.343-1.041l1.207-1.254c.473.449.947.757 1.562.899l.497-1.751c-1.491-.426-2.106-1.042-1.728-2.367.332-1.23 1.491-2.011 2.935-2.177l.166-.639h1.159l-.189.663c.757.118 1.349.402 1.846.828l-1.112 1.301a3.363 3.363 0 00-1.207-.662l-.474 1.656c1.562.45 2.106 1.136 1.751 2.391-.331 1.23-1.514 2.011-2.958 2.177l-.307 1.089h-1.113l.308-1.113zm1.799-6.319c-.545.071-.852.332-.971.71-.094.332 0 .568.545.781l.426-1.491zm.662 4.237c.095-.379-.023-.592-.568-.829l-.426 1.539c.568-.048.9-.284.994-.71z" fill="#fff"/><path d="M265.244 143.462H37.178v95.326h228.066v-95.326z" fill="#364D5F"/><path d="M79.565 143.747H37.203v95.088h42.362v-95.088z" fill="#152733"/><path d="M265.244 143.557H37.178v3.384h228.066v-3.384z" fill="#152733"/><path d="M275.847 139.132H25.818v4.662h250.029v-4.662z" fill="#364D5F"/><path d="M72.18 139.132H25.818v4.662H72.18v-4.662z" fill="#152733"/></g></svg>