<svg width="182" height="143" fill="none" xmlns="http://www.w3.org/2000/svg"><path d="M115.666 87.556c-1.219-2.12-2.304-4.291-3.473-6.445-1.118-2.087-2.571-4.024-4.909-4.776-2.855-.918-5.911-1.269-8.85-1.853a150.305 150.305 0 00-9.05-1.486c-4.959-.651-13.859-.4-15.896-5.995-.785 2.605-1.052 6.245 2.488 8.316 4.642 1.97 30.356 2.605 30.356 2.605l12.824 19.169s.835 1.002 1.737-.484c.2-.318-1.236-2.505-.935-2.84-2.004-2.003-2.872-3.74-4.292-6.21zm15.646-12.723l-1.87.685-.067.918 2.121-.267c-.117-.434-.234-.885-.184-1.336z" fill="#fff"/><path d="M118.739 94.002l8.566 15.362s2.672 1.002 4.559-.217c1.886-1.219 7.463-13.692 7.463-13.692l.318-.768c.684-1.653-.451-3.49-2.221-3.64-.751-.067-1.403-.034-1.653.184-.785.667-3.457 7.68-7.464 8.014l-5.794-9.801c.017 0-3.44-1.787-3.774 4.558zM21.075 39.4c-1.904 1.536-4.575 2.505-7.397 3.356l13.024.034c-3.24-.017-3.156-5.377-5.627-3.39zm44.917.969c-3.123 1.352-4.476-2.388-8.917-1.687-.651.1-1.286.3-1.887.568-1.252.534-4.525 1.736-5.86.217 0 0-1.403-1.57-3.29-3.123-2.655-2.17-7.397-1.653-9.134.986-1.553 2.354-3.757 4.341-7.43 5.51 18.45.05 46.57.117 46.97.117-5.994-1.503-6.93-4.108-10.453-2.588zm29.17 42.897c-1.02-4.275-1.954-8.249-2.322-9.785-.1-.434-.166-.684-.166-.684l-16.515-6.028s-2.838 1.319-1.82 6.044c0 .05.017.084.034.134.4 1.77 1.352 4.007 3.172 6.83 6.78 10.502 9.468 16.463 9.468 16.463s-8.75 5.861-14.81 15.813c0 0 2.771 1.553 5.175 2.955 0 0 14.427-12.272 19.854-15.378 0 0 1.87-.885 1.403-2.137-.234-.685-1.954-7.815-3.474-14.227z" fill="#fff"/><path d="M112.978 29.282c-1.286-1.202-5.21-4.157-6.228-5.71-1.019-1.553-2.471-5.878-2.471-5.878s-1.987 1.186-3.624 1.62c-2.337.618-11.037 2.688-12.139 2.889-.284.05-.618.3-1.035.784-1.052.535-2.355 1.353-3.99 2.588-6.897 5.21-19.187 16.097-19.988 16.514-.801.418-1.019 24.162-1.019 24.162h.017c-.885 1.72-1.586 4.876-1.586 4.876l-.468 1.47v1.084l.585.05-.217 1.17.55.634 1.337-1.753-.418 1.052s-.067.217-.184.55c-.334 1.036-1.002 3.156-.901 3.257.133.133 1.052 0 1.052 0l2.304-5.093-1.637 4.809-.133 1.002.968-.084c.802-.718 2.672-6.145 3.223-7.514.35-.901.534-3.022.601-4.458l1.436.284s.635-5.394 1.453-8.316c1.586-5.644 1.586-5.56 2.054-11.104 0 0 3.657-2.872 7.58-5.977-.718 3.055-1.135 5.126-1.77 7.263-.2.685-.417 1.353-.667 2.07-1.587 4.442-4.325 11.639-4.609 13.693-.284 2.053-1.035 3.172 0 3.64 0 0-.317-2.705 2.839-4.291 1.102-.568 2.571-1.17 4.007-1.72 3.19-1.22 6.629-1.637 10.019-1.22l11.721 1.42s2.071-.918 2.305-3.59c.25-2.672 2.02-5.594 2.888-6.996 0 0 .952-1.97 1.653-5.344 0 0 .385-.885 1.937-3.573 1.553-2.672 2.438-4.809 2.789-7.08.334-2.287 1.052-5.978-.234-7.18z" fill="#fff"/><path d="M58.376 116.46c2.705-.217 9.234 1.47 16.53 4.392 9.218 3.69 16.164 7.981 15.53 9.568-.268.651-1.804.751-4.158.35 3.139.652 5.21.652 5.527-.133.65-1.62-6.462-5.995-15.897-9.785-8.098-3.239-15.261-4.993-17.532-4.392z" fill="#F36E21"/><path d="M72.453 122.104c.1.083.234.183.417.3.184.117.418.234.668.367.267.134.551.284.868.435l.668-.602c-.45-.167-.851-.317-1.185-.417-.334-.1-.618-.184-.852-.234a2.55 2.55 0 00-.517-.067c-.1 0-.15.034-.184.067.017.017.05.084.117.151zm5.493 3.724c0-.051-.033-.117-.117-.184-.1-.084-.25-.184-.434-.301-.2-.117-.434-.233-.701-.384-.267-.133-.568-.284-.885-.434l-.735.668c.885.334 1.587.551 2.07.651.435.1.702.1.802-.016zm1.77-1.72c.568.284 1.052.568 1.47.802l.167.016a36.87 36.87 0 00-1.62-.901 38.532 38.532 0 00-2.254-1.052l-.05.05c.901.4 1.67.751 2.287 1.085zm-7.08.7l-.367.318.033.016.367-.317c-.016 0-.033-.017-.033-.017zm5.377.151c.584.284 1.102.551 1.553.801.45.251.818.485 1.069.702.233.2.334.35.317.484 0-.017.017-.017.017-.033.05-.134-.05-.318-.301-.518a7.387 7.387 0 00-1.069-.701c-.45-.251-.968-.518-1.553-.802-.567-.267-1.152-.551-1.736-.818l-.05.05c.584.284 1.169.551 1.753.835z" fill="#FEB05C"/><path d="M72.419 122.154c.1.084.233.184.417.301.184.117.418.234.668.367.267.134.551.284.868.434l.718-.651c-.016 0-.016 0-.033-.017l-.668.601c-.317-.15-.601-.3-.868-.434a7.35 7.35 0 01-.668-.367 2.72 2.72 0 01-.418-.301.424.424 0 01-.117-.167l-.016.017c0 .067.033.134.117.217zm-2.572-1.519c.301 0 .719.05 1.236.167a24.92 24.92 0 011.904.517c.751.234 1.586.535 2.521.919l.25-.217c.034-.034.134-.034.301 0 .167.033.367.1.618.2l1.119.451.066-.05-1.152-.468c-.25-.1-.45-.167-.618-.2-.166-.034-.267-.034-.3 0l-.25.217c-.936-.368-1.77-.685-2.522-.919-.751-.233-1.386-.417-1.903-.517-.535-.117-.936-.167-1.236-.167-.3 0-.468.067-.518.167v.033c.05-.083.217-.133.484-.133zm8.082 5.226v-.034c-.084.1-.35.117-.802.017-.484-.1-1.185-.317-2.07-.651l-.067.05c.902.334 1.603.567 2.104.668.518.1.785.083.835-.05zm-8.699-3.223l.45.15c.184.067.385.167.585.268.2.1.434.233.701.367.268.133.551.3.885.467.334.167.735.351 1.203.568l.885-.785c-.017 0-.017-.016-.034-.016l-.818.734c-.468-.2-.868-.4-1.202-.567a13.869 13.869 0 01-.885-.468c-.267-.133-.484-.267-.702-.367-.2-.1-.4-.201-.584-.267-.15-.067-.3-.117-.45-.151-.151-.05-.268-.066-.368-.083l-1.069-.134c.05.034.1.067.15.084l.885.117c.1.016.218.033.368.083z" fill="#FEB05C"/><path d="M69.915 123.557a53.56 53.56 0 002.704 1.252c.017 0 .017.017.034.017l-.368.317-.05.05 1.153.467c.25.101.45.167.617.201.167.033.267.033.3.016l.285-.267c.952.368 1.82.668 2.571.919.768.233 1.42.417 1.954.534.534.117.968.167 1.286.15.317-.016.5-.083.55-.217v-.033c.034-.134-.066-.301-.317-.484a7.46 7.46 0 00-1.068-.702c-.451-.25-.969-.517-1.553-.801-.585-.284-1.169-.551-1.77-.835l.05-.05.751-.685c.334.151.618.284.885.418.267.133.501.25.718.35.217.117.418.201.585.284a5.135 5.135 0 00.885.351c.133.033.25.067.384.083l.851.101c-.05-.034-.1-.051-.15-.084a26.14 26.14 0 00-1.47-.801 31.157 31.157 0 00-2.287-1.069l.05-.05.334-.284-.033-.017-1.119-.451c-.25-.1-.45-.167-.618-.2-.167-.033-.267-.033-.3 0l-.25.217c-.936-.367-1.77-.685-2.522-.918-.752-.234-1.386-.418-1.904-.518-.534-.117-.935-.167-1.235-.167-.267 0-.434.05-.501.15 0 .017-.017.017-.017.034-.067.15.033.334.284.551.25.217.601.451 1.035.701.451.251.952.518 1.536.802.568.267 1.136.534 1.72.801.017 0 .017.017.034.017l-.885.785a22.255 22.255 0 01-1.203-.568c-.334-.167-.634-.317-.885-.468-.267-.133-.484-.267-.7-.367-.201-.1-.402-.2-.585-.267-.15-.067-.3-.117-.451-.15-.15-.051-.267-.067-.368-.084l-.884-.117-.167-.017c.567.301 1.269.685 2.103 1.103zm5.142 1.636l.735-.668c.317.15.618.301.885.434.267.134.5.267.701.384.2.117.334.217.434.301.084.067.117.133.117.183v.034c-.05.133-.334.15-.835.05-.5-.1-1.202-.317-2.103-.668l.066-.05zm-2.721-3.256c.033-.034.083-.05.183-.067.117 0 .284.017.518.067.234.05.517.133.851.234.334.1.735.25 1.186.417.017 0 .017 0 .033.017l-.718.651c-.317-.15-.6-.301-.868-.434a7.589 7.589 0 01-.668-.368 2.731 2.731 0 01-.417-.3c-.1-.084-.134-.15-.1-.217 0 0-.017 0 0 0z" fill="#FE920D"/><path d="M90.302 135.779l1.036-2.588c-.067-.016-.134-.016-.184-.033-.167-.034-.317-.05-.484-.084-.117-.016-.234-.05-.35-.066-.184-.034-.385-.084-.585-.117-.1-.017-.2-.034-.3-.067a39.122 39.122 0 00-.903-.201 2.18 2.18 0 01-.317-.083l-.651-.15-.4-.1c-.201-.051-.418-.101-.618-.167-.134-.034-.268-.067-.418-.117a10.643 10.643 0 00-.701-.184c-.117-.033-.234-.067-.368-.1-.35-.1-.7-.201-1.068-.317a.982.982 0 01-.2-.067c-.301-.084-.602-.184-.919-.284-.05-.017-.084-.017-.117-.033l-.15.367-1.386 3.473-1.386 3.473c3.306 1.035 6.245 1.77 8.6 2.154l.951-2.354.918-2.355zm-7.948 1.937a.746.746 0 11-1.386-.551l1.754-4.375a.745.745 0 111.386.551l-1.754 4.375zm2.772.718a.746.746 0 11-1.386-.551l1.754-4.375a.745.745 0 111.385.551l-1.753 4.375zm2.822.568a.744.744 0 01-.968.417.744.744 0 01-.418-.968l1.753-4.375a.744.744 0 01.969-.417c.384.15.568.584.417.968l-1.753 4.375z" fill="#F36E21"/><path d="M63.803 123.857l.15-.368c-.033-.016-.083-.033-.116-.067-.284-.15-.568-.283-.852-.434-.066-.033-.133-.066-.183-.1-.334-.167-.668-.351-.986-.517-.117-.067-.217-.117-.334-.184-.217-.117-.434-.234-.634-.351a7.34 7.34 0 01-.367-.2c-.184-.1-.385-.217-.568-.317l-.35-.201c-.201-.117-.385-.217-.585-.334-.1-.05-.2-.117-.284-.167-.267-.167-.534-.317-.785-.467-.083-.05-.167-.1-.25-.167a11.79 11.79 0 01-.501-.318l-.3-.2c-.151-.1-.285-.184-.418-.284-.05-.033-.117-.067-.167-.1l-1.036 2.588-.951 2.355-.952 2.354c1.97 1.336 4.608 2.839 7.698 4.391l1.386-3.473 1.385-3.439zm-7.497 2.671a.746.746 0 11-1.386-.551l1.753-4.375a.745.745 0 111.386.551l-1.753 4.375zm2.488 1.42a.745.745 0 11-1.386-.551l1.753-4.375a.745.745 0 111.386.551l-1.753 4.375zm2.471 1.436a.745.745 0 11-1.386-.551l1.754-4.375a.746.746 0 111.386.551l-1.754 4.375z" fill="#FEB05C"/><path d="M82.588 131.388l.15-.368c-.083-.033-.167-.05-.25-.083a18.26 18.26 0 01-.868-.284c-.15-.05-.284-.1-.434-.134-.318-.1-.635-.217-.969-.317-.083-.033-.167-.05-.25-.083-.017 0-.034-.017-.05-.017-.451-.15-.919-.317-1.386-.484l-.451-.15-1.253-.451a4.568 4.568 0 00-.267-.101c-.467-.166-.935-.35-1.402-.534-.167-.067-.318-.117-.485-.184a39.211 39.211 0 01-1.302-.517c-.067-.017-.117-.05-.184-.067-.066-.017-.117-.05-.183-.067-.434-.183-.869-.35-1.303-.534-.167-.067-.317-.134-.484-.2-.468-.201-.918-.384-1.37-.585a1.651 1.651 0 01-.25-.117c-.417-.183-.818-.35-1.219-.534-.15-.067-.283-.134-.434-.2-.45-.201-.885-.401-1.335-.602-.017 0-.034-.016-.05-.016-.084-.034-.168-.084-.251-.117-.317-.15-.618-.284-.919-.434a9.81 9.81 0 00-.417-.201c-.284-.133-.55-.267-.818-.4-.084-.034-.167-.084-.234-.117l-.15.367-1.386 3.473-1.386 3.473c2.755 1.37 5.894 2.772 9.25 4.125a127.204 127.204 0 009.535 3.406l1.386-3.473 1.42-3.473zm-18.768-.768a.745.745 0 11-1.386-.551l1.753-4.375a.746.746 0 111.386.551l-1.753 4.375zm2.521 1.335a.745.745 0 11-1.386-.551l1.754-4.374a.745.745 0 111.386.551l-1.754 4.374zm2.639 1.052a.745.745 0 11-1.386-.551l1.753-4.374a.746.746 0 111.386.551l-1.754 4.374zm2.554 1.219a.746.746 0 11-1.386-.551l1.754-4.374a.745.745 0 111.385.551l-1.753 4.374zm2.705.902a.744.744 0 01-.968.417.744.744 0 01-.418-.968l1.754-4.375a.744.744 0 01.968-.417c.384.15.568.584.418.968l-1.754 4.375zm2.622 1.052a.744.744 0 01-.969.417.744.744 0 01-.417-.968l1.753-4.375a.744.744 0 01.969-.417c.384.15.567.584.417.968l-1.753 4.375zm2.738.785a.745.745 0 11-1.386-.551l1.754-4.375a.744.744 0 01.968-.417c.384.15.568.584.418.968l-1.754 4.375zm17.399-4.242c-.017.067-.067.117-.1.167a2.36 2.36 0 01-.05.05l-.1.101c-.017.016-.05.033-.067.05-.034.033-.084.05-.134.083-.033.017-.05.034-.083.034a.59.59 0 01-.184.066c-.034.017-.05.017-.084.034-.083.033-.166.05-.267.067h-.033c-.117.016-.234.05-.35.05-.034 0-.05 0-.084.016-.1.017-.2.017-.318.034h-.133c-.1 0-.2 0-.3.016h-.652c-.15 0-.3-.016-.45-.033h-.067c-.184-.017-.385-.033-.585-.05h-.05c-.184-.017-.367-.033-.551-.067-.05 0-.1-.016-.167-.016-.15-.017-.317-.051-.484-.067-.067-.017-.134-.017-.184-.034-.067-.016-.15-.016-.217-.033l-1.035 2.588-.952 2.354-.952 2.355c3.223.534 5.31.417 5.66-.468l2.973-7.297zm-6.245 6.897a.745.745 0 11-1.386-.551l1.753-4.375a.745.745 0 111.386.551l-1.753 4.375zm2.755.283a.745.745 0 11-1.386-.551l1.754-4.374a.745.745 0 111.385.551l-1.753 4.374z" fill="#FE920D"/><path d="M96.981 132.039c-.885-2.488-9.55-7.597-20.705-12.072-12.29-4.926-22.926-7.214-23.794-5.11l-.067-.033.067.033-.067-.033.067.033-.05.201v.217c0 .033.016.05.016.083.017.05.017.1.034.15.017.034.017.05.033.084a.78.78 0 00.084.167c.016.033.016.05.033.083.05.084.084.151.15.234 0 .017.017.017.017.034.067.1.134.183.217.283.017.017.034.05.05.067.067.084.134.15.2.234a.442.442 0 01.084.1c.067.067.134.15.217.217l.1.1c.084.084.167.151.25.234l.101.1c.1.101.217.184.334.284l.05.05c.15.117.3.234.45.368.018.016.034.016.034.033.15.117.284.217.451.334.05.033.084.067.134.1.133.1.267.184.4.284a.9.9 0 01.15.117c.118.083.234.15.335.234.133.083.284.183.417.284l.3.2c.168.1.335.217.502.317.083.05.167.1.25.167.25.15.518.317.785.468.1.05.184.117.284.167.183.117.384.217.584.334l.35.2c.184.1.368.217.569.317.116.067.25.134.367.201.2.116.417.233.634.35.117.067.217.117.334.184.318.167.652.351.986.518.066.033.133.066.183.1.284.15.568.284.852.434.117.067.233.117.35.184.268.133.551.267.819.4.133.067.267.134.417.201.3.15.601.284.918.434.1.05.2.1.301.133.434.201.885.401 1.336.602.15.066.284.133.434.2.4.184.801.351 1.219.534.083.034.167.067.25.117.451.2.919.384 1.37.585.166.066.317.133.484.2.434.184.868.351 1.302.534.067.017.117.05.184.067.067.017.117.05.183.067.435.183.869.35 1.303.517.167.067.317.134.484.184.468.184.935.351 1.403.534a4.6 4.6 0 00.267.101l1.252.45.451.151c.468.167.918.317 1.386.484l.3.1c.318.117.652.217.969.317.15.05.284.101.434.134.3.1.585.184.868.284.134.033.25.083.385.117.317.1.617.183.918.284.067.016.134.05.2.066.368.101.718.217 1.069.318.117.033.234.066.367.1.234.067.468.133.702.183.133.034.267.067.417.117.217.05.417.117.618.167l.4.101.652.15c.1.033.217.05.317.083l.902.201c.1.016.2.033.3.066.2.034.401.084.585.117.117.017.233.05.35.067.167.034.334.067.485.084.133.016.267.05.4.066.067.017.134.017.184.034.167.033.317.05.484.067.05 0 .1.016.167.016.184.017.368.05.551.067h.05c.2.017.401.033.585.05h.066c.15.017.301.017.451.034h.651c.1 0 .2 0 .301-.017h.134c.1 0 .217-.017.317-.034.033 0 .05 0 .084-.016.133-.017.25-.034.35-.05h.033c.1-.017.184-.05.268-.067.033-.017.05-.017.083-.033.067-.017.117-.051.184-.067.033-.017.05-.034.083-.034.05-.033.1-.05.134-.083.017-.017.05-.034.067-.05l.1-.1.05-.051c.033-.05.084-.116.1-.167l.067.017-.067-.017c.1-.267.084-.5 0-.751zm-5.176-1.403c-.317.785-2.405.769-5.527.134 2.354.384 3.89.301 4.158-.351.634-1.586-6.312-5.86-15.53-9.567-7.296-2.922-13.825-4.609-16.53-4.392 2.271-.601 9.434 1.152 17.55 4.408 9.417 3.774 16.53 8.149 15.879 9.768zm-23.978-8.298l1.069.133c.1.017.217.034.367.084l.45.15c.184.067.385.167.585.267.2.1.434.234.702.368.267.133.55.3.885.467.334.167.734.351 1.202.568l.818-.735c-.585-.267-1.152-.534-1.72-.801-.568-.284-1.085-.535-1.536-.802a6.068 6.068 0 01-1.035-.701c-.25-.217-.334-.401-.284-.551 0-.017.017-.017.017-.034v-.033c.05-.117.217-.167.517-.167.3 0 .718.05 1.236.167.517.117 1.152.284 1.903.518.752.233 1.587.534 2.522.918l.25-.217c.033-.033.134-.033.3 0 .168.033.368.1.618.2l1.153.468-.067.05.033.017-.334.284c.869.384 1.62.734 2.254 1.052.635.317 1.17.617 1.62.901l-.167-.017c.05.034.1.067.15.084l-.851-.1c-.134-.017-.25-.05-.384-.084a4.411 4.411 0 01-.434-.15c-.134-.05-.267-.117-.451-.2a18.679 18.679 0 00-.585-.284 9.663 9.663 0 00-.718-.351 24.301 24.301 0 00-.885-.417l-.751.684c.584.267 1.169.551 1.737.818a32.69 32.69 0 011.552.802c.451.25.819.484 1.07.701.266.217.366.384.3.518 0 .017-.017.017-.017.033v.034c-.05.133-.234.217-.551.217-.317.016-.735-.034-1.286-.151a19.764 19.764 0 01-1.953-.534c-.769-.234-1.62-.551-2.572-.918l-.284.267c-.033.033-.133.017-.3-.017a3.657 3.657 0 01-.618-.2l-1.152-.468.05-.05-.033-.016.367-.318a52.775 52.775 0 01-2.705-1.252 28.087 28.087 0 01-2.12-1.152l.166.017-.1-.067z" fill="#FEB05C"/><path d="M55.204 121.703l1.035-2.588-.184-.134a.902.902 0 01-.15-.117c-.133-.1-.267-.183-.4-.284-.05-.033-.084-.066-.134-.1-.15-.117-.3-.217-.451-.334-.017-.016-.033-.016-.033-.033-.167-.117-.318-.251-.451-.367l-.05-.051c-.117-.1-.234-.2-.334-.283l-.1-.101c-.084-.083-.167-.15-.25-.233l-.101-.101c-.084-.066-.15-.15-.217-.217a.417.417 0 01-.084-.1c-.066-.083-.133-.15-.2-.234-.017-.016-.033-.05-.05-.066-.084-.101-.15-.201-.217-.284 0-.017-.017-.017-.017-.034-.05-.083-.1-.167-.15-.233-.017-.034-.034-.05-.034-.084-.033-.067-.05-.117-.083-.167-.017-.033-.017-.05-.033-.083a.486.486 0 01-.034-.151c0-.033-.017-.05-.017-.083v-.217c0-.067.017-.134.05-.201l-2.972 7.331c-.35.885 1.086 2.404 3.774 4.241l.952-2.354.935-2.338zm-3.623 1.369a.746.746 0 11-1.386-.551l1.753-4.375a.745.745 0 111.386.551l-1.754 4.375zm2.187 1.753a.746.746 0 11-1.386-.551l1.753-4.374a.746.746 0 111.386.551l-1.753 4.374z" fill="#FE920D"/><path d="M62.618 124.041a.745.745 0 00-.969.417l-1.753 4.375a.746.746 0 101.386.551l1.753-4.375a.744.744 0 00-.417-.968z" fill="#FEC262"/><path d="M65.172 125.276a.746.746 0 00-.968.418l-1.753 4.374a.745.745 0 101.386.551l1.753-4.374a.746.746 0 00-.418-.969zm2.522 1.336a.746.746 0 00-.969.418l-1.753 4.375a.745.745 0 101.386.551l1.753-4.375a.746.746 0 00-.417-.969zm2.621 1.053a.744.744 0 00-.968.417l-1.754 4.375a.744.744 0 00.418.968.744.744 0 00.968-.417l1.754-4.375a.744.744 0 00-.418-.968zm2.571 1.202a.744.744 0 00-.968.417l-1.753 4.391a.745.745 0 101.386.552l1.753-4.375a.77.77 0 00-.418-.985zm19.202 5.409a.745.745 0 00-.968.417l-1.753 4.375a.746.746 0 101.386.551l1.753-4.375a.744.744 0 00-.418-.968z" fill="#FCB316"/><path d="M89.284 133.659a.745.745 0 00-.969.418l-1.753 4.375a.745.745 0 101.386.551l1.753-4.375a.746.746 0 00-.417-.969zm-2.822-.584a.745.745 0 00-.969.417l-1.753 4.375a.746.746 0 101.386.551l1.753-4.375a.744.744 0 00-.417-.968zm-2.772-.702a.746.746 0 00-.968.418l-1.754 4.374a.746.746 0 101.386.551l1.754-4.374a.746.746 0 00-.418-.969z" fill="#FE920D"/><path d="M80.952 131.605a.745.745 0 00-.969.417l-1.753 4.375a.746.746 0 101.386.551l1.753-4.375a.75.75 0 00-.417-.968zm-2.739-.784a.744.744 0 00-.968.417l-1.753 4.375a.744.744 0 00.417.968.744.744 0 00.969-.417l1.753-4.375c.15-.367-.033-.801-.418-.968zm-2.638-1.053a.746.746 0 00-.969.418l-1.753 4.374a.746.746 0 101.386.551l1.753-4.374a.746.746 0 00-.417-.969zm19.286 4.776a.745.745 0 00-.969.417l-1.753 4.375a.746.746 0 101.386.551l1.753-4.375a.744.744 0 00-.417-.968z" fill="#FCB316"/><path d="M60.13 122.604a.745.745 0 00-.969.418l-1.753 4.375a.745.745 0 101.386.551l1.753-4.375a.746.746 0 00-.417-.969zm-2.471-1.435a.744.744 0 00-.969.417l-1.753 4.375a.744.744 0 00.418.968.744.744 0 00.968-.417l1.753-4.375c.15-.367-.033-.801-.417-.968z" fill="#FEC262"/><path d="M55.103 119.465a.746.746 0 00-.968.418l-1.753 4.375a.745.745 0 101.386.551l1.753-4.375a.746.746 0 00-.418-.969zm-2.17-1.736a.746.746 0 00-.968.418l-1.754 4.375a.745.745 0 101.386.551l1.754-4.375a.746.746 0 00-.418-.969z" fill="#FCB316"/><path d="M63.954 123.189c3.356 1.704 6.445 3.09 7.564 3.557.167.067.317.134.484.2.535.218 1.052.435 1.57.635m-17.399-8.817c.768.518 1.62 1.052 2.521 1.586" stroke="#553000" stroke-width=".415" stroke-miterlimit="10" stroke-linecap="round" stroke-linejoin="round"/><path d="M63.37 115.442c-5.945-1.586-10.086-1.92-10.62-.635l-.067-.033.066.033-.066-.033.066.033c-.317.769.618 1.871 2.221 3.106" stroke="#fff" stroke-width=".415" stroke-miterlimit="10" stroke-linecap="round" stroke-linejoin="round"/><path d="M90.854 126.747c-3.674-2.171-8.666-4.575-14.293-6.846-3.59-1.436-7.047-2.655-10.17-3.607" stroke="#553000" stroke-width=".415" stroke-miterlimit="10" stroke-linecap="round" stroke-linejoin="round"/><path d="M96.564 130.937c-.768-.868-2.07-1.887-3.824-3.022" stroke="#fff" stroke-width=".415" stroke-miterlimit="10" stroke-linecap="round" stroke-linejoin="round"/><path d="M93.191 133.392c1.052.133 1.97.15 2.672.067m-16.715-3.774c2.371.818 9.451 3.156 14.043 3.707" stroke="#553000" stroke-width=".415" stroke-miterlimit="10" stroke-linecap="round" stroke-linejoin="round"/><path d="M127.856 24.239c-.801 0-85.325-.268-85.325-.268 3.84-1.536 7.464-3.272 10.069-6.06 1.67-1.788 4.508-2.105 6.412-.552.117.1.25.2.35.317l.1.1a4.041 4.041 0 005.277.368L78.131 8.059a5.01 5.01 0 017.213 1.252l5.66 8.633a3.246 3.246 0 004.025 1.202l4.608-2.004a8.365 8.365 0 019.117 1.637l.234.216a3.961 3.961 0 004.692.568c2.121-1.219 4.759-.885 6.596.752 1.519 1.386 3.89 2.705 7.58 3.924z" fill="#fff"/><path d="M125.201 90.746l.835.668s-.901 4.09-6.412 5.26l-.734-3.34 6.311-2.588z" fill="#084D75"/><path d="M134.485 76.47l-1.887-5.695.985-.117c-2.855-5.343-5.694-16.263-8.115-18.935a3.29 3.29 0 00-.751-.618l-1.837-3.222-3.891-5.961s-2.538-4.325-3.59-6.162c-1.052-1.837-2.087-3.89-2.087-3.89-1.219-1.52-3.874-2.856-6.245-1.37-2.371 1.486-4.492 3.307-2.421 7.882 1.887 4.174 12.506 15.028 14.377 16.931 2.938 6.312 8.95 15.996 8.95 15.996l1.152-.133-2.789 1.436-1.837 2.722.952.05 3.674-1.336 1.219-.05 2.554 4.174.885 3.674.885.217-.183-5.594zM105.163 7.624s-1.135-2.905-1.92-1.185c-.551 1.235.033 4.475 1.52 3.94.667-.283.734-1.285.4-2.755z" fill="#fff"/><path d="M132.548 71.728c-.3.116-.601.217-.901.334-.635.217-.718.166-1.386.333l.968 3.874-.117 3.991.819.4 1.285-4.892-.668-4.04z" fill="#fff"/><path d="M132.916 71.527c-.301.117-.602.217-.902.334-.635.217-.718.167-1.386.334l.968 3.874-.116 3.99.818.401 1.285-4.892-.667-4.041z" fill="#D67345"/><path d="M131.596 75.167l-1.87.684-.067.919 2.121-.267c-.1-.435-.234-.885-.184-1.336z" fill="#D67345"/><path d="M130.377 70.96l-3.239 1.669-1.837 2.738.952.05 3.673-1.335 1.219-.05 2.571 4.174.885 3.673.885.218-.217-5.628-2.17-6.562-2.722 1.052zm-11.471 21.773l8.566 15.362s2.672 1.002 4.559-.217c1.886-1.219 7.463-13.692 7.463-13.692l.318-.769c.684-1.653-.451-3.49-2.221-3.64-.751-.067-1.403-.033-1.653.184-.785.668-3.457 7.68-7.464 8.015l-5.794-9.802c.017-.016-3.44-1.786-3.774 4.559z" fill="#FF8952"/><path d="M135.937 89.827c-.768.651-3.339 7.397-7.213 7.981-.868.835-.668 3.24-.852 4.175-.233 1.185-1.002 2.288-1.903 3.273l1.503 2.705s2.671 1.002 4.558-.217 7.464-13.692 7.464-13.692l1.152-2.806a.897.897 0 00-.651-1.219c-1.319-.284-3.523-.65-4.058-.2z" fill="#0DCC70"/><path d="M137.824 89.878c-3.223 1.336-6.028 11.521-8.466 18.15 0 0 .017 0 .034.017.768 0 1.603-.134 2.321-.601 1.887-1.219 7.464-13.692 7.464-13.692l1.152-2.805a.899.899 0 00-.601-1.203c-.852-.117-.852-.284-1.904.134z" fill="#fff"/><path d="M138.492 90.161c-3.223 1.336-6.028 11.522-8.466 18.151 0 0 .017 0 .034.016.768 0 1.603-.133 2.321-.601 1.887-1.219 7.464-13.692 7.464-13.692l1.152-2.805a.899.899 0 00-.601-1.202c-.852-.117-.852-.284-1.904.133z" fill="#939598"/><path d="M73.772 111.051l-7.08 7.731-.851 1.636s2.505 1.737 4.742 2.505c2.22.768 8.516 2.822 9.334 2.972.818.15 4.408.635 6.145.1l-.25-2.221s-5.377-.384-6.48-1.085c-1.085-.701-4.224-2.839-4.224-2.839l-.635-1.903 3.223-4.659-3.924-2.237z" fill="#fff"/><path d="M74.44 111.051l-7.08 7.731-.851 1.636s2.504 1.737 4.742 2.505c2.22.768 8.516 2.822 9.334 2.972.818.15 4.408.635 6.145.1-.15-1.269-1.153-2.287-2.422-2.421-1.62-.184-3.673-.467-4.29-.885-1.086-.701-4.225-2.839-4.225-2.839l-.635-1.903 3.223-4.659-3.94-2.237z" fill="#FF8952"/><path d="M85.143 123.423c-3.306-.317-8.265-1.202-9.6-5.193-.05.017-.101.033-.168 0-1.87-.785-3.79-1.369-5.744-1.904l-2.037 2.221-1.085 1.971c4.007 2.721 15.93 6.645 20.454 5.243l-.066-.652a1.968 1.968 0 00-1.754-1.686z" fill="#0DCC70"/><path d="M87.13 126.178c-4.641 1.436-16.88-2.571-20.988-5.376l.467-.852c4.442 2.739 15.746 6.362 20.355 5.126.05.134.083.284.1.451l.067.651z" fill="#fff"/><path d="M97.75 99.78c-5.427 3.122-19.854 15.378-19.854 15.378-2.404-1.403-5.176-2.956-5.176-2.956 6.044-9.951 14.81-15.812 14.81-15.812s-2.688-5.962-9.467-16.464c-1.82-2.822-2.755-5.06-3.173-6.83-.016-.05-.016-.083-.033-.133-1.019-4.726 1.82-6.045 1.82-6.045l16.514 6.028s.05.25.167.685c.367 1.553 1.302 5.51 2.321 9.784 1.52 6.412 3.24 13.542 3.49 14.21.45 1.253-1.42 2.154-1.42 2.154z" fill="#1093DF"/><path d="M95.663 83.433l-20.772-10.32-.284-.133.25.016 18.502.668c.35 1.52 1.286 5.477 2.304 9.769z" fill="#084D75"/><path d="M125.769 51.59l-5.677 4.041s-12.59-12.64-14.661-17.215c-2.07-4.575.05-6.396 2.421-7.882 2.371-1.486 5.026-.15 6.245 1.37 0 0 1.035 2.053 2.087 3.89 1.052 1.837 3.59 6.162 3.59 6.162l3.891 5.96 2.104 3.674z" fill="#0DCC70"/><path d="M134.368 70.658l-5.594.668s-8.95-14.393-10.352-19.52c0 0 5.393-2.754 7.814-.083 2.438 2.672 5.294 13.592 8.132 18.935z" fill="#0DCC70"/><path d="M126.036 91.414c-1.837.233-3.156.835-4.107 1.552a6.32 6.32 0 00-1.587 1.754c-.634 1.068-.734 1.953-.734 1.953l-12.607-18.935s-25.948-1.135-30.59-3.106c-5.928-3.456-1.203-11.354-1.203-11.354.268-.484.702-.885 1.236-1.236 2.154-1.386 5.828-1.602 5.828-1.602l32.777 4.558c.952.033 4.124 8.516 5.327 12.64.985 3.373 4.124 10.42 5.243 12.89l.417.886z" fill="#1093DF"/><path d="M113.697 36.612c-.351 2.271-1.236 4.408-2.789 7.08-1.553 2.672-1.937 3.573-1.937 3.573-.701 3.373-1.653 5.343-1.653 5.343-.868 1.403-2.638 4.325-2.889 6.997-.25 2.672-2.304 3.59-2.304 3.59l-11.722-1.42c-3.39-.417-6.829 0-10.018 1.22-1.436.55-2.889 1.152-4.008 1.72-3.139 1.586-2.838 4.29-2.838 4.29-1.036-.467-.284-1.586 0-3.64.284-2.053 3.022-9.233 4.608-13.691.25-.719.484-1.403.668-2.071 1.035-3.507 1.503-6.863 3.657-14.594.751-2.688 1.603-4.876 2.471-6.629 2.104-4.258 3.306-5.827 4.091-5.978 1.102-.217 9.802-2.287 12.139-2.888 1.62-.434 3.624-1.62 3.624-1.62s1.469 4.308 2.471 5.878c1.019 1.553 4.943 4.508 6.228 5.71 1.269 1.17.551 4.86.201 7.13z" fill="#0DCC70"/><path d="M114.665 14.053l-.133.067-2.505 1.152-.251.585-2.688 6.111-7.514-2.671.919-4.075s.4-1.553.935-3.59c.233-.885.484-1.853.751-2.838.685-2.622 1.386-5.26 1.653-6.228C106.4.428 108.186.26 108.186.26c1.069.35 7.782 1.97 8.249 4.191.468 2.238-1.77 9.601-1.77 9.601z" fill="#fff"/><path d="M114.999 14.387l-.133.067-2.505 1.152-.251.584-2.688 6.112-7.514-2.672.919-4.074s.4-1.553.935-3.59c.233-.885.484-1.854.751-2.839.685-2.621 1.386-5.26 1.653-6.228.568-2.137 2.354-2.304 2.354-2.304 1.069.35 7.782 1.97 8.249 4.19.468 2.238-1.77 9.602-1.77 9.602z" fill="#FF8952"/><path d="M114.865 14.455l-2.505 1.152-.25.584-3.64-.534 6.395-1.202z" fill="#D67345"/><path d="M101.825 17.81c.284.451.25.885-.101 1.303-.183.233-.567.45-.5.801.05.284.384.501.601.651.501.334.951.668 1.402 1.069.902.835 1.971 1.52 2.939 2.254.868.668 1.72 1.37 2.655 1.97.217.15.534.218.735.385.066.066.2.233.3.233.1 0 .151-.217.167-.284a1.162 1.162 0 000-.484c-.016-.1-.1-.25-.067-.367.034-.1.201-.134.284-.167.167-.05.334-.15.401-.317.134-.368-.334-.635-.284-.985.034-.251.284-.368.401-.568.083-.134.067-.3.05-.468 0-.067 0-.133-.033-.2-.351-.685-1.253-1.052-1.854-1.47a29.868 29.868 0 00-5.126-2.788 19.602 19.602 0 00-1.386-.518c-.117-.033-.317-.133-.451-.1" fill="#088046"/><path d="M113.279 6.573l-.367 3.84s-.969-.25-1.286-.667" fill="#D67345"/><path d="M76.57 68.707s21.123 0 26.8 1.586c0 0 1.002-.334 1.252 0l.251.334s.668.501 1.67.25l1.002-.25s.5 1.086-.251 1.587c-.751.5 1.67-.501 2.338-.334.668.167.417 1.002.417 1.002l1.002 1.001v1.336l.25 1.253 1.169.5 8.399 14.36" stroke="#0C6DA6" stroke-miterlimit="10"/><path d="M82.698 77.565l8.733 19.285s-.835 1.503-1.252 1.42c-.418-.084-.668 1.336-.668 1.336l-1.586-.585-.334 1.92-1.67 1.587s-6.345 4.258-9.35 9.517" stroke="#084D75" stroke-miterlimit="10" stroke-linejoin="round"/><path d="M78.814 49.587c1.036-3.507 1.503-6.863 3.657-14.594.752-2.688 1.603-4.876 2.471-6.629l8.032-3.223c1.92 14.01-7.347 16.932-14.16 24.446z" fill="#088046"/><path d="M74.941 63.446s3.34-9.769 4.175-12.023c.835-2.254 2.838-10.102 2.922-11.104.083-1.002 4.592-4.341 4.592-4.341L74.94 63.446z" fill="#088046"/><path d="M68.128 66.034c0 .167-.133 4.475-.668 5.844-.534 1.37-2.42 6.813-3.222 7.514l-.969.083.134-1.001 1.636-4.81-2.304 5.093s-.918.134-1.052 0c-.1-.1.568-2.22.902-3.256.1-.334.183-.55.183-.55l.418-1.053-1.336 1.754-.551-.635.217-1.169-.584-.05v-1.085l.467-1.47s.885-3.974 1.92-5.426c1.036-1.453 4.81.217 4.81.217z" fill="#FF8952"/><path d="M67.427 66.335s1.136 2.17 1.336 3.222c.2 1.052-.25 3.14-.05 4.091.2.952.217.969.217.969l-.968.05s-.835-2.004-.885-4.475c-.05-2.472.35-3.857.35-3.857z" fill="#FF8952"/><path d="M7.816 119.9c2.405-.718 8.616-.434 15.746.802 9.017 1.569 16.114 4.107 15.83 5.66-.117.651-1.486 1.019-3.69 1.119 2.955-.017 4.825-.401 4.959-1.169.284-1.586-6.98-4.174-16.197-5.794-7.915-1.386-14.71-1.603-16.648-.618z" fill="#F36E21"/><path d="M21.591 122.306c.1.067.251.117.435.183.183.067.417.134.684.201.267.067.551.15.868.217l.485-.668a27.196 27.196 0 00-1.152-.15 8.26 8.26 0 00-.819-.05c-.217 0-.367.016-.467.033-.084.017-.134.05-.15.083 0 .051.033.101.116.151zm5.662 2.319c-.017-.05-.05-.1-.134-.15-.1-.067-.25-.117-.45-.184a9.652 9.652 0 00-.702-.2c-.267-.067-.568-.15-.885-.217l-.534.734c.868.134 1.536.201 2.004.184.4 0 .65-.067.7-.167zm1.285-1.903c.568.15 1.052.301 1.486.451l.167-.017a19.877 19.877 0 00-1.636-.501 32.74 32.74 0 00-2.22-.517l-.05.05c.867.183 1.619.35 2.253.534zm-6.278 1.987l-.268.367h.034l.267-.367h-.034zm4.893-.885a25.52 25.52 0 011.553.417c.45.151.818.284 1.102.418.25.133.367.25.367.384 0-.017.017-.017.017-.033.016-.134-.1-.268-.384-.418a7.648 7.648 0 00-1.102-.417 20.286 20.286 0 00-1.553-.418c-.568-.133-1.152-.267-1.72-.401l-.034.051c.585.133 1.17.267 1.754.417z" fill="#FEB05C"/><path d="M21.575 122.354c.1.067.25.117.434.184.184.067.418.134.685.2.267.067.551.151.868.217l.535-.718h-.034l-.484.668c-.317-.066-.601-.15-.868-.217a9 9 0 01-.685-.2 4.305 4.305 0 01-.434-.184c-.067-.05-.117-.083-.134-.133l-.016.016c-.017.05.033.117.133.167zm-2.605-.884c.267-.067.651-.084 1.152-.084.501 0 1.102.034 1.82.117a27.69 27.69 0 012.438.351l.184-.251c.017-.033.117-.05.267-.05.15 0 .35.017.601.067l1.102.2.05-.05-1.135-.2a2.869 2.869 0 00-.601-.067c-.15 0-.25.017-.267.05l-.184.251a39.293 39.293 0 00-2.438-.351c-.718-.067-1.32-.1-1.82-.117-.5 0-.885.034-1.152.084-.267.066-.418.15-.434.25v.034c.033-.101.167-.167.417-.234zm8.282 3.172v-.033c-.05.116-.3.166-.718.166-.467 0-1.135-.066-2.003-.183l-.05.067c.884.133 1.552.2 2.02.2.484-.017.735-.084.751-.217zm-8.465-1.252c.134.017.284.033.434.05.184.033.367.083.584.134.2.066.435.133.702.2.267.083.55.167.885.25.334.084.734.184 1.202.284l.634-.885h-.033l-.601.818c-.468-.1-.868-.183-1.202-.283a12.328 12.328 0 01-.885-.251 13.143 13.143 0 00-1.286-.334c-.15-.033-.3-.05-.434-.05a1.086 1.086 0 00-.334 0l-.985.084.15.05.835-.067h.334z" fill="#FEB05C"/><path d="M19.588 124.108c.835.217 1.72.417 2.688.601h.034l-.267.367-.05.05 1.135.201c.234.05.434.067.601.067.15 0 .25-.017.267-.051l.2-.283c.936.15 1.77.267 2.505.334.735.066 1.353.1 1.87.1.518 0 .902-.034 1.186-.117.284-.067.434-.167.45-.301v-.033c0-.117-.116-.251-.366-.384a7.754 7.754 0 00-1.103-.418c-.467-.15-.985-.283-1.552-.417-.585-.134-1.17-.284-1.754-.417l.034-.051.55-.751c.318.067.619.134.87.2.266.067.5.134.717.184.217.05.417.1.584.15a3.2 3.2 0 00.435.101c.167.033.317.05.434.05h.367l.785-.067-.15-.05a20.14 20.14 0 00-1.486-.451 46.444 46.444 0 00-2.255-.534l.05-.051.25-.333h-.033l-1.101-.201a2.869 2.869 0 00-.602-.067c-.15 0-.25.017-.267.05l-.184.251a39.304 39.304 0 00-2.437-.351c-.718-.067-1.32-.1-1.82-.117-.501 0-.885.034-1.152.084-.251.05-.385.133-.418.217 0 .017-.017.017-.017.033-.033.151.1.301.351.434.267.151.618.301 1.069.435.45.15.968.283 1.536.434l1.703.401h.033l-.634.884c-.468-.1-.868-.183-1.202-.283a12.328 12.328 0 01-.885-.251c-.267-.083-.501-.15-.702-.2-.2-.05-.4-.1-.584-.134-.15-.033-.3-.05-.434-.05a1.086 1.086 0 00-.334 0l-.835.067-.167.017c.534.217 1.252.434 2.087.651zm4.943.484l.534-.735c.317.084.618.151.885.217.267.067.5.134.701.201.2.067.351.133.451.183.084.051.134.101.134.151v.033c-.017.134-.267.201-.735.201-.468 0-1.135-.067-2.02-.201l.05-.05zm-3.073-2.421c.017-.034.067-.067.15-.084.1-.033.268-.033.468-.033.217 0 .484.017.818.05.318.033.702.084 1.153.15h.033l-.534.718c-.318-.066-.602-.15-.869-.217a9 9 0 01-.684-.2 4.305 4.305 0 01-.434-.184c-.1-.067-.15-.117-.134-.167l.033-.033z" fill="#FE920D"/><path d="M40.293 131.222l.451-2.538h-.184c-.15 0-.3.016-.467.016h-1.169c-.267 0-.551 0-.852-.016h-.3c-.2 0-.401-.017-.618-.017-.117 0-.25-.017-.384-.017-.2 0-.4-.017-.601-.033-.134 0-.267-.017-.384-.017a8.37 8.37 0 00-.668-.033c-.117 0-.234-.017-.35-.017-.335-.017-.685-.05-1.02-.084-.066 0-.133-.016-.2-.016-.284-.017-.584-.05-.885-.084-.033 0-.083 0-.117-.016l-.066.35-.601 3.39-.602 3.39c3.173.3 5.978.4 8.165.3l.401-2.304.451-2.254zm-6.796 3.272a.687.687 0 11-1.352-.25l.751-4.291a.687.687 0 111.353.25l-.752 4.291zm2.638.117a.687.687 0 11-1.352-.25l.751-4.292a.688.688 0 011.353.251l-.752 4.291zm2.655-.033a.687.687 0 11-1.352-.251l.751-4.291a.687.687 0 111.353.251l-.752 4.291z" fill="#F36E21"/><path d="M14.128 125.527l.067-.351c-.034-.016-.084-.016-.117-.033-.284-.083-.568-.15-.852-.234a2.25 2.25 0 01-.184-.05 15.985 15.985 0 01-.985-.284c-.117-.033-.217-.066-.334-.1-.217-.067-.434-.117-.634-.184-.134-.033-.25-.083-.367-.116-.2-.067-.385-.117-.568-.184-.117-.033-.234-.084-.368-.117-.2-.067-.4-.134-.584-.2-.1-.034-.2-.067-.284-.101-.267-.1-.534-.183-.801-.283a4.598 4.598 0 00-.268-.101c-.183-.066-.35-.133-.517-.2-.1-.033-.2-.083-.3-.117-.151-.05-.285-.117-.435-.167-.05-.016-.117-.05-.167-.067l-.45 2.538-.401 2.305-.418 2.354c2.02.835 4.692 1.687 7.781 2.488l.601-3.39.585-3.406zm-6.245 3.841a.688.688 0 01-.802.551.676.676 0 01-.55-.802l.75-4.291a.687.687 0 111.353.25l-.751 4.292zm2.504.818a.687.687 0 11-1.352-.251l.751-4.274a.687.687 0 111.353.25l-.752 4.275zm2.505.818a.688.688 0 11-1.352-.251l.751-4.291a.688.688 0 111.353.251l-.752 4.291z" fill="#FEB05C"/><path d="M32.512 128.75l.067-.351c-.084 0-.167-.017-.25-.017-.285-.033-.552-.05-.835-.083l-.418-.05c-.3-.034-.618-.067-.935-.101-.083-.016-.167-.016-.25-.033h-.05c-.435-.05-.886-.117-1.336-.167l-.434-.05c-.401-.05-.802-.117-1.22-.167-.083-.017-.166-.017-.25-.033-.45-.067-.902-.134-1.352-.217-.15-.034-.318-.051-.468-.084-.417-.067-.851-.134-1.286-.217-.05-.017-.117-.017-.167-.033-.066-.017-.116-.017-.167-.034-.434-.083-.851-.15-1.269-.234a4.768 4.768 0 00-.467-.083c-.451-.084-.902-.167-1.353-.267a22.18 22.18 0 00-.25-.05l-1.202-.251c-.15-.033-.284-.067-.418-.1-.45-.1-.885-.2-1.319-.301-.017 0-.033 0-.05-.016-.083-.017-.167-.034-.234-.05-.3-.067-.618-.151-.918-.217a15.734 15.734 0 00-.418-.101c-.267-.066-.55-.133-.818-.2-.083-.017-.167-.033-.234-.067l-.066.351-.601 3.39-.602 3.389c2.755.718 5.845 1.386 9.134 1.954 3.29.568 6.429.985 9.25 1.252l.602-3.389.584-3.373zm-17.082 2.888a.687.687 0 11-1.352-.25l.751-4.291a.688.688 0 111.353.25l-.752 4.291zm2.538.718a.687.687 0 11-1.352-.25l.751-4.291a.688.688 0 111.353.25l-.752 4.291zm2.572.451a.687.687 0 11-1.353-.25l.752-4.292a.688.688 0 011.352.251l-.751 4.291zm2.538.601a.687.687 0 11-1.353-.25l.752-4.292a.688.688 0 011.352.251l-.751 4.291zm2.605.301a.687.687 0 01-.802.551.676.676 0 01-.55-.802l.75-4.291a.687.687 0 111.353.25l-.751 4.292zm2.571.451a.688.688 0 01-1.352-.251l.751-4.291a.688.688 0 011.353.25l-.752 4.292zm2.622.183a.687.687 0 11-1.353-.25l.752-4.291a.687.687 0 111.352.25l-.751 4.291zm14.878-7.147a2.068 2.068 0 01-.05.167c0 .017-.017.034-.034.05a.488.488 0 01-.083.117l-.05.05-.1.101c-.017.016-.034.033-.067.05l-.15.1c-.017.016-.05.033-.067.05-.067.033-.15.083-.234.117-.017 0-.017.016-.033.016-.1.051-.2.084-.3.117-.018 0-.051.017-.068.017-.083.033-.183.05-.267.084-.033.016-.083.016-.117.033-.083.017-.183.05-.267.067-.05.016-.083.016-.133.033-.1.017-.2.034-.318.067-.05 0-.083.017-.133.017-.134.016-.267.05-.401.066-.017 0-.05 0-.067.017-.167.017-.35.05-.534.067h-.05a56.44 56.44 0 01-.518.05c-.05 0-.1 0-.15.017-.15.016-.3.016-.451.033-.05 0-.117 0-.184.017-.066 0-.133 0-.2.016l-.45 2.539-.402 2.304-.4 2.304c3.005-.133 4.859-.634 5.009-1.503l1.269-7.18zm-4.308 7.414a.687.687 0 11-1.353-.25l.752-4.292a.687.687 0 111.352.251l-.751 4.291zm2.538-.284a.687.687 0 11-1.353-.25l.752-4.292a.688.688 0 011.352.251l-.751 4.291z" fill="#FE920D"/><path d="M2.189 119.583a.34.34 0 000 .183c0 .017 0 .034.017.05 0 .051.016.084.033.134 0 .017.017.05.033.067a.52.52 0 00.067.133c.017.017.034.051.05.067.034.05.067.1.1.134.017.017.034.05.05.067.05.066.117.116.184.183l.017.017c.083.067.167.15.25.217a.23.23 0 00.067.05c.067.05.15.117.234.167.033.017.067.05.1.067.084.05.15.1.234.15.033.017.083.05.117.067.083.05.183.1.267.167.033.017.083.05.117.067.117.067.234.133.367.2.017.017.034.017.067.034.15.083.317.166.484.233.017 0 .034.017.05.017.15.067.3.15.468.217.05.017.1.033.133.067.134.067.268.117.418.184.05.016.117.05.167.066l.35.151c.134.05.284.116.435.167.1.033.2.083.3.116.167.067.35.134.518.201.083.033.167.067.267.1.267.1.534.184.801.284.1.033.2.067.284.1.2.067.384.134.585.2.117.034.233.084.367.117.184.067.384.117.568.184.117.033.25.083.367.117.217.067.418.133.635.184.117.033.217.066.334.1.317.1.65.183.985.284.066.016.133.033.183.05.284.083.568.15.852.233.117.034.234.067.35.084.268.067.535.134.819.2.133.034.267.067.417.1.3.067.601.151.919.218.1.016.2.05.284.066.434.101.868.201 1.319.301.133.033.284.067.417.1l1.202.251.25.05c.452.083.902.183 1.353.267.15.033.318.067.468.083.417.084.851.151 1.269.234.05.017.117.017.167.033.05.017.117.017.167.034.434.067.851.15 1.285.217.168.033.318.05.468.083.45.067.918.151 1.353.217.083.017.167.017.25.034.418.067.818.117 1.219.167l.434.05c.45.067.902.117 1.336.167.1.017.2.017.3.033l.936.101.417.05c.284.033.568.05.835.083.117.017.25.017.367.033.3.034.585.051.885.084.067 0 .134.017.2.017.351.033.685.05 1.02.083.116 0 .233.017.35.017.217.017.45.033.668.033.133 0 .267.017.384.017.2.017.4.017.6.033.134 0 .251.017.385.017.2 0 .417.017.618.017h.3c.284 0 .568.016.852.016h1.169c.15 0 .317-.016.467-.016.134 0 .25-.017.384-.017.067 0 .117 0 .184-.017.15-.016.3-.016.45-.033.05 0 .101 0 .151-.017l.518-.05h.05c.184-.017.367-.033.534-.067.017 0 .05 0 .067-.016.133-.017.284-.034.4-.067.05 0 .084-.017.134-.017.1-.017.217-.033.318-.067.05-.016.083-.016.133-.033.1-.017.184-.05.267-.067.034-.016.084-.016.117-.033.1-.034.184-.05.267-.084.017 0 .05-.016.067-.016.117-.034.217-.084.3-.117.017 0 .017 0 .034-.017.084-.033.167-.083.234-.117.017-.017.05-.033.067-.05l.15-.1c.017-.017.05-.034.067-.05l.1-.1.05-.05c.033-.034.05-.084.083-.117.017-.017.017-.034.034-.05a.325.325 0 00.05-.167h.067-.067c.35-2.071-9.1-5.444-21.123-7.548-12.089-2.12-22.124-2.154-22.508-.083l-.067-.017.067.017-.067-.017.067.017zm38.488 6.729c-.134.768-2.02 1.152-4.96 1.169 2.205-.1 3.574-.468 3.691-1.119.267-1.553-6.813-4.074-15.83-5.661-7.146-1.252-13.34-1.519-15.745-.801 1.937-.968 8.733-.768 16.664.618 9.2 1.603 16.464 4.208 16.18 5.794zm-23.21-2.906l.985-.083h.334c.134.017.284.033.434.05.184.033.368.084.585.134.2.066.434.133.701.2.267.084.551.167.885.251.334.083.735.183 1.202.283l.602-.818-1.704-.401a17.263 17.263 0 01-1.536-.434c-.45-.15-.801-.284-1.068-.434-.268-.15-.384-.3-.351-.434 0-.017.017-.017.017-.033v-.034c.016-.117.167-.2.434-.25.267-.067.65-.084 1.152-.084.5 0 1.102.034 1.82.117a27.71 27.71 0 012.438.351l.184-.251c.016-.033.116-.05.267-.05.15 0 .35.017.6.067l1.136.2-.05.051h.034l-.251.333c.868.184 1.603.351 2.22.518.635.167 1.17.334 1.637.501l-.167.017.15.05-.784.067c-.117 0-.234.016-.368 0a2.34 2.34 0 01-.434-.05 3.157 3.157 0 01-.434-.101 9.71 9.71 0 00-.584-.15c-.217-.05-.451-.117-.718-.184a25.716 25.716 0 00-.869-.2l-.55.751c.584.134 1.151.268 1.72.401a24.76 24.76 0 011.552.418c.45.133.818.283 1.102.417.267.134.4.284.384.417 0 .017-.017.017-.017.034v.033c-.016.134-.166.234-.45.301a5.188 5.188 0 01-1.186.117c-.5 0-1.135-.034-1.87-.1a38.017 38.017 0 01-2.505-.334l-.2.283c-.017.034-.117.051-.267.051-.15 0-.35-.017-.601-.067l-1.136-.201.05-.05h-.033l.267-.367c-.952-.184-1.853-.401-2.688-.601a29.418 29.418 0 01-2.138-.635l.167-.016c0-.017-.05-.034-.1-.051z" fill="#FEB05C"/><path d="M5.963 125.226l.45-2.538c-.066-.033-.116-.05-.183-.083-.05-.017-.117-.05-.167-.067-.134-.067-.284-.117-.417-.184a.32.32 0 01-.134-.067c-.167-.066-.317-.15-.468-.217-.016 0-.033-.016-.05-.016a11.98 11.98 0 00-.484-.234c-.017-.017-.033-.017-.067-.033a7.288 7.288 0 01-.367-.201c-.033-.017-.083-.05-.117-.067-.1-.05-.184-.1-.267-.167-.033-.016-.084-.05-.117-.066-.083-.051-.167-.101-.234-.151-.033-.016-.066-.05-.1-.066-.083-.051-.15-.117-.234-.167-.016-.017-.05-.034-.066-.051-.084-.066-.167-.15-.25-.217l-.018-.016c-.066-.067-.116-.134-.183-.184-.017-.017-.034-.05-.05-.067-.034-.05-.067-.1-.1-.133-.017-.017-.034-.05-.05-.067a.502.502 0 01-.067-.134c-.017-.016-.017-.05-.034-.067-.017-.05-.033-.083-.033-.133 0-.017-.017-.034-.017-.05v-.184l-1.252 7.147c-.15.868 1.436 1.97 4.208 3.105l.4-2.304.468-2.321zm-3.006 1.937a.687.687 0 11-1.352-.25l.751-4.292a.688.688 0 011.353.251l-.752 4.291zm2.305 1.152a.687.687 0 11-1.353-.25l.751-4.291a.687.687 0 111.353.25l-.751 4.291z" fill="#FE920D"/><path d="M13.093 125.928a.696.696 0 00-.802.551l-.75 4.291a.695.695 0 00.55.801.696.696 0 00.802-.551l.751-4.291a.687.687 0 00-.551-.801z" fill="#FEC262"/><path d="M15.631 126.562a.696.696 0 00-.801.551l-.752 4.291a.697.697 0 00.551.802.697.697 0 00.802-.551l.751-4.292a.687.687 0 00-.55-.801zm2.521.719a.695.695 0 00-.8.551l-.752 4.291a.695.695 0 00.55.801.696.696 0 00.802-.551l.752-4.291a.656.656 0 00-.552-.801zm2.572.449a.696.696 0 00-.802.551l-.751 4.291a.697.697 0 00.551.802.696.696 0 00.801-.551l.752-4.291a.657.657 0 00-.551-.802zm2.555.602a.697.697 0 00-.802.551l-.751 4.292a.696.696 0 00.55.801.696.696 0 00.802-.551l.752-4.291a.688.688 0 00-.551-.802zm18.351 1.203a.696.696 0 00-.802.551l-.752 4.291a.697.697 0 00.551.802.697.697 0 00.802-.551l.751-4.292a.687.687 0 00-.55-.801z" fill="#FCB316"/><path d="M38.974 129.501a.696.696 0 00-.802.551l-.751 4.291a.697.697 0 00.551.802.696.696 0 00.801-.551l.752-4.291a.664.664 0 00-.551-.802zm-2.654.017a.696.696 0 00-.802.551l-.751 4.291a.695.695 0 00.55.801.696.696 0 00.802-.551l.752-4.291a.671.671 0 00-.552-.801zm-2.623-.1a.696.696 0 00-.801.551l-.751 4.291a.695.695 0 00.55.801.696.696 0 00.802-.551l.752-4.291a.687.687 0 00-.552-.801z" fill="#FE920D"/><path d="M31.076 129.251a.696.696 0 00-.801.551l-.752 4.291a.697.697 0 00.552.802.697.697 0 00.801-.551l.751-4.292a.696.696 0 00-.55-.801zm-2.622-.184a.696.696 0 00-.801.551l-.752 4.292a.696.696 0 00.551.801.696.696 0 00.802-.551l.751-4.291a.696.696 0 00-.55-.802zm-2.571-.451a.696.696 0 00-.802.551l-.75 4.291a.695.695 0 00.55.801.696.696 0 00.802-.551l.751-4.291a.695.695 0 00-.551-.801zm18.284.635a.696.696 0 00-.801.551l-.752 4.291a.697.697 0 00.551.802.697.697 0 00.802-.551l.751-4.292a.664.664 0 00-.55-.801z" fill="#FCB316"/><path d="M10.572 125.11a.696.696 0 00-.802.551l-.751 4.291a.696.696 0 00.55.802.696.696 0 00.802-.551l.752-4.292a.664.664 0 00-.551-.801zm-2.505-.818a.696.696 0 00-.802.551l-.751 4.291a.695.695 0 00.55.801.696.696 0 00.802-.551l.752-4.291a.687.687 0 00-.551-.801z" fill="#FEC262"/><path d="M5.446 123.239a.697.697 0 00-.802.551l-.751 4.292a.696.696 0 00.55.801.696.696 0 00.802-.551l.752-4.291a.688.688 0 00-.551-.802zm-2.289-1.152a.697.697 0 00-.801.551l-.751 4.292a.696.696 0 00.55.801.696.696 0 00.802-.551l.751-4.291a.688.688 0 00-.55-.802z" fill="#FCB316"/><path d="M102.409 35.727c-10.42 10.069-18.869 12.857-22.96 18.701m18.535-8.432c-5.844 5.176-16.147 7.53-17.867 11.104m5.343.585c8.584-7.664 11.873-6.713 16.198-9.852" stroke="#088046" stroke-width=".207" stroke-miterlimit="10"/><path d="M110.223 5.422a.418.418 0 100-.836.418.418 0 000 .836zm4.842 1.534a.3.3 0 100-.602.3.3 0 000 .602z" fill="#000"/><path d="M105.13 9.812l-1.386 2.171c.234-.885.484-1.853.752-2.838l.634.667z" fill="#D67345"/><path d="M105.164 7.926s-1.019-2.589-1.72-1.052c-.501 1.102.016 3.99 1.352 3.523.601-.267.668-1.152.368-2.471z" fill="#FF8952"/><path d="M111.859 19.263l-10.553-3.89-.634 4.057 11.004 4.141.183-4.308zM73.02 48.3s14.36-11.287 16.581-13.19c2.204-1.904 6.078-5.578 2.472-12.44 0 0-1.152-2.138-8.065 3.089-6.896 5.21-19.186 16.096-19.987 16.514-.802.417-1.019 24.161-1.019 24.161l6.529 1.286s.634-5.393 1.452-8.315c1.57-5.644 1.57-5.56 2.038-11.104z" fill="#0DCC70"/><path d="M4.192 121.887c-1.252-.785-1.92-1.536-1.803-2.187.4-2.355 10.653-2.555 22.86-.451 1.886.317 3.706.684 5.426 1.068m-13.892 6.029c-2.872-.684-5.444-1.436-7.597-2.204m11.421 3.038a149.86 149.86 0 01-3.84-.835" stroke="#fff" stroke-width=".415" stroke-miterlimit="10" stroke-linecap="round" stroke-linejoin="round"/><path d="M42.58 123.974c2.706 1.202 4.225 2.387 4.058 3.356-.334 1.97-7.547 2.421-17.048 1.302" stroke="#553000" stroke-width=".415" stroke-miterlimit="10" stroke-linecap="round" stroke-linejoin="round"/><path d="M35.785 121.62c1.503.417 2.889.868 4.125 1.302" stroke="#fff" stroke-width=".415" stroke-miterlimit="10" stroke-linecap="round" stroke-linejoin="round"/><path d="M137.757 96.974c16.965-7.497 33.479-7.38 36.836.234 3.372 7.614-7.681 19.887-24.646 27.384s-33.479 7.381-36.835-.234c-3.373-7.614 7.681-19.886 24.645-27.384z" fill="#fff"/><path d="M113.179 124.726l66.523-14.661c3.323 7.614-7.58 19.887-24.345 27.384-16.764 7.497-33.078 7.381-36.401-.234l-5.777-12.489z" fill="#fff"/><path d="M127.187 139.018l53.767-30.072-5.327-9.768a5.327 5.327 0 00-7.213-2.204l-54.435 28.169 5.978 11.671c1.403 2.605 4.642 3.59 7.23 2.204z" fill="#FE920D"/><path d="M138.191 97.625c16.781-7.414 33.112-7.314 36.451.233 3.323 7.548-7.597 19.67-24.378 27.084-16.781 7.414-33.112 7.314-36.451-.234-3.34-7.53 7.58-19.67 24.378-27.083z" fill="#FE920D"/><path d="M144.269 108.996c16.965-7.498 33.479-7.381 36.835.233 3.373 7.615-7.681 19.887-24.646 27.385-16.964 7.497-33.478 7.38-36.835-.234-3.373-7.614 7.681-19.887 24.646-27.384z" fill="#F36E21"/><path d="M175.761 113.137c-5.176-4.825-18.818-4.174-32.794 2.004-5.861 2.588-10.971 5.777-14.911 9.15 3.523-4.458 9.701-9.016 17.332-12.389 13.826-6.112 27.284-6.028 30.022.183.167.334.284.685.351 1.052zm-2.872 8.566c-3.49 4.542-9.751 9.234-17.566 12.69-13.826 6.112-27.284 6.028-30.022-.183a5.612 5.612 0 01-.485-2.288c.05.134.101.284.167.418 2.889 6.545 17.049 6.629 31.609.2 6.779-2.989 12.457-6.88 16.297-10.837z" fill="#E65500"/><path d="M180.236 108.462c-2.154-3.473-7.398-5.11-14.193-4.892h-.184c-4.442.166-9.535 1.118-14.861 2.855-.217.067-.451.15-.668.217a73.594 73.594 0 00-6.195 2.404c-4.575 2.021-8.716 4.392-12.256 6.93-.2.133-.384.284-.584.417-7.731 5.678-12.423 12.106-12.206 17.232.016.368.05.735.133 1.102.034.217.084.435.151.635l-5.277-10.286h.017a6.967 6.967 0 01-.785-2.889 6.824 6.824 0 010-.834c.25-5.026 4.976-11.188 12.507-16.615.2-.133.384-.284.584-.417 3.406-2.388 7.347-4.625 11.705-6.546a74.051 74.051 0 016.829-2.621c.234-.067.451-.15.685-.217 5.41-1.703 10.553-2.572 14.978-2.605h.2c6.729-.033 11.772 1.853 13.475 5.644.401.384.752.835 1.019 1.336l4.926 9.15z" fill="#FE920D"/><g opacity=".7"><path opacity=".7" d="M114.063 125.092c-.067-.15-.134-.283-.2-.417a6.947 6.947 0 01-.585-2.471 6.84 6.84 0 010-.835l5.778 12.289c.016.368.05.735.133 1.102.034.218.084.435.15.635l-5.276-10.303z" fill="#FE920D"/><path opacity=".7" d="M166.042 103.586h-.183c-4.442.167-9.535 1.119-14.861 2.855-.217.067-.451.151-.668.217l-5.393-11.488c.233-.067.45-.15.684-.217 5.41-1.703 10.553-2.571 14.978-2.605h.2l5.243 11.238z" fill="#F36E21"/><path opacity=".7" d="M180.236 108.462c-2.154-3.473-7.397-5.11-14.193-4.892h-.183l-5.294-11.238h.201c6.729-.033 11.772 1.853 13.475 5.644.401.384.751.835 1.018 1.336l4.976 9.15z" fill="#FE920D"/><path opacity=".7" d="M131.862 115.992c-.2.134-.384.284-.584.417-7.731 5.678-12.423 12.106-12.206 17.232.017.368.05.735.134 1.102l-5.895-12.556a7.267 7.267 0 010-.835c.251-5.026 4.976-11.187 12.507-16.614.2-.134.384-.284.584-.418l5.46 11.672z" fill="#FEB05C"/><path opacity=".7" d="M150.982 106.442c-.217.067-.451.15-.668.217a73.594 73.594 0 00-6.195 2.404c-4.575 2.021-8.716 4.392-12.256 6.93-.2.133-.384.284-.584.417l-5.477-11.671c.2-.134.384-.284.584-.418 3.407-2.388 7.347-4.625 11.705-6.545a74.067 74.067 0 016.83-2.622c.233-.067.45-.15.684-.217l5.377 11.505z" fill="#FE920D"/></g><path d="M175.211 102.952a.899.899 0 00.4-1.219l-2.588-5.176a.899.899 0 00-1.219-.4.898.898 0 00-.4 1.218l2.588 5.177c.217.434.768.617 1.219.4zm-2.906-.968a.899.899 0 00.401-1.219l-2.588-5.177a.899.899 0 00-1.219-.4.899.899 0 00-.401 1.219l2.588 5.176a.895.895 0 001.219.401zm-3.206-.602a.899.899 0 00.401-1.219l-2.588-5.176a.899.899 0 00-1.219-.4.899.899 0 00-.401 1.218l2.588 5.176c.217.434.768.618 1.219.401zm-3.457-.267a.899.899 0 00.401-1.219l-2.588-5.176a.899.899 0 00-1.219-.401.899.899 0 00-.401 1.219l2.588 5.176a.894.894 0 001.219.401zm-3.656.083a.899.899 0 00.401-1.218l-2.588-5.177a.9.9 0 00-1.219-.4.899.899 0 00-.401 1.218l2.588 5.177a.912.912 0 001.219.4zm-3.79.401a.9.9 0 00.401-1.219l-2.588-5.176a.9.9 0 00-1.219-.4.899.899 0 00-.401 1.218l2.588 5.176a.894.894 0 001.219.401zm-3.891.735a.899.899 0 00.401-1.219l-2.588-5.176a.899.899 0 00-1.219-.401.899.899 0 00-.401 1.219l2.588 5.176c.217.434.768.618 1.219.401zm-3.958 1.035a.899.899 0 00.401-1.219l-2.588-5.176a.899.899 0 00-1.219-.4.899.899 0 00-.401 1.218l2.588 5.176a.928.928 0 001.219.401zm-3.94 1.336a.9.9 0 00.401-1.219l-2.589-5.176a.898.898 0 00-1.218-.401.899.899 0 00-.401 1.219l2.588 5.176c.217.434.768.618 1.219.401zm-3.907 1.619a.898.898 0 00.4-1.218l-2.588-5.177a.899.899 0 00-1.219-.4.898.898 0 00-.4 1.218l2.588 5.177a.922.922 0 001.219.4zm-3.807 1.904a.899.899 0 00.401-1.219l-2.588-5.176a.899.899 0 00-1.219-.401.899.899 0 00-.401 1.219l2.588 5.176a.894.894 0 001.219.401zm-3.674 2.171a.899.899 0 00.401-1.219l-2.588-5.176a.899.899 0 00-1.219-.401.899.899 0 00-.401 1.219l2.588 5.176a.899.899 0 001.219.401zm-3.473 2.454a.9.9 0 00.4-1.219l-2.588-5.176a.899.899 0 00-1.219-.401.9.9 0 00-.401 1.219l2.589 5.176c.217.434.768.618 1.219.401zm-3.223 2.689a.9.9 0 00.401-1.219l-2.589-5.176a.898.898 0 00-1.218-.401.899.899 0 00-.401 1.219l2.588 5.176c.217.434.768.618 1.219.401zm-2.955 2.939a.9.9 0 00.401-1.219l-2.589-5.176a.898.898 0 00-1.219-.401.9.9 0 00-.4 1.219l2.588 5.176c.217.434.768.618 1.219.401zm-2.605 3.172a.899.899 0 00.401-1.219l-2.588-5.176a.899.899 0 00-1.219-.401.899.899 0 00-.401 1.219l2.588 5.176c.217.434.768.618 1.219.401zm-2.22 3.39a.9.9 0 00.4-1.219l-2.588-5.176a.899.899 0 00-1.219-.401.898.898 0 00-.4 1.219l2.588 5.176a.894.894 0 001.219.401zm-1.804 3.606a.9.9 0 00.401-1.219l-2.588-5.176a.9.9 0 00-1.219-.401.899.899 0 00-.401 1.219l2.588 5.177a.898.898 0 001.219.4z" fill="#FCB316"/><path d="M141.214 129.401a123.36 123.36 0 006.662-1.703c.034 0 .051-.017.084-.017l-.167 1.102-.033.184 2.755-.852a9.804 9.804 0 001.386-.534c.35-.184.517-.318.534-.401l.133-.868c2.238-.718 4.225-1.42 5.928-2.104 1.72-.685 3.139-1.303 4.258-1.904 1.135-.584 1.97-1.118 2.505-1.586.534-.468.751-.868.651-1.202 0-.034-.033-.05-.05-.067-.134-.284-.551-.418-1.269-.418-.768 0-1.753.101-2.939.318-1.186.2-2.505.484-3.957.835-1.453.35-2.906.701-4.375 1.085l.033-.167.368-2.304a52.092 52.092 0 012.187-.551c.651-.151 1.269-.284 1.803-.401.551-.117 1.036-.217 1.453-.317.417-.1.785-.184 1.085-.284a10.05 10.05 0 001.019-.367c.267-.117.534-.268.801-.418l1.67-1.035c-.133.017-.267.033-.384.067a80.01 80.01 0 00-3.807.684c-1.603.334-3.473.802-5.627 1.403l.033-.184.167-1.002-.083.017-2.672.818a9.929 9.929 0 00-1.386.534c-.35.184-.517.318-.534.418l-.134.768c-2.22.685-4.157 1.353-5.827 2.02a50.37 50.37 0 00-4.158 1.82c-1.102.568-1.937 1.052-2.471 1.503-.484.401-.701.718-.685.985v.084c.117.351.535.551 1.303.568.768.016 1.72-.067 2.888-.251a46.784 46.784 0 003.891-.801c1.403-.334 2.822-.685 4.241-1.052.034 0 .05-.017.084-.017l-.434 2.688a55.539 55.539 0 01-2.973.752c-.851.183-1.603.334-2.27.467-.668.134-1.27.234-1.787.351-.518.1-1.002.217-1.436.351a14.36 14.36 0 00-1.035.367 8.65 8.65 0 00-.768.367l-1.77 1.086-.351.217a74.199 74.199 0 005.46-1.052zm11.588-4.525l.351-2.238c.801-.2 1.536-.367 2.221-.517a20.91 20.91 0 011.803-.334 7.45 7.45 0 011.219-.101c.25.017.401.067.467.151.017.016.034.033.034.067.1.317-.367.751-1.403 1.285-1.035.535-2.621 1.169-4.725 1.87l.033-.183zm-9.618-1.904c0-.1.067-.217.234-.367.201-.167.534-.384 1.019-.618a26.675 26.675 0 011.87-.801 46.43 46.43 0 012.722-.969c.033-.017.05-.017.083-.033l-.351 2.22c-.784.184-1.502.351-2.17.485-.668.133-1.253.25-1.737.317-.501.067-.885.1-1.185.067-.284-.017-.468-.1-.501-.234 0-.033.016-.05.016-.067z" fill="#E65500"/><path d="M177.598 121.87c-4.358 5.393-11.838 10.887-21.089 14.961-11.421 5.043-22.642 6.646-29.772 4.826" stroke="#933C00" stroke-width=".415" stroke-miterlimit="10" stroke-linecap="round" stroke-linejoin="round"/><path d="M128.624 118.831c4.191-3.523 9.551-6.862 15.696-9.567a75.28 75.28 0 016.512-2.522m16.865-3.038c6.746.017 11.772 1.937 13.475 5.777 3.373 7.614-7.681 19.887-24.646 27.384-16.965 7.498-33.479 7.381-36.835-.233-1.469-3.323-.2-7.531 3.123-11.839" stroke="#553000" stroke-width=".415" stroke-miterlimit="10" stroke-linecap="round" stroke-linejoin="round"/><path d="M154.739 105.557c3.123-.835 6.145-1.386 8.95-1.67" stroke="#fff" stroke-width=".415" stroke-miterlimit="10" stroke-linecap="round" stroke-linejoin="round"/></svg>