<svg width="134" height="28" fill="none" xmlns="http://www.w3.org/2000/svg"><path fill-rule="evenodd" clip-rule="evenodd" d="M128.754 2.928l-8.64 8.583-8.528-8.583H85.383v21.798h3.332v-8.527h14.683v-3.332H88.715V6.315h18.411V3.21l10.616 10.673-10.899 10.843h4.743l8.528-8.47 8.471 8.526h4.743l-10.842-10.899 11.012-10.955h-4.744z" fill="#74DCFF"/><mask id="a" maskUnits="userSpaceOnUse" x="0" y="0" width="66" height="28"><path fill-rule="evenodd" clip-rule="evenodd" d="M0 0h65.222v28H0V0z" fill="#fff"/></mask><g mask="url(#a)"><path fill-rule="evenodd" clip-rule="evenodd" d="M65.165 2.926h-21.12v3.219c-2.203-2.372-5.252-3.84-8.584-3.84a11.58 11.58 0 00-9.261 4.63C22.416.499 13.889-2.324 6.152 2.249c-1.92 1.13-3.501 2.88-4.518 4.913C-3.448 17.61 4.063 28 14.002 28c5.082 0 9.656-2.71 12.141-7.003 3.445 4.574 9.996 6.269 15.756 2.767 1.864-1.13 3.219-2.823 4.066-4.8l.79-1.863h-4.517l-.283.508a7.392 7.392 0 01-6.494 3.84c-4.01 0-7.341-3.219-7.398-7.229v-.395c.113-4.01 3.445-7.228 7.454-7.228 2.372 0 4.518 1.073 5.93 2.993l.282.395h4.8l-.79-1.412-.847-1.355h7.68v17.62h4.18V7.16h8.47l-.056-4.235zM14.058 23.82c-7.116 0-12.424-7.567-8.415-15.078a7.639 7.639 0 012.598-2.767c7.454-4.744 15.473.621 15.643 7.793v.452c-.17 5.308-4.575 9.6-9.826 9.6z" fill="#fff"/></g><path fill-rule="evenodd" clip-rule="evenodd" d="M60.025 24.724h4.405l2.937-5.817h9.261l3.106 5.817h4.35L71.941 1.626 60.025 24.724zM71.94 9.138l3.389 6.55h-6.495l3.106-6.55z" fill="#fff"/></svg>