<svg width="36" height="36" fill="none" xmlns="http://www.w3.org/2000/svg"><path d="M31.57 0H4.43A4.43 4.43 0 0 0 0 4.43v27.14A4.43 4.43 0 0 0 4.43 36h27.14A4.43 4.43 0 0 0 36 31.57V4.43A4.43 4.43 0 0 0 31.57 0z" fill="url(#paint0_linear)"/><path d="M12.963 23.23c-3.829 0-6.676-4.03-4.521-8.027.333-.6.812-1.107 1.393-1.474 4.006-2.526 8.315.33 8.405 4.148v.237c-.088 2.83-2.455 5.115-5.277 5.115zm16.114-9.411a6.32 6.32 0 0 0-4.613-2.045 6.242 6.242 0 0 0-4.976 2.465c-2.035-3.427-6.615-4.931-10.768-2.495a6.34 6.34 0 0 0-2.428 2.617c-2.731 5.56 1.306 11.093 6.647 11.093a7.534 7.534 0 0 0 6.524-3.729c1.85 2.437 5.37 3.337 8.467 1.474a5.453 5.453 0 0 0 2.185-2.556l.424-.992h-2.433l-.152.27a3.994 3.994 0 0 1-4.435 1.94 3.95 3.95 0 0 1-3.036-3.744v-.21c.072-2.142 1.842-3.842 4.006-3.848a3.91 3.91 0 0 1 3.186 1.593l.152.211h2.587l-.425-.752-.455-.721-.457-.571z" fill="#fff"/><defs><linearGradient id="paint0_linear" x1="18" y1="0" x2="18" y2="36" gradientUnits="userSpaceOnUse"><stop stop-color="#0067F2"/><stop offset="1" stop-color="#0A43CC"/></linearGradient></defs></svg>