<svg version="1.1" id="Слой_1" xmlns="http://www.w3.org/2000/svg" xmlns:xlink="http://www.w3.org/1999/xlink" x="0" y="0" viewBox="0 0 140 39" xml:space="preserve"><path class="st0" fill="#212529" stroke="#E9E9EA" stroke-width=".5" d="M1 5c0-2.2 1.8-4 4-4h130c2.2 0 4 1.8 4 4v28.8c0 2.2-1.8 4-4 4H5c-2.2 0-4-1.8-4-4V5z"/><path class="st1" fill="#FFF" d="M50.6 11h-2.7v.8h1.9c0 .4-.2.7-.4.9-.4.4-.9.6-1.4.6-.5 0-1-.2-1.4-.6-.4-.4-.6-.9-.6-1.5s.2-1.1.6-1.5c.4-.4.9-.6 1.4-.6.6 0 1 .2 1.4.6l.1.1.5-.5-.1-.1c-.2-.3-.5-.5-.9-.6-.4-.2-.7-.2-1.1-.2-.8 0-1.5.3-2 .8-.6.5-.8 1.2-.8 2s.3 1.5.8 2 1.2.8 2 .8 1.5-.3 2-.8.7-1.1.7-1.8V11zM51.4 13.9h3.3v-.8h-2.4v-1.5h2.2v-.8h-2.2V9.3h2.4v-.8h-3.3v5.4zM55.2 9.3h1.5v4.6h.9V9.3H59v-.8h-3.8v.8zM62.3 8.5h-.9v5.4h.9V8.5zM63 9.3h1.5v4.6h.9V9.3h1.5v-.8H63v.8zM71.7 8.4c-.8 0-1.5.3-2 .8s-.8 1.2-.8 2 .3 1.5.8 2 1.2.8 2 .8 1.5-.3 2-.8.8-1.2.8-2-.3-1.5-.8-2c-.6-.5-1.2-.8-2-.8zm1.4 4.3c-.4.4-.8.6-1.4.6-.5 0-1-.2-1.4-.6-.4-.4-.6-.9-.6-1.4 0-.6.2-1.1.6-1.4.4-.4.8-.6 1.4-.6.5 0 1 .2 1.4.6.4.4.6.9.6 1.4-.1.5-.3 1-.6 1.4zM78.7 8.5V12.4l-2.5-3.9h-1v5.4h.9V9.8l2.5 4.1h.8V8.5h-.7zM68.8 21.5c-2.1 0-3.8 1.6-3.8 3.7s1.7 3.7 3.8 3.7c2.1 0 3.8-1.6 3.8-3.7s-1.7-3.7-3.8-3.7zm0 6c-1.1 0-2.1-.9-2.1-2.3 0-1.3 1-2.3 2.1-2.3s2.1.9 2.1 2.3-1 2.3-2.1 2.3zm-8.2-6c-2.1 0-3.8 1.6-3.8 3.7s1.7 3.7 3.8 3.7c2.1 0 3.8-1.6 3.8-3.7s-1.7-3.7-3.8-3.7zm0 6c-1.1 0-2.1-.9-2.1-2.3 0-1.3 1-2.3 2.1-2.3s2.1.9 2.1 2.3-1 2.3-2.1 2.3zm-9.8-4.8v1.6h3.8c-.1.9-.4 1.5-.9 2-.6.6-1.4 1.2-2.9 1.2-2.3 0-4.2-1.9-4.2-4.2 0-2.3 1.8-4.2 4.2-4.2 1.3 0 2.2.5 2.9 1.1l1.1-1.1c-1-.9-2.2-1.6-4-1.6-3.2 0-5.9 2.6-5.9 5.8 0 3.2 2.7 5.8 5.9 5.8 1.7 0 3-.6 4.1-1.6 1.1-1 1.4-2.5 1.4-3.7 0-.4 0-.7-.1-1l-5.4-.1zm40 1.2c-.3-.8-1.3-2.4-3.2-2.4-1.9 0-3.5 1.5-3.5 3.7 0 2.1 1.6 3.7 3.7 3.7 1.7 0 2.7-1 3.1-1.7l-1.3-.8c-.4.6-1 1-1.8 1s-1.4-.4-1.8-1.1l5-2.1-.2-.3zm-5.1 1.2c0-1.4 1.1-2.2 2-2.2.7 0 1.2.3 1.4.8l-3.4 1.4zm-4.1 3.7h1.6v-11h-1.6v11zm-2.7-6.4c-.4-.4-1.1-.8-2-.8-1.9 0-3.6 1.6-3.6 3.7S75 29 76.9 29c.9 0 1.6-.4 2-.8h.1v.5c0 1.4-.8 2.2-2 2.2-1 0-1.6-.7-1.9-1.3l-1.4.6c.4 1 1.5 2.2 3.3 2.2 1.9 0 3.6-1.1 3.6-3.9v-6.7H79v.6zM77 27.5c-1.1 0-2.1-.9-2.1-2.2 0-1.3 1-2.3 2.1-2.3s2 1 2 2.3c0 1.3-.9 2.2-2 2.2zm21.5-9.7h-3.9v10.9h1.6v-4.1h2.3c1.8 0 3.6-1.3 3.6-3.4 0-2.1-1.8-3.4-3.6-3.4zm0 5.3h-2.3v-3.8h2.3c1.2 0 1.9 1 1.9 1.9.1.8-.6 1.9-1.9 1.9zm10.2-1.6c-1.2 0-2.4.5-2.9 1.7l1.5.6c.3-.6.9-.8 1.5-.8.9 0 1.7.5 1.7 1.4v.1c-.3-.2-.9-.4-1.7-.4-1.6 0-3.2.9-3.2 2.5 0 1.5 1.3 2.4 2.7 2.4 1.1 0 1.7-.5 2.1-1.1h.1v.8h1.6v-4.2c-.1-1.9-1.5-3-3.4-3zm-.2 6c-.5 0-1.3-.3-1.3-.9 0-.8.9-1.2 1.7-1.2.7 0 1.1.2 1.5.4-.1 1-1 1.7-1.9 1.7zm9.3-5.8l-1.9 4.7h-.1l-2-4.7H112l2.9 6.6-1.7 3.7h1.7l4.5-10.3h-1.6zM103 28.8h1.6v-11H103v11z"/><defs><path id="SVGID_1_" d="M18 8.4h19.9v22.9H18z"/></defs><clipPath id="SVGID_2_"><use xlink:href="#SVGID_1_" overflow="visible"/></clipPath><g class="st2" clip-path="url(#SVGID_2_)"><linearGradient id="SVGID_3_" gradientUnits="userSpaceOnUse" x1="28.521" y1="29.881" x2="13.572" y2="15.4" gradientTransform="matrix(1 0 0 -1 0 40)"><stop offset="0" stop-color="#00a0ff"/><stop offset=".007" stop-color="#00a1ff"/><stop offset=".26" stop-color="#00beff"/><stop offset=".512" stop-color="#00d2ff"/><stop offset=".76" stop-color="#00dfff"/><stop offset="1" stop-color="#00e3ff"/></linearGradient><path class="st3" fill="url(#SVGID_3_)" d="M18.4 8.8c-.3.2-.4.7-.4 1.2v19.7c0 .6.1 1 .4 1.3l.1.1 10.7-11v-.2L18.4 8.8z"/><linearGradient id="SVGID_4_" gradientUnits="userSpaceOnUse" x1="38.599" y1="20.137" x2="17.711" y2="20.137" gradientTransform="matrix(1 0 0 -1 0 40)"><stop offset="0" stop-color="#ffe000"/><stop offset=".409" stop-color="#ffbd00"/><stop offset=".775" stop-color="orange"/><stop offset="1" stop-color="#ff9c00"/></linearGradient><path class="st4" fill="url(#SVGID_4_)" d="M32.7 23.7L29.2 20v-.2l3.6-3.7h.1l4.2 2.5c1.2.7 1.2 1.9 0 2.6l-4.4 2.5z"/><linearGradient id="SVGID_5_" gradientUnits="userSpaceOnUse" x1="30.818" y1="18.098" x2="10.546" y2="-1.538" gradientTransform="matrix(1 0 0 -1 0 40)"><stop offset="0" stop-color="#ff3a44"/><stop offset="1" stop-color="#c31162"/></linearGradient><path class="st5" fill="url(#SVGID_5_)" d="M32.8 23.6l-3.6-3.8L18.4 31c.4.4 1.1.5 1.8.1l12.6-7.5z"/><linearGradient id="SVGID_6_" gradientUnits="userSpaceOnUse" x1="15.203" y1="37.304" x2="24.256" y2="28.535" gradientTransform="matrix(1 0 0 -1 0 40)"><stop offset="0" stop-color="#32a071"/><stop offset=".069" stop-color="#2da771"/><stop offset=".476" stop-color="#15cf74"/><stop offset=".801" stop-color="#06e775"/><stop offset="1" stop-color="#00f076"/></linearGradient><path class="st6" fill="url(#SVGID_6_)" d="M32.8 16.1L20.2 8.7c-.7-.4-1.4-.4-1.8.1l10.8 11.1 3.6-3.8z"/><path class="st7" opacity=".2" d="M32.7 23.5l-12.5 7.4c-.7.4-1.3.4-1.7 0l-.1.1.1.1c.4.4 1 .4 1.7 0l12.5-7.6z"/><path class="st8" opacity=".12" d="M18.4 30.8c-.3-.3-.4-.7-.4-1.3v.1c0 .6.1 1 .4 1.3v-.1zM37 21l-4.3 2.5.1.1 4.2-2.5c.6-.4.9-.8.9-1.3 0 .5-.3.9-.9 1.2z"/><path class="st9" opacity=".25" fill="#FFF" d="M20.2 8.8L37 18.7c.5.3.9.7.9 1.2 0-.5-.3-.9-.9-1.3L20.2 8.7C19 8 18 8.6 18 10v.1c0-1.4 1-2 2.2-1.3z"/></g></svg>