<svg width="88" height="10" fill="none" xmlns="http://www.w3.org/2000/svg"><path d="M69.157 1.95l-3.84 4.45.25 1.09h3.42V9h1.47V7.49h.94V6.24h-.94V1.95h-1.3zm-.17 4.29h-1.86l1.86-2.18v2.18zM74.14 9V7.4h-1.62V9h1.62zm3.712-5.72c.28 0 .506.077.68.23.173.153.26.38.26.68 0 .147-.024.283-.07.41-.04.12-.11.247-.21.38a3.252 3.252 0 0 1-.37.41c-.154.14-.34.3-.56.48l-2.33 1.91V9h5.18V7.67h-3.05l1.14-.88c.306-.24.576-.46.81-.66a3.71 3.71 0 0 0 .57-.62c.153-.207.266-.423.34-.65.08-.233.12-.497.12-.79 0-.327-.057-.623-.17-.89a1.758 1.758 0 0 0-.48-.68 2.038 2.038 0 0 0-.76-.44 2.914 2.914 0 0 0-1-.16c-.314 0-.594.033-.84.1-.247.06-.474.153-.68.28-.2.12-.39.27-.57.45-.174.18-.347.387-.52.62l1.08.87c.26-.32.493-.557.7-.71a1.22 1.22 0 0 1 .73-.23z" fill="#F2F2F2"/><path d="M5 0l1.123 3.455h3.632L6.816 5.59 7.94 9.045 5 6.91 2.061 9.045 3.184 5.59.244 3.455h3.633L5 0zM17 0l1.123 3.455h3.632L18.816 5.59l1.123 3.455L17 6.91l-2.939 2.135 1.123-3.455-2.94-2.135h3.633L17 0zM29 0l1.123 3.455h3.632L30.816 5.59l1.123 3.455L29 6.91l-2.939 2.135 1.123-3.455-2.94-2.135h3.633L29 0zM41 0l1.123 3.455h3.632L42.816 5.59l1.123 3.455L41 6.91l-2.939 2.135 1.123-3.455-2.94-2.135h3.633L41 0z" fill="#FFA933"/><path d="M53 0l1.123 3.455h3.632L54.816 5.59l1.123 3.455L53 6.91l-2.939 2.135 1.123-3.455-2.94-2.135h3.633L53 0z" fill="#A6A8A9"/></svg>